<svg xmlns="http://www.w3.org/2000/svg" xmlns:xlink="http://www.w3.org/1999/xlink" width="940" zoomAndPan="magnify" viewBox="0 0 705 591.000005" height="788" preserveAspectRatio="xMidYMid meet" version="1.2"><defs><clipPath id="1cf46bc29c"><path d="M 268.964844 393 L 286.183594 393 L 286.183594 395 L 268.964844 395 Z M 268.964844 393 "/></clipPath><clipPath id="3e1fa7519e"><path d="M 268.964844 394 L 286.183594 394 L 286.183594 395.265625 L 268.964844 395.265625 Z M 268.964844 394 "/></clipPath><clipPath id="5ad98a95b4"><path d="M 268.964844 393 L 270 393 L 270 394 L 268.964844 394 Z M 268.964844 393 "/></clipPath><clipPath id="292d2d9546"><path d="M 286 393 L 286.183594 393 L 286.183594 394 L 286 394 Z M 286 393 "/></clipPath><clipPath id="3cbfaae607"><path d="M 275 387.777344 L 280 387.777344 L 280 394 L 275 394 Z M 275 387.777344 "/></clipPath><clipPath id="62feab415c"><path d="M 69.636719 78 L 635.679688 78 L 635.679688 589.722656 L 69.636719 589.722656 Z M 69.636719 78 "/></clipPath></defs><g id="56242fcd32"><g clip-rule="nonzero" clip-path="url(#1cf46bc29c)"><path style=" stroke:none;fill-rule:nonzero;fill:#000000;fill-opacity:1;" d="M 279.722656 393.648438 C 279.691406 393.648438 279.660156 393.648438 279.625 393.65625 C 279.601562 393.660156 279.589844 393.695312 279.5625 393.679688 C 279.542969 393.664062 279.53125 393.640625 279.515625 393.621094 C 279.507812 393.613281 279.5 393.601562 279.492188 393.59375 C 279.472656 393.5625 279.445312 393.550781 279.410156 393.550781 C 279.394531 393.550781 279.375 393.550781 279.359375 393.550781 C 278.167969 393.550781 276.980469 393.550781 275.789062 393.550781 C 275.773438 393.550781 275.753906 393.550781 275.734375 393.550781 C 275.703125 393.546875 275.679688 393.5625 275.660156 393.589844 C 275.644531 393.617188 275.625 393.644531 275.605469 393.671875 C 275.59375 393.683594 275.578125 393.699219 275.5625 393.6875 C 275.519531 393.648438 275.46875 393.660156 275.417969 393.660156 C 273.300781 393.660156 271.183594 393.660156 269.066406 393.660156 C 269.035156 393.660156 269.003906 393.660156 268.96875 393.660156 L 268.96875 394.78125 C 269.003906 394.78125 269.039062 394.785156 269.074219 394.785156 C 271.191406 394.785156 273.3125 394.785156 275.429688 394.785156 C 275.445312 394.785156 275.457031 394.785156 275.472656 394.785156 C 275.527344 394.785156 275.558594 394.8125 275.5625 394.871094 C 275.570312 394.925781 275.589844 394.953125 275.644531 394.960938 C 275.664062 394.964844 275.6875 394.96875 275.710938 394.96875 C 276.953125 394.96875 278.195312 394.96875 279.433594 394.96875 C 279.453125 394.96875 279.472656 394.96875 279.488281 394.964844 C 279.554688 394.957031 279.589844 394.917969 279.59375 394.851562 C 279.601562 394.785156 279.601562 394.785156 279.667969 394.785156 C 279.6875 394.78125 279.707031 394.785156 279.726562 394.785156 C 281.847656 394.785156 283.96875 394.785156 286.089844 394.785156 C 286.121094 394.785156 286.148438 394.78125 286.175781 394.78125 L 286.175781 393.648438 C 284.75 393.648438 283.328125 393.648438 281.902344 393.648438 C 281.175781 393.648438 280.449219 393.648438 279.722656 393.648438 Z M 279.722656 393.648438 "/></g><g clip-rule="nonzero" clip-path="url(#3e1fa7519e)"><path style=" stroke:none;fill-rule:nonzero;fill:#000000;fill-opacity:1;" d="M 279.84375 394.917969 C 279.785156 394.921875 279.738281 394.9375 279.726562 395.015625 C 279.71875 395.070312 279.695312 395.085938 279.644531 395.089844 C 279.621094 395.089844 279.601562 395.089844 279.582031 395.089844 C 278.226562 395.089844 276.871094 395.089844 275.515625 395.089844 C 275.492188 395.089844 275.46875 395.089844 275.449219 395.089844 C 275.398438 395.082031 275.378906 395.066406 275.371094 395.015625 C 275.355469 394.945312 275.332031 394.925781 275.261719 394.917969 C 275.242188 394.917969 275.222656 394.917969 275.207031 394.917969 C 273.128906 394.917969 271.050781 394.917969 268.96875 394.917969 L 268.96875 395.101562 C 269.003906 395.101562 269.039062 395.101562 269.074219 395.101562 C 271.042969 395.101562 273.007812 395.101562 274.976562 395.101562 C 275 395.101562 275.027344 395.101562 275.050781 395.105469 C 275.09375 395.105469 275.113281 395.121094 275.128906 395.167969 C 275.152344 395.253906 275.167969 395.265625 275.253906 395.265625 C 276.789062 395.265625 278.320312 395.265625 279.855469 395.265625 C 279.945312 395.265625 279.957031 395.253906 279.984375 395.167969 C 279.996094 395.121094 280.015625 395.105469 280.0625 395.105469 C 280.085938 395.101562 280.109375 395.101562 280.132812 395.101562 C 282.113281 395.101562 284.09375 395.101562 286.074219 395.101562 C 286.105469 395.101562 286.140625 395.101562 286.175781 395.101562 L 286.175781 394.917969 C 284.082031 394.917969 281.988281 394.917969 279.890625 394.917969 C 279.875 394.917969 279.859375 394.917969 279.84375 394.917969 Z M 279.84375 394.917969 "/></g><g clip-rule="nonzero" clip-path="url(#5ad98a95b4)"><path style=" stroke:none;fill-rule:nonzero;fill:#000000;fill-opacity:1;" d="M 269.066406 393.625 C 269.117188 393.621094 269.125 393.617188 269.128906 393.5625 C 269.128906 393.507812 269.128906 393.449219 269.128906 393.390625 C 269.128906 393.257812 269.140625 393.285156 269.046875 393.1875 C 269.023438 393.167969 269.003906 393.144531 268.96875 393.144531 L 268.96875 393.625 C 269.003906 393.625 269.035156 393.625 269.066406 393.625 Z M 269.066406 393.625 "/></g><g clip-rule="nonzero" clip-path="url(#292d2d9546)"><path style=" stroke:none;fill-rule:nonzero;fill:#000000;fill-opacity:1;" d="M 286.0625 393.269531 C 286.050781 393.277344 286.042969 393.292969 286.042969 393.308594 C 286.042969 393.398438 286.042969 393.488281 286.042969 393.582031 C 286.042969 393.609375 286.058594 393.625 286.085938 393.625 C 286.117188 393.625 286.144531 393.625 286.175781 393.625 L 286.175781 393.144531 C 286.136719 393.183594 286.097656 393.226562 286.0625 393.269531 Z M 286.0625 393.269531 "/></g><g clip-rule="nonzero" clip-path="url(#3cbfaae607)"><path style=" stroke:none;fill-rule:nonzero;fill:#000000;fill-opacity:1;" d="M 275.328125 392.046875 C 275.351562 392.066406 275.363281 392.085938 275.367188 392.113281 C 275.371094 392.164062 275.382812 392.210938 275.382812 392.261719 C 275.378906 392.328125 275.398438 392.390625 275.394531 392.457031 C 275.394531 392.480469 275.402344 392.5 275.425781 392.503906 C 275.457031 392.507812 275.457031 392.527344 275.457031 392.550781 C 275.449219 392.628906 275.445312 392.707031 275.4375 392.785156 C 275.429688 392.851562 275.433594 392.859375 275.5 392.859375 C 275.707031 392.867188 275.914062 392.847656 276.121094 392.847656 C 276.128906 392.847656 276.132812 392.847656 276.140625 392.847656 C 276.164062 392.847656 276.175781 392.832031 276.175781 392.808594 C 276.179688 392.75 276.179688 392.75 276.238281 392.75 C 276.375 392.75 276.511719 392.75 276.648438 392.75 C 276.664062 392.75 276.675781 392.75 276.691406 392.753906 C 276.703125 392.753906 276.714844 392.761719 276.714844 392.773438 C 276.722656 392.832031 276.726562 392.886719 276.714844 392.949219 C 276.699219 392.9375 276.695312 392.933594 276.6875 392.929688 C 276.625 392.894531 276.542969 392.902344 276.492188 392.953125 C 276.457031 392.984375 276.425781 393.023438 276.398438 393.0625 C 276.378906 393.085938 276.371094 393.109375 276.371094 393.136719 C 276.371094 393.25 276.371094 393.363281 276.371094 393.472656 C 276.371094 393.53125 276.382812 393.539062 276.4375 393.539062 C 276.550781 393.539062 276.667969 393.539062 276.78125 393.539062 C 276.796875 393.539062 276.8125 393.535156 276.828125 393.53125 C 276.871094 393.523438 276.878906 393.511719 276.878906 393.46875 C 276.878906 393.449219 276.878906 393.433594 276.878906 393.414062 C 276.878906 393.152344 276.878906 392.886719 276.878906 392.625 C 276.878906 392.558594 276.886719 392.554688 276.949219 392.554688 C 276.953125 392.554688 276.960938 392.554688 276.964844 392.554688 C 277.378906 392.554688 277.792969 392.554688 278.203125 392.554688 C 278.289062 392.554688 278.292969 392.554688 278.292969 392.644531 C 278.292969 392.910156 278.292969 393.175781 278.292969 393.445312 C 278.292969 393.523438 278.304688 393.535156 278.375 393.539062 C 278.492188 393.539062 278.609375 393.539062 278.726562 393.539062 C 278.777344 393.539062 278.785156 393.527344 278.785156 393.476562 C 278.789062 393.394531 278.785156 393.316406 278.785156 393.234375 C 278.785156 393.089844 278.785156 393.089844 278.691406 392.980469 C 278.644531 392.921875 278.589844 392.902344 278.523438 392.910156 C 278.511719 392.910156 278.503906 392.914062 278.492188 392.914062 C 278.472656 392.921875 278.460938 392.914062 278.460938 392.890625 C 278.460938 392.867188 278.460938 392.84375 278.460938 392.816406 C 278.460938 392.757812 278.46875 392.75 278.527344 392.75 C 278.640625 392.75 278.753906 392.75 278.867188 392.75 C 278.894531 392.75 278.921875 392.75 278.949219 392.75 C 278.972656 392.75 278.984375 392.761719 278.992188 392.789062 C 279.003906 392.847656 279.003906 392.847656 279.0625 392.847656 C 279.128906 392.851562 279.195312 392.84375 279.257812 392.851562 C 279.398438 392.867188 279.542969 392.859375 279.683594 392.859375 C 279.730469 392.859375 279.730469 392.855469 279.730469 392.808594 C 279.726562 392.730469 279.71875 392.648438 279.710938 392.570312 C 279.707031 392.550781 279.699219 392.519531 279.71875 392.515625 C 279.777344 392.492188 279.773438 392.441406 279.777344 392.394531 C 279.78125 392.320312 279.785156 392.242188 279.789062 392.164062 C 279.792969 392.125 279.800781 392.085938 279.832031 392.058594 C 279.867188 392.019531 279.867188 392.015625 279.839844 391.964844 C 279.824219 391.9375 279.800781 391.902344 279.8125 391.875 C 279.828125 391.832031 279.8125 391.796875 279.8125 391.757812 C 279.8125 391.710938 279.808594 391.664062 279.828125 391.621094 C 279.839844 391.601562 279.828125 391.585938 279.808594 391.574219 C 279.804688 391.582031 279.800781 391.582031 279.800781 391.585938 C 279.804688 391.691406 279.796875 391.789062 279.777344 391.890625 C 279.765625 391.949219 279.742188 391.988281 279.699219 392.003906 C 279.578125 392.042969 279.457031 392.035156 279.332031 392.03125 C 279.300781 392.03125 279.292969 392.011719 279.300781 391.980469 C 279.300781 391.964844 279.308594 391.949219 279.320312 391.9375 C 279.363281 391.910156 279.355469 391.875 279.335938 391.835938 C 279.316406 391.796875 279.296875 391.761719 279.316406 391.714844 C 279.320312 391.703125 279.316406 391.691406 279.316406 391.679688 C 279.304688 391.621094 279.296875 391.5625 279.320312 391.503906 C 279.332031 391.480469 279.324219 391.460938 279.292969 391.449219 C 279.289062 391.5625 279.296875 391.671875 279.269531 391.777344 C 279.253906 391.839844 279.238281 391.867188 279.175781 391.886719 C 279.09375 391.914062 279.011719 391.910156 278.929688 391.910156 C 278.816406 391.910156 278.8125 391.90625 278.832031 391.792969 C 278.835938 391.765625 278.828125 391.730469 278.851562 391.710938 C 278.902344 391.675781 278.886719 391.640625 278.863281 391.601562 C 278.851562 391.574219 278.832031 391.542969 278.839844 391.515625 C 278.855469 391.476562 278.84375 391.4375 278.847656 391.398438 C 278.847656 391.351562 278.839844 391.304688 278.859375 391.257812 C 278.867188 391.234375 278.855469 391.214844 278.832031 391.195312 C 278.820312 391.222656 278.824219 391.246094 278.824219 391.269531 C 278.824219 391.355469 278.824219 391.445312 278.808594 391.53125 C 278.800781 391.582031 278.78125 391.628906 278.730469 391.644531 C 278.675781 391.664062 278.621094 391.679688 278.566406 391.683594 C 278.453125 391.699219 278.339844 391.703125 278.230469 391.710938 C 278.183594 391.714844 278.171875 391.699219 278.171875 391.65625 C 278.171875 391.617188 278.183594 391.605469 278.222656 391.605469 C 278.277344 391.601562 278.328125 391.605469 278.378906 391.605469 C 278.441406 391.605469 278.449219 391.597656 278.46875 391.535156 C 278.472656 391.511719 278.480469 391.492188 278.488281 391.46875 C 278.496094 391.4375 278.507812 391.40625 278.542969 391.386719 C 278.582031 391.363281 278.59375 391.300781 278.566406 391.261719 C 278.535156 391.214844 278.535156 391.160156 278.554688 391.117188 C 278.582031 391.0625 278.585938 391.015625 278.574219 390.960938 C 278.574219 390.945312 278.570312 390.929688 278.574219 390.914062 C 278.585938 390.875 278.578125 390.839844 278.566406 390.804688 C 278.550781 390.757812 278.546875 390.710938 278.582031 390.671875 C 278.597656 390.65625 278.597656 390.636719 278.582031 390.621094 C 278.554688 390.585938 278.546875 390.542969 278.539062 390.496094 C 278.535156 390.46875 278.542969 390.4375 278.515625 390.402344 C 278.503906 390.464844 278.492188 390.515625 278.496094 390.566406 C 278.5 390.664062 278.480469 390.761719 278.484375 390.859375 C 278.484375 390.886719 278.472656 390.90625 278.453125 390.925781 C 278.429688 390.945312 278.414062 390.917969 278.390625 390.917969 C 278.386719 390.949219 278.382812 390.980469 278.347656 390.984375 C 278.296875 390.992188 278.277344 391.023438 278.265625 391.070312 C 278.253906 391.117188 278.226562 391.125 278.183594 391.097656 C 278.132812 391.066406 278.082031 391.035156 278.03125 391 C 278.023438 390.992188 278.003906 390.988281 278.011719 390.96875 C 278.03125 390.960938 278.054688 390.964844 278.078125 390.964844 C 278.125 390.960938 278.128906 390.957031 278.144531 390.910156 C 278.160156 390.867188 278.164062 390.824219 278.199219 390.789062 C 278.214844 390.777344 278.203125 390.753906 278.199219 390.734375 C 278.195312 390.714844 278.183594 390.691406 278.195312 390.671875 C 278.214844 390.632812 278.210938 390.59375 278.210938 390.550781 C 278.210938 390.515625 278.214844 390.476562 278.199219 390.441406 C 278.195312 390.425781 278.199219 390.40625 278.210938 390.390625 C 278.222656 390.371094 278.222656 390.351562 278.210938 390.332031 C 278.195312 390.308594 278.195312 390.28125 278.1875 390.257812 C 278.183594 390.242188 278.1875 390.222656 278.171875 390.214844 C 278.15625 390.226562 278.15625 390.242188 278.160156 390.257812 C 278.160156 390.332031 278.140625 390.402344 278.144531 390.476562 C 278.144531 390.503906 278.132812 390.519531 278.105469 390.535156 C 278.070312 390.558594 278.019531 390.570312 278.007812 390.625 C 278 390.644531 277.984375 390.652344 277.964844 390.640625 C 277.917969 390.617188 277.875 390.589844 277.839844 390.554688 C 277.8125 390.53125 277.816406 390.492188 277.828125 390.457031 C 277.835938 390.425781 277.867188 390.433594 277.890625 390.433594 C 277.90625 390.433594 277.921875 390.433594 277.9375 390.433594 C 277.953125 390.429688 277.972656 390.425781 277.976562 390.410156 C 277.984375 390.351562 278.050781 390.308594 278.019531 390.238281 C 278.015625 390.234375 278.019531 390.222656 278.023438 390.214844 C 278.046875 390.171875 278.035156 390.125 278.03125 390.078125 C 278.03125 390.058594 278.027344 390.039062 278.03125 390.023438 C 278.039062 389.976562 278.015625 389.9375 278.003906 389.894531 C 277.984375 389.90625 277.988281 389.925781 277.988281 389.941406 C 277.992188 389.988281 277.980469 390.03125 277.976562 390.074219 C 277.976562 390.089844 277.976562 390.105469 277.960938 390.113281 C 277.925781 390.128906 277.90625 390.152344 277.882812 390.179688 C 277.871094 390.191406 277.859375 390.199219 277.84375 390.1875 C 277.820312 390.171875 277.796875 390.160156 277.777344 390.140625 C 277.757812 390.125 277.757812 390.097656 277.765625 390.078125 C 277.769531 390.054688 277.789062 390.054688 277.808594 390.050781 C 277.824219 390.050781 277.839844 390.050781 277.855469 390.050781 C 277.871094 390.046875 277.886719 390.042969 277.890625 390.027344 C 277.90625 389.996094 277.921875 389.964844 277.925781 389.929688 C 277.9375 389.855469 277.9375 389.78125 277.933594 389.707031 C 277.933594 389.679688 277.929688 389.652344 277.90625 389.632812 C 277.886719 389.65625 277.890625 389.6875 277.894531 389.710938 C 277.90625 389.78125 277.851562 389.8125 277.8125 389.847656 C 277.789062 389.867188 277.765625 389.84375 277.746094 389.832031 C 277.726562 389.8125 277.734375 389.800781 277.753906 389.789062 C 277.765625 389.78125 277.753906 389.769531 277.746094 389.761719 C 277.707031 389.738281 277.699219 389.703125 277.699219 389.65625 C 277.703125 389.632812 277.695312 389.609375 277.671875 389.59375 C 277.652344 389.582031 277.652344 389.5625 277.660156 389.542969 C 277.667969 389.519531 277.675781 389.496094 277.6875 389.472656 C 277.707031 389.4375 277.710938 389.402344 277.703125 389.363281 C 277.679688 389.257812 277.660156 389.152344 277.636719 389.046875 C 277.621094 388.976562 277.609375 388.910156 277.625 388.839844 C 277.632812 388.8125 277.636719 388.785156 277.628906 388.757812 C 277.625 388.738281 277.628906 388.722656 277.65625 388.722656 C 277.691406 388.71875 277.695312 388.699219 277.691406 388.667969 C 277.683594 388.59375 277.664062 388.523438 277.644531 388.453125 C 277.597656 388.308594 277.5625 388.164062 277.578125 388.011719 C 277.582031 387.996094 277.578125 387.980469 277.578125 387.960938 C 277.582031 387.925781 277.570312 387.882812 277.601562 387.851562 C 277.609375 387.84375 277.605469 387.832031 277.597656 387.824219 C 277.585938 387.808594 277.585938 387.785156 277.5625 387.777344 C 277.550781 387.796875 277.554688 387.820312 277.554688 387.839844 C 277.554688 387.945312 277.554688 388.050781 277.554688 388.152344 C 277.554688 388.179688 277.554688 388.203125 277.546875 388.226562 C 277.511719 388.328125 277.5 388.4375 277.460938 388.539062 C 277.441406 388.582031 277.445312 388.628906 277.4375 388.671875 C 277.433594 388.691406 277.4375 388.710938 277.453125 388.714844 C 277.5 388.722656 277.496094 388.75 277.496094 388.785156 C 277.496094 388.8125 277.5 388.839844 277.507812 388.863281 C 277.519531 388.914062 277.511719 388.960938 277.5 389.011719 C 277.480469 389.113281 277.460938 389.214844 277.433594 389.316406 C 277.417969 389.386719 277.417969 389.453125 277.460938 389.511719 C 277.464844 389.519531 277.46875 389.53125 277.472656 389.539062 C 277.480469 389.5625 277.480469 389.582031 277.460938 389.59375 C 277.433594 389.609375 277.433594 389.632812 277.433594 389.65625 C 277.4375 389.703125 277.425781 389.738281 277.386719 389.761719 C 277.378906 389.765625 277.371094 389.773438 277.375 389.78125 C 277.378906 389.785156 277.378906 389.789062 277.382812 389.789062 C 277.394531 389.796875 277.410156 389.792969 277.410156 389.808594 C 277.410156 389.824219 277.394531 389.828125 277.386719 389.835938 C 277.371094 389.847656 277.355469 389.847656 277.335938 389.835938 C 277.289062 389.808594 277.253906 389.773438 277.265625 389.707031 C 277.269531 389.683594 277.273438 389.65625 277.25 389.628906 C 277.234375 389.671875 277.222656 389.707031 277.226562 389.75 C 277.226562 389.804688 277.238281 389.863281 277.230469 389.917969 C 277.222656 389.960938 277.238281 389.996094 277.253906 390.03125 C 277.269531 390.0625 277.304688 390.046875 277.332031 390.050781 C 277.339844 390.050781 277.347656 390.054688 277.355469 390.054688 C 277.371094 390.058594 277.378906 390.066406 277.382812 390.082031 C 277.390625 390.132812 277.351562 390.148438 277.324219 390.171875 C 277.296875 390.191406 277.28125 390.183594 277.261719 390.160156 C 277.253906 390.144531 277.238281 390.132812 277.222656 390.125 C 277.183594 390.113281 277.179688 390.082031 277.179688 390.046875 C 277.179688 389.996094 277.171875 389.949219 277.164062 389.898438 C 277.148438 389.898438 277.148438 389.910156 277.144531 389.917969 C 277.136719 389.960938 277.117188 390.003906 277.136719 390.050781 C 277.105469 390.136719 277.152344 390.222656 277.128906 390.304688 C 277.128906 390.316406 277.132812 390.324219 277.136719 390.335938 C 277.152344 390.394531 277.191406 390.425781 277.253906 390.433594 C 277.269531 390.433594 277.285156 390.4375 277.292969 390.453125 C 277.308594 390.480469 277.300781 390.546875 277.277344 390.566406 C 277.25 390.589844 277.21875 390.605469 277.191406 390.625 C 277.175781 390.636719 277.160156 390.636719 277.152344 390.617188 C 277.140625 390.578125 277.089844 390.574219 277.078125 390.535156 C 277.078125 390.527344 277.066406 390.527344 277.058594 390.53125 C 277.019531 390.539062 277.015625 390.507812 277.011719 390.480469 C 277.011719 390.445312 277.015625 390.410156 277.011719 390.375 C 277.007812 390.324219 277 390.273438 276.996094 390.222656 C 276.996094 390.222656 276.992188 390.21875 276.984375 390.214844 C 276.96875 390.234375 276.976562 390.261719 276.96875 390.285156 C 276.953125 390.328125 276.929688 390.371094 276.960938 390.417969 C 276.964844 390.425781 276.960938 390.441406 276.957031 390.449219 C 276.9375 390.5 276.957031 390.554688 276.945312 390.605469 C 276.941406 390.617188 276.945312 390.632812 276.953125 390.640625 C 276.976562 390.675781 276.972656 390.710938 276.957031 390.746094 C 276.949219 390.765625 276.945312 390.789062 276.953125 390.8125 C 276.964844 390.851562 276.976562 390.886719 276.988281 390.921875 C 276.996094 390.949219 277.015625 390.960938 277.042969 390.964844 C 277.066406 390.964844 277.089844 390.960938 277.117188 390.972656 C 277.058594 391.011719 277.003906 391.046875 276.949219 391.082031 C 276.910156 391.105469 276.902344 391.105469 276.890625 391.058594 C 276.882812 391.023438 276.867188 390.996094 276.828125 390.988281 C 276.800781 390.984375 276.785156 390.96875 276.78125 390.9375 C 276.78125 390.914062 276.769531 390.902344 276.746094 390.921875 C 276.71875 390.945312 276.703125 390.925781 276.6875 390.902344 C 276.671875 390.886719 276.675781 390.867188 276.675781 390.84375 C 276.675781 390.722656 276.65625 390.601562 276.660156 390.480469 C 276.660156 390.457031 276.660156 390.433594 276.644531 390.414062 C 276.628906 390.421875 276.628906 390.433594 276.625 390.441406 C 276.621094 390.507812 276.613281 390.570312 276.574219 390.625 C 276.5625 390.644531 276.566406 390.664062 276.582031 390.679688 C 276.621094 390.714844 276.617188 390.757812 276.597656 390.800781 C 276.582031 390.832031 276.570312 390.863281 276.582031 390.898438 C 276.585938 390.929688 276.585938 390.960938 276.578125 390.992188 C 276.574219 391.023438 276.566406 391.058594 276.589844 391.085938 C 276.632812 391.148438 276.621094 391.203125 276.597656 391.265625 C 276.585938 391.292969 276.570312 391.320312 276.585938 391.355469 C 276.605469 391.414062 276.625 391.472656 276.640625 391.53125 C 276.664062 391.601562 276.664062 391.601562 276.738281 391.605469 C 276.78125 391.605469 276.820312 391.601562 276.863281 391.605469 C 276.894531 391.609375 276.914062 391.644531 276.910156 391.679688 C 276.90625 391.714844 276.878906 391.703125 276.863281 391.703125 C 276.726562 391.691406 276.585938 391.691406 276.449219 391.652344 C 276.402344 391.640625 276.371094 391.609375 276.363281 391.5625 C 276.34375 391.46875 276.324219 391.375 276.335938 391.277344 C 276.335938 391.253906 276.339844 391.230469 276.328125 391.203125 C 276.308594 391.226562 276.300781 391.246094 276.3125 391.269531 C 276.324219 391.289062 276.320312 391.3125 276.324219 391.335938 C 276.328125 391.394531 276.308594 391.457031 276.324219 391.519531 C 276.328125 391.535156 276.316406 391.558594 276.3125 391.578125 C 276.304688 391.59375 276.296875 391.605469 276.289062 391.621094 C 276.273438 391.648438 276.273438 391.675781 276.300781 391.695312 C 276.328125 391.714844 276.335938 391.742188 276.335938 391.773438 C 276.335938 391.800781 276.335938 391.832031 276.335938 391.859375 C 276.332031 391.902344 276.324219 391.910156 276.28125 391.910156 C 276.1875 391.910156 276.089844 391.917969 275.996094 391.886719 C 275.933594 391.867188 275.898438 391.832031 275.890625 391.761719 C 275.878906 391.679688 275.875 391.59375 275.875 391.503906 C 275.875 391.484375 275.882812 391.464844 275.863281 391.445312 C 275.84375 391.460938 275.832031 391.480469 275.84375 391.507812 C 275.855469 391.546875 275.851562 391.589844 275.851562 391.628906 C 275.851562 391.65625 275.84375 391.6875 275.851562 391.714844 C 275.867188 391.761719 275.851562 391.800781 275.832031 391.839844 C 275.804688 391.894531 275.804688 391.894531 275.84375 391.941406 C 275.863281 391.960938 275.867188 391.984375 275.859375 392.011719 C 275.851562 392.035156 275.828125 392.035156 275.808594 392.03125 C 275.703125 392.027344 275.601562 392.042969 275.496094 392.011719 C 275.429688 391.992188 275.398438 391.964844 275.386719 391.894531 C 275.375 391.804688 275.363281 391.714844 275.371094 391.625 C 275.371094 391.609375 275.375 391.589844 275.359375 391.574219 C 275.332031 391.605469 275.328125 391.605469 275.335938 391.625 C 275.371094 391.679688 275.359375 391.734375 275.347656 391.789062 C 275.34375 391.8125 275.335938 391.832031 275.347656 391.851562 C 275.359375 391.875 275.351562 391.898438 275.34375 391.921875 C 275.332031 391.945312 275.324219 391.96875 275.3125 391.988281 C 275.300781 392.011719 275.304688 392.035156 275.328125 392.050781 Z M 275.328125 392.046875 "/></g><path style=" stroke:none;fill-rule:nonzero;fill:#000000;fill-opacity:1;" d="M 278.945312 393.476562 C 278.945312 393.527344 278.953125 393.535156 279.003906 393.539062 C 279.074219 393.539062 279.140625 393.539062 279.210938 393.539062 C 279.277344 393.539062 279.347656 393.539062 279.414062 393.539062 C 279.464844 393.535156 279.472656 393.527344 279.472656 393.476562 C 279.476562 393.441406 279.472656 393.40625 279.476562 393.371094 C 279.476562 393.34375 279.46875 393.320312 279.445312 393.308594 C 279.421875 393.292969 279.425781 393.277344 279.449219 393.261719 C 279.46875 393.25 279.472656 393.226562 279.472656 393.203125 C 279.472656 393.128906 279.476562 393.050781 279.472656 392.976562 C 279.472656 392.933594 279.464844 392.925781 279.417969 392.921875 C 279.371094 392.921875 279.324219 392.921875 279.273438 392.921875 C 279.15625 392.921875 279.054688 392.964844 278.976562 393.054688 C 278.953125 393.078125 278.945312 393.101562 278.945312 393.132812 C 278.945312 393.246094 278.941406 393.363281 278.945312 393.476562 Z M 278.945312 393.476562 "/><path style=" stroke:none;fill-rule:nonzero;fill:#000000;fill-opacity:1;" d="M 275.707031 393.316406 C 275.6875 393.332031 275.683594 393.351562 275.683594 393.375 C 275.683594 393.410156 275.683594 393.441406 275.683594 393.472656 C 275.683594 393.53125 275.691406 393.535156 275.75 393.539062 C 275.816406 393.539062 275.882812 393.539062 275.949219 393.539062 C 276.015625 393.539062 276.082031 393.539062 276.148438 393.539062 C 276.207031 393.535156 276.214844 393.53125 276.214844 393.472656 C 276.214844 393.402344 276.214844 393.332031 276.214844 393.261719 C 276.214844 393.140625 276.171875 393.042969 276.089844 392.960938 C 276.085938 392.957031 276.082031 392.953125 276.082031 392.953125 C 276.0625 392.929688 276.039062 392.921875 276.011719 392.921875 C 275.917969 392.921875 275.828125 392.921875 275.738281 392.921875 C 275.695312 392.921875 275.683594 392.933594 275.683594 392.976562 C 275.683594 393.054688 275.683594 393.128906 275.683594 393.203125 C 275.683594 393.226562 275.6875 393.246094 275.707031 393.257812 C 275.730469 393.277344 275.726562 393.296875 275.707031 393.3125 Z M 275.707031 393.316406 "/><path style=" stroke:none;fill-rule:nonzero;fill:#000000;fill-opacity:1;" d="M 277.675781 393.476562 C 277.675781 393.527344 277.683594 393.535156 277.730469 393.539062 C 277.847656 393.539062 277.964844 393.539062 278.078125 393.539062 C 278.125 393.535156 278.132812 393.527344 278.132812 393.480469 C 278.136719 393.363281 278.132812 393.246094 278.132812 393.125 C 278.132812 393.105469 278.128906 393.085938 278.113281 393.070312 C 278.082031 393.03125 278.050781 392.996094 278.019531 392.960938 C 277.953125 392.886719 277.859375 392.886719 277.792969 392.957031 C 277.765625 392.984375 277.738281 393.011719 277.710938 393.039062 C 277.6875 393.0625 277.675781 393.09375 277.675781 393.128906 C 277.675781 393.183594 277.675781 393.242188 277.675781 393.300781 C 277.675781 393.359375 277.675781 393.417969 277.675781 393.476562 Z M 277.675781 393.476562 "/><path style=" stroke:none;fill-rule:nonzero;fill:#000000;fill-opacity:1;" d="M 277.484375 393.136719 C 277.484375 393.113281 277.480469 393.09375 277.464844 393.074219 C 277.425781 393.027344 277.390625 392.976562 277.34375 392.9375 C 277.328125 392.921875 277.3125 392.914062 277.292969 392.910156 C 277.230469 392.90625 277.171875 392.910156 277.128906 392.964844 C 277.109375 392.996094 277.082031 393.015625 277.058594 393.042969 C 277.035156 393.0625 277.023438 393.09375 277.023438 393.125 C 277.023438 393.242188 277.023438 393.363281 277.023438 393.480469 C 277.023438 393.527344 277.035156 393.535156 277.078125 393.539062 C 277.195312 393.539062 277.3125 393.539062 277.425781 393.539062 C 277.472656 393.535156 277.480469 393.527344 277.480469 393.480469 C 277.484375 393.425781 277.480469 393.367188 277.480469 393.308594 C 277.480469 393.253906 277.480469 393.195312 277.480469 393.136719 Z M 277.484375 393.136719 "/><path style=" stroke:none;fill-rule:nonzero;fill:#000000;fill-opacity:1;" d="M 269.730469 393.625 C 269.769531 393.625 269.808594 393.625 269.851562 393.625 C 269.886719 393.625 269.921875 393.625 269.957031 393.625 C 270.027344 393.625 270.03125 393.617188 270.03125 393.546875 C 270.035156 393.503906 270.03125 393.460938 270.035156 393.417969 C 270.039062 393.335938 270.03125 393.261719 269.964844 393.207031 C 269.957031 393.203125 269.957031 393.199219 269.953125 393.195312 C 269.898438 393.128906 269.820312 393.121094 269.757812 393.183594 C 269.742188 393.203125 269.722656 393.21875 269.703125 393.238281 C 269.683594 393.261719 269.671875 393.289062 269.671875 393.324219 C 269.671875 393.40625 269.671875 393.484375 269.671875 393.566406 C 269.671875 393.613281 269.683594 393.625 269.730469 393.625 Z M 269.730469 393.625 "/><path style=" stroke:none;fill-rule:nonzero;fill:#000000;fill-opacity:1;" d="M 285.644531 393.625 C 285.6875 393.625 285.734375 393.625 285.777344 393.625 C 285.820312 393.625 285.859375 393.625 285.902344 393.625 C 285.945312 393.621094 285.957031 393.613281 285.957031 393.570312 C 285.960938 393.511719 285.957031 393.453125 285.960938 393.398438 C 285.964844 393.328125 285.953125 393.261719 285.894531 393.21875 C 285.890625 393.210938 285.886719 393.203125 285.878906 393.199219 C 285.824219 393.125 285.746094 393.121094 285.683594 393.183594 C 285.664062 393.203125 285.648438 393.222656 285.628906 393.242188 C 285.609375 393.261719 285.597656 393.285156 285.597656 393.3125 C 285.597656 393.398438 285.59375 393.488281 285.597656 393.574219 C 285.597656 393.613281 285.609375 393.621094 285.644531 393.625 Z M 285.644531 393.625 "/><path style=" stroke:none;fill-rule:nonzero;fill:#000000;fill-opacity:1;" d="M 271.527344 393.625 C 271.566406 393.625 271.609375 393.625 271.652344 393.625 C 271.691406 393.625 271.730469 393.625 271.773438 393.625 C 271.824219 393.621094 271.832031 393.613281 271.832031 393.5625 C 271.832031 393.496094 271.828125 393.429688 271.832031 393.367188 C 271.84375 393.261719 271.761719 393.21875 271.710938 393.15625 C 271.703125 393.148438 271.6875 393.144531 271.675781 393.144531 C 271.628906 393.140625 271.585938 393.148438 271.550781 393.1875 C 271.535156 393.210938 271.515625 393.226562 271.496094 393.246094 C 271.476562 393.265625 271.46875 393.285156 271.46875 393.3125 C 271.46875 393.398438 271.46875 393.484375 271.46875 393.570312 C 271.472656 393.613281 271.480469 393.621094 271.523438 393.625 Z M 271.527344 393.625 "/><path style=" stroke:none;fill-rule:nonzero;fill:#000000;fill-opacity:1;" d="M 279.835938 393.1875 C 279.816406 393.210938 279.796875 393.226562 279.78125 393.246094 C 279.761719 393.261719 279.753906 393.28125 279.753906 393.304688 C 279.753906 393.394531 279.75 393.484375 279.753906 393.574219 C 279.753906 393.613281 279.765625 393.621094 279.800781 393.625 C 279.84375 393.625 279.886719 393.625 279.929688 393.625 C 279.96875 393.625 280.011719 393.625 280.054688 393.625 C 280.105469 393.625 280.113281 393.613281 280.113281 393.5625 C 280.117188 393.492188 280.113281 393.421875 280.117188 393.355469 C 280.121094 393.253906 280.039062 393.210938 279.988281 393.152344 C 279.980469 393.144531 279.96875 393.144531 279.957031 393.144531 C 279.910156 393.140625 279.867188 393.148438 279.835938 393.1875 Z M 279.835938 393.1875 "/><path style=" stroke:none;fill-rule:nonzero;fill:#000000;fill-opacity:1;" d="M 283.855469 393.625 C 283.894531 393.625 283.9375 393.625 283.980469 393.625 C 284.023438 393.625 284.066406 393.625 284.105469 393.625 C 284.148438 393.621094 284.15625 393.613281 284.160156 393.574219 C 284.160156 393.523438 284.15625 393.472656 284.160156 393.425781 C 284.171875 393.332031 284.144531 393.257812 284.078125 393.191406 C 284.019531 393.132812 283.945312 393.121094 283.886719 393.183594 C 283.863281 393.203125 283.84375 393.226562 283.824219 393.25 C 283.808594 393.269531 283.796875 393.292969 283.796875 393.320312 C 283.796875 393.402344 283.796875 393.488281 283.796875 393.570312 C 283.796875 393.613281 283.808594 393.621094 283.855469 393.625 Z M 283.855469 393.625 "/><path style=" stroke:none;fill-rule:nonzero;fill:#000000;fill-opacity:1;" d="M 282.050781 393.625 C 282.09375 393.625 282.132812 393.625 282.175781 393.625 C 282.21875 393.625 282.261719 393.625 282.304688 393.625 C 282.351562 393.621094 282.359375 393.613281 282.359375 393.566406 C 282.359375 393.484375 282.359375 393.40625 282.359375 393.324219 C 282.359375 393.300781 282.355469 393.28125 282.339844 393.261719 C 282.316406 393.238281 282.296875 393.210938 282.277344 393.1875 C 282.222656 393.128906 282.148438 393.125 282.089844 393.179688 C 282.0625 393.207031 282.039062 393.242188 282.011719 393.273438 C 282 393.285156 282 393.304688 282 393.320312 C 282 393.402344 281.996094 393.488281 282 393.574219 C 282 393.613281 282.007812 393.621094 282.050781 393.625 Z M 282.050781 393.625 "/><path style=" stroke:none;fill-rule:nonzero;fill:#000000;fill-opacity:1;" d="M 281.550781 393.441406 C 281.550781 393.484375 281.550781 393.523438 281.550781 393.566406 C 281.554688 393.613281 281.5625 393.625 281.609375 393.625 C 281.6875 393.625 281.769531 393.625 281.847656 393.625 C 281.902344 393.625 281.910156 393.613281 281.914062 393.558594 C 281.914062 393.496094 281.90625 393.433594 281.914062 393.375 C 281.925781 393.265625 281.84375 393.21875 281.789062 393.152344 C 281.785156 393.148438 281.777344 393.148438 281.769531 393.144531 C 281.71875 393.140625 281.671875 393.140625 281.636719 393.1875 C 281.621094 393.203125 281.601562 393.222656 281.585938 393.238281 C 281.558594 393.261719 281.550781 393.289062 281.550781 393.324219 C 281.550781 393.363281 281.550781 393.402344 281.550781 393.441406 Z M 281.550781 393.441406 "/><path style=" stroke:none;fill-rule:nonzero;fill:#000000;fill-opacity:1;" d="M 273.714844 393.570312 C 273.71875 393.613281 273.726562 393.621094 273.769531 393.625 C 273.8125 393.625 273.855469 393.625 273.894531 393.625 C 273.9375 393.625 273.976562 393.625 274.015625 393.625 C 274.066406 393.625 274.078125 393.613281 274.078125 393.5625 C 274.078125 393.484375 274.078125 393.40625 274.078125 393.328125 C 274.078125 393.300781 274.070312 393.277344 274.050781 393.257812 C 274.03125 393.238281 274.019531 393.214844 274 393.195312 C 273.941406 393.128906 273.863281 393.121094 273.800781 393.1875 C 273.78125 393.207031 273.761719 393.234375 273.742188 393.257812 C 273.722656 393.277344 273.714844 393.300781 273.714844 393.328125 C 273.714844 393.410156 273.714844 393.488281 273.714844 393.570312 Z M 273.714844 393.570312 "/><path style=" stroke:none;fill-rule:nonzero;fill:#000000;fill-opacity:1;" d="M 273.269531 393.441406 C 273.269531 393.484375 273.265625 393.527344 273.269531 393.570312 C 273.269531 393.613281 273.277344 393.625 273.324219 393.625 C 273.40625 393.625 273.488281 393.625 273.570312 393.625 C 273.617188 393.625 273.628906 393.609375 273.628906 393.558594 C 273.632812 393.511719 273.628906 393.460938 273.632812 393.414062 C 273.636719 393.328125 273.625 393.257812 273.554688 393.207031 C 273.546875 393.199219 273.542969 393.191406 273.535156 393.183594 C 273.5 393.136719 273.421875 393.125 273.378906 393.164062 C 273.3125 393.21875 273.246094 393.28125 273.269531 393.382812 C 273.269531 393.402344 273.269531 393.421875 273.269531 393.441406 Z M 273.269531 393.441406 "/><path style=" stroke:none;fill-rule:nonzero;fill:#000000;fill-opacity:1;" d="M 271.96875 393.625 C 272.011719 393.625 272.054688 393.625 272.09375 393.625 C 272.136719 393.625 272.179688 393.625 272.222656 393.625 C 272.269531 393.621094 272.277344 393.613281 272.277344 393.566406 C 272.28125 393.484375 272.277344 393.40625 272.277344 393.324219 C 272.277344 393.304688 272.273438 393.285156 272.261719 393.269531 C 272.238281 393.238281 272.214844 393.210938 272.191406 393.183594 C 272.152344 393.136719 272.101562 393.136719 272.054688 393.148438 C 272.011719 393.15625 271.917969 393.277344 271.917969 393.320312 C 271.914062 393.402344 271.914062 393.488281 271.917969 393.570312 C 271.917969 393.613281 271.925781 393.621094 271.96875 393.625 Z M 271.96875 393.625 "/><path style=" stroke:none;fill-rule:nonzero;fill:#000000;fill-opacity:1;" d="M 283.351562 393.5625 C 283.351562 393.613281 283.359375 393.625 283.40625 393.625 C 283.488281 393.625 283.570312 393.625 283.652344 393.625 C 283.699219 393.625 283.710938 393.613281 283.710938 393.566406 C 283.714844 393.519531 283.710938 393.476562 283.710938 393.429688 C 283.710938 393.277344 283.71875 393.292969 283.628906 393.195312 C 283.566406 393.128906 283.5 393.121094 283.433594 393.191406 C 283.414062 393.207031 283.398438 393.226562 283.382812 393.242188 C 283.359375 393.261719 283.347656 393.289062 283.351562 393.320312 C 283.351562 393.359375 283.351562 393.402344 283.351562 393.441406 C 283.351562 393.480469 283.347656 393.523438 283.351562 393.5625 Z M 283.351562 393.5625 "/><path style=" stroke:none;fill-rule:nonzero;fill:#000000;fill-opacity:1;" d="M 275.066406 393.566406 C 275.070312 393.613281 275.078125 393.621094 275.125 393.625 C 275.167969 393.625 275.207031 393.625 275.246094 393.625 C 275.289062 393.625 275.332031 393.625 275.375 393.625 C 275.414062 393.621094 275.425781 393.609375 275.429688 393.570312 C 275.429688 393.523438 275.429688 393.476562 275.429688 393.433594 C 275.429688 393.265625 275.433594 393.292969 275.34375 393.191406 C 275.285156 393.128906 275.214844 393.125 275.15625 393.183594 C 275.136719 393.203125 275.117188 393.222656 275.097656 393.242188 C 275.078125 393.265625 275.066406 393.289062 275.066406 393.316406 C 275.066406 393.398438 275.066406 393.484375 275.066406 393.566406 Z M 275.066406 393.566406 "/><path style=" stroke:none;fill-rule:nonzero;fill:#000000;fill-opacity:1;" d="M 280.25 393.625 C 280.292969 393.625 280.335938 393.625 280.382812 393.625 C 280.421875 393.625 280.464844 393.625 280.507812 393.625 C 280.550781 393.621094 280.558594 393.613281 280.5625 393.570312 C 280.5625 393.488281 280.5625 393.40625 280.5625 393.324219 C 280.5625 393.300781 280.554688 393.28125 280.542969 393.265625 C 280.519531 393.242188 280.5 393.214844 280.480469 393.191406 C 280.445312 393.144531 280.402344 393.136719 280.351562 393.148438 C 280.300781 393.15625 280.203125 393.265625 280.199219 393.316406 C 280.199219 393.402344 280.199219 393.488281 280.199219 393.574219 C 280.199219 393.613281 280.210938 393.621094 280.25 393.625 Z M 280.25 393.625 "/><path style=" stroke:none;fill-rule:nonzero;fill:#000000;fill-opacity:1;" d="M 270.171875 393.625 C 270.214844 393.625 270.257812 393.625 270.300781 393.625 C 270.339844 393.625 270.378906 393.625 270.421875 393.625 C 270.46875 393.621094 270.480469 393.613281 270.480469 393.566406 C 270.480469 393.488281 270.480469 393.40625 270.480469 393.328125 C 270.480469 393.308594 270.476562 393.285156 270.464844 393.269531 C 270.441406 393.242188 270.417969 393.214844 270.394531 393.183594 C 270.367188 393.148438 270.328125 393.140625 270.285156 393.144531 C 270.226562 393.148438 270.121094 393.261719 270.117188 393.324219 C 270.117188 393.40625 270.117188 393.488281 270.117188 393.570312 C 270.121094 393.613281 270.128906 393.621094 270.171875 393.625 Z M 270.171875 393.625 "/><path style=" stroke:none;fill-rule:nonzero;fill:#000000;fill-opacity:1;" d="M 274.222656 393.625 C 274.261719 393.625 274.300781 393.625 274.339844 393.625 C 274.382812 393.625 274.421875 393.625 274.460938 393.625 C 274.515625 393.625 274.523438 393.617188 274.523438 393.558594 C 274.527344 393.496094 274.519531 393.429688 274.527344 393.367188 C 274.53125 393.308594 274.507812 393.261719 274.46875 393.21875 C 274.453125 393.203125 274.441406 393.183594 274.421875 393.171875 C 274.390625 393.140625 274.328125 393.132812 274.292969 393.15625 C 274.25 393.191406 274.210938 393.234375 274.175781 393.277344 C 274.164062 393.289062 274.164062 393.304688 274.164062 393.316406 C 274.164062 393.402344 274.160156 393.484375 274.164062 393.570312 C 274.164062 393.613281 274.175781 393.621094 274.222656 393.625 Z M 274.222656 393.625 "/><path style=" stroke:none;fill-rule:nonzero;fill:#000000;fill-opacity:1;" d="M 280.703125 393.625 C 280.746094 393.625 280.785156 393.625 280.824219 393.625 C 280.867188 393.625 280.910156 393.625 280.953125 393.625 C 281 393.621094 281.007812 393.613281 281.007812 393.566406 C 281.007812 393.484375 281.007812 393.40625 281.007812 393.324219 C 281.007812 393.304688 281.003906 393.285156 280.992188 393.269531 C 280.964844 393.230469 280.9375 393.195312 280.902344 393.167969 C 280.867188 393.132812 280.800781 393.132812 280.761719 393.167969 C 280.730469 393.195312 280.699219 393.230469 280.667969 393.261719 C 280.65625 393.277344 280.648438 393.296875 280.648438 393.316406 C 280.644531 393.402344 280.644531 393.484375 280.648438 393.570312 C 280.648438 393.613281 280.660156 393.621094 280.703125 393.625 Z M 280.703125 393.625 "/><path style=" stroke:none;fill-rule:nonzero;fill:#000000;fill-opacity:1;" d="M 282.503906 393.625 C 282.542969 393.625 282.582031 393.625 282.621094 393.625 C 282.664062 393.625 282.707031 393.625 282.75 393.625 C 282.796875 393.621094 282.804688 393.613281 282.808594 393.566406 C 282.808594 393.484375 282.808594 393.40625 282.808594 393.324219 C 282.808594 393.304688 282.800781 393.285156 282.789062 393.269531 C 282.765625 393.230469 282.734375 393.195312 282.703125 393.167969 C 282.667969 393.136719 282.601562 393.132812 282.566406 393.160156 C 282.53125 393.195312 282.496094 393.234375 282.460938 393.269531 C 282.449219 393.28125 282.445312 393.300781 282.445312 393.316406 C 282.445312 393.402344 282.445312 393.484375 282.445312 393.570312 C 282.445312 393.613281 282.460938 393.621094 282.503906 393.625 Z M 282.503906 393.625 "/><path style=" stroke:none;fill-rule:nonzero;fill:#000000;fill-opacity:1;" d="M 284.300781 393.625 C 284.34375 393.625 284.382812 393.625 284.425781 393.625 C 284.464844 393.625 284.507812 393.625 284.546875 393.625 C 284.59375 393.621094 284.605469 393.613281 284.605469 393.566406 C 284.605469 393.484375 284.605469 393.40625 284.605469 393.324219 C 284.605469 393.304688 284.601562 393.285156 284.589844 393.269531 C 284.566406 393.242188 284.542969 393.210938 284.515625 393.183594 C 284.492188 393.148438 284.457031 393.140625 284.421875 393.144531 C 284.363281 393.148438 284.246094 393.257812 284.246094 393.316406 C 284.242188 393.402344 284.242188 393.484375 284.246094 393.566406 C 284.246094 393.609375 284.257812 393.621094 284.300781 393.625 Z M 284.300781 393.625 "/><path style=" stroke:none;fill-rule:nonzero;fill:#000000;fill-opacity:1;" d="M 285.148438 393.4375 C 285.148438 393.484375 285.148438 393.53125 285.148438 393.574219 C 285.152344 393.613281 285.160156 393.625 285.195312 393.625 C 285.28125 393.625 285.367188 393.625 285.449219 393.625 C 285.488281 393.625 285.5 393.613281 285.5 393.570312 C 285.5 393.519531 285.496094 393.46875 285.5 393.417969 C 285.511719 393.320312 285.488281 393.242188 285.410156 393.179688 C 285.367188 393.140625 285.296875 393.128906 285.253906 393.167969 C 285.1875 393.226562 285.128906 393.289062 285.148438 393.390625 C 285.152344 393.40625 285.148438 393.421875 285.148438 393.441406 Z M 285.148438 393.4375 "/><path style=" stroke:none;fill-rule:nonzero;fill:#000000;fill-opacity:1;" d="M 269.222656 393.441406 C 269.222656 393.484375 269.222656 393.527344 269.222656 393.570312 C 269.226562 393.613281 269.234375 393.625 269.277344 393.625 C 269.359375 393.625 269.4375 393.625 269.519531 393.625 C 269.566406 393.625 269.574219 393.613281 269.574219 393.5625 C 269.578125 393.515625 269.570312 393.464844 269.578125 393.417969 C 269.585938 393.320312 269.5625 393.242188 269.488281 393.179688 C 269.445312 393.140625 269.375 393.128906 269.332031 393.164062 C 269.265625 393.21875 269.203125 393.28125 269.222656 393.382812 C 269.226562 393.402344 269.222656 393.421875 269.222656 393.441406 Z M 269.222656 393.441406 "/><path style=" stroke:none;fill-rule:nonzero;fill:#000000;fill-opacity:1;" d="M 281.15625 393.625 C 281.238281 393.625 281.320312 393.625 281.402344 393.625 C 281.445312 393.625 281.453125 393.613281 281.457031 393.566406 C 281.457031 393.527344 281.457031 393.484375 281.457031 393.445312 C 281.457031 393.402344 281.457031 393.359375 281.457031 393.316406 C 281.457031 393.289062 281.449219 393.265625 281.429688 393.25 C 281.40625 393.222656 281.378906 393.195312 281.355469 393.171875 C 281.316406 393.132812 281.25 393.132812 281.210938 393.167969 C 281.179688 393.191406 281.152344 393.222656 281.125 393.253906 C 281.109375 393.269531 281.105469 393.289062 281.105469 393.308594 C 281.105469 393.398438 281.101562 393.484375 281.105469 393.574219 C 281.105469 393.613281 281.113281 393.625 281.15625 393.625 Z M 281.15625 393.625 "/><path style=" stroke:none;fill-rule:nonzero;fill:#000000;fill-opacity:1;" d="M 271.023438 393.5625 C 271.023438 393.613281 271.03125 393.625 271.082031 393.625 C 271.160156 393.625 271.238281 393.625 271.316406 393.625 C 271.363281 393.625 271.371094 393.613281 271.375 393.566406 C 271.375 393.484375 271.375 393.398438 271.375 393.316406 C 271.375 393.285156 271.363281 393.261719 271.34375 393.242188 C 271.320312 393.21875 271.300781 393.195312 271.277344 393.171875 C 271.234375 393.132812 271.167969 393.132812 271.125 393.171875 C 271.023438 393.257812 271.023438 393.261719 271.023438 393.394531 L 271.023438 393.4375 C 271.023438 393.480469 271.023438 393.519531 271.023438 393.5625 Z M 271.023438 393.5625 "/><path style=" stroke:none;fill-rule:nonzero;fill:#000000;fill-opacity:1;" d="M 284.703125 393.441406 C 284.703125 393.480469 284.699219 393.519531 284.703125 393.558594 C 284.703125 393.617188 284.710938 393.625 284.765625 393.625 C 284.839844 393.625 284.917969 393.625 284.992188 393.625 C 285.042969 393.625 285.050781 393.613281 285.054688 393.5625 C 285.054688 393.507812 285.054688 393.453125 285.054688 393.398438 C 285.050781 393.253906 285.070312 393.289062 284.960938 393.179688 C 284.910156 393.128906 284.84375 393.128906 284.792969 393.179688 C 284.773438 393.199219 284.753906 393.222656 284.734375 393.242188 C 284.710938 393.261719 284.699219 393.289062 284.703125 393.320312 C 284.703125 393.359375 284.703125 393.402344 284.703125 393.441406 Z M 284.703125 393.441406 "/><path style=" stroke:none;fill-rule:nonzero;fill:#000000;fill-opacity:1;" d="M 272.871094 393.625 C 272.953125 393.625 273.039062 393.625 273.121094 393.625 C 273.164062 393.625 273.171875 393.613281 273.171875 393.570312 C 273.175781 393.527344 273.171875 393.484375 273.171875 393.441406 C 273.171875 393.402344 273.171875 393.359375 273.171875 393.320312 C 273.175781 393.289062 273.164062 393.265625 273.140625 393.242188 C 273.117188 393.21875 273.09375 393.191406 273.070312 393.167969 C 273.035156 393.136719 272.96875 393.132812 272.9375 393.160156 C 272.902344 393.191406 272.871094 393.226562 272.839844 393.257812 C 272.828125 393.269531 272.824219 393.289062 272.820312 393.304688 C 272.820312 393.394531 272.820312 393.484375 272.824219 393.574219 C 272.824219 393.613281 272.832031 393.621094 272.871094 393.625 Z M 272.871094 393.625 "/><path style=" stroke:none;fill-rule:nonzero;fill:#000000;fill-opacity:1;" d="M 274.671875 393.625 C 274.753906 393.625 274.835938 393.625 274.917969 393.625 C 274.960938 393.625 274.96875 393.613281 274.972656 393.566406 C 274.972656 393.527344 274.972656 393.484375 274.972656 393.445312 C 274.972656 393.402344 274.972656 393.359375 274.972656 393.316406 C 274.972656 393.289062 274.964844 393.265625 274.945312 393.25 C 274.921875 393.222656 274.898438 393.195312 274.871094 393.171875 C 274.832031 393.132812 274.765625 393.132812 274.726562 393.167969 C 274.695312 393.191406 274.667969 393.222656 274.640625 393.253906 C 274.625 393.269531 274.621094 393.289062 274.621094 393.308594 C 274.621094 393.398438 274.621094 393.484375 274.621094 393.574219 C 274.621094 393.613281 274.632812 393.625 274.671875 393.625 Z M 274.671875 393.625 "/><path style=" stroke:none;fill-rule:nonzero;fill:#000000;fill-opacity:1;" d="M 282.957031 393.625 C 282.996094 393.625 283.035156 393.625 283.074219 393.625 C 283.117188 393.625 283.15625 393.625 283.195312 393.625 C 283.246094 393.621094 283.253906 393.613281 283.253906 393.566406 C 283.253906 393.488281 283.253906 393.40625 283.253906 393.328125 C 283.253906 393.292969 283.242188 393.261719 283.21875 393.238281 C 283.199219 393.21875 283.179688 393.195312 283.15625 393.171875 C 283.113281 393.132812 283.046875 393.132812 283.003906 393.171875 C 282.976562 393.195312 282.953125 393.222656 282.925781 393.25 C 282.910156 393.265625 282.902344 393.285156 282.902344 393.308594 C 282.902344 393.398438 282.902344 393.484375 282.902344 393.574219 C 282.90625 393.613281 282.914062 393.621094 282.957031 393.625 Z M 282.957031 393.625 "/><path style=" stroke:none;fill-rule:nonzero;fill:#000000;fill-opacity:1;" d="M 270.574219 393.441406 C 270.574219 393.480469 270.574219 393.523438 270.574219 393.5625 C 270.578125 393.613281 270.585938 393.625 270.636719 393.625 C 270.710938 393.625 270.789062 393.625 270.867188 393.625 C 270.917969 393.625 270.925781 393.617188 270.925781 393.558594 C 270.929688 393.484375 270.925781 393.414062 270.929688 393.34375 C 270.929688 393.300781 270.914062 393.265625 270.886719 393.234375 C 270.867188 393.214844 270.847656 393.191406 270.824219 393.171875 C 270.785156 393.132812 270.71875 393.132812 270.679688 393.167969 C 270.613281 393.226562 270.554688 393.289062 270.574219 393.390625 C 270.578125 393.40625 270.574219 393.421875 270.574219 393.441406 Z M 270.574219 393.441406 "/><path style=" stroke:none;fill-rule:nonzero;fill:#000000;fill-opacity:1;" d="M 272.425781 393.625 C 272.464844 393.625 272.507812 393.625 272.546875 393.625 C 272.582031 393.625 272.621094 393.625 272.65625 393.625 C 272.65625 393.625 272.660156 393.625 272.660156 393.625 C 272.71875 393.621094 272.726562 393.617188 272.726562 393.5625 C 272.726562 393.492188 272.722656 393.421875 272.726562 393.351562 C 272.730469 393.300781 272.710938 393.257812 272.675781 393.222656 C 272.660156 393.207031 272.644531 393.1875 272.625 393.171875 C 272.585938 393.132812 272.519531 393.132812 272.476562 393.167969 C 272.449219 393.195312 272.421875 393.222656 272.398438 393.25 C 272.382812 393.265625 272.375 393.285156 272.375 393.308594 C 272.375 393.394531 272.375 393.484375 272.375 393.574219 C 272.375 393.613281 272.386719 393.621094 272.425781 393.625 Z M 272.425781 393.625 "/><path style=" stroke:none;fill-rule:nonzero;fill:#bac7e5;fill-opacity:1;" d="M 351.742188 531.777344 C 362.386719 407.070312 368.453125 289.640625 351.742188 208.5 C 351.742188 208.5 220.617188 142.585938 85.59375 203.777344 C 84.855469 204.117188 84.144531 204.507812 83.460938 204.945312 C 82.777344 205.386719 82.132812 205.875 81.519531 206.40625 C 80.90625 206.941406 80.332031 207.515625 79.804688 208.128906 C 79.273438 208.746094 78.789062 209.394531 78.351562 210.078125 C 77.914062 210.765625 77.527344 211.476562 77.191406 212.214844 C 76.855469 212.957031 76.574219 213.714844 76.347656 214.496094 C 76.121094 215.273438 75.953125 216.066406 75.839844 216.871094 C 75.726562 217.675781 75.671875 218.484375 75.675781 219.292969 L 75.675781 531.777344 Z M 351.742188 531.777344 "/><path style=" stroke:none;fill-rule:nonzero;fill:#ffffff;fill-opacity:1;" d="M 351.742188 531.777344 C 360.085938 396.257812 368.074219 254.398438 380.730469 197.019531 C 427.125 181.355469 522.71875 159.921875 619.546875 203.78125 C 620.285156 204.121094 620.996094 204.511719 621.679688 204.949219 C 622.363281 205.390625 623.011719 205.878906 623.625 206.410156 C 624.234375 206.945312 624.808594 207.519531 625.339844 208.132812 C 625.871094 208.75 626.351562 209.398438 626.789062 210.082031 C 627.226562 210.769531 627.613281 211.480469 627.949219 212.21875 C 628.285156 212.960938 628.566406 213.71875 628.792969 214.5 C 629.019531 215.28125 629.1875 216.070312 629.300781 216.875 C 629.414062 217.679688 629.46875 218.488281 629.46875 219.300781 L 629.46875 531.777344 Z M 351.742188 531.777344 "/><path style=" stroke:none;fill-rule:nonzero;fill:#bac7e5;fill-opacity:1;" d="M 380.730469 197.019531 C 370.835938 200.257812 361.171875 204.082031 351.742188 208.5 L 351.742188 531.777344 L 380.730469 531.777344 Z M 380.730469 197.019531 "/><path style=" stroke:none;fill-rule:nonzero;fill:#7988b7;fill-opacity:1;" d="M 336.414062 525.171875 C 296.835938 509.691406 186.515625 476.390625 75.675781 531.777344 L 75.675781 582.988281 C 202.164062 547.121094 301.191406 567.957031 337.125 578.265625 C 341.902344 579.636719 346.777344 580.324219 351.75 580.332031 C 356.722656 580.339844 361.601562 579.667969 366.386719 578.308594 C 402.625 568.019531 502.792969 547.0625 629.464844 582.992188 L 629.464844 531.777344 C 518.488281 476.324219 406.976562 509.773438 367.09375 525.230469 C 364.648438 526.175781 362.132812 526.890625 359.554688 527.371094 C 356.972656 527.851562 354.371094 528.089844 351.75 528.082031 C 349.125 528.078125 346.523438 527.832031 343.945312 527.34375 C 341.367188 526.851562 338.855469 526.128906 336.414062 525.171875 Z M 336.414062 525.171875 "/><path style=" stroke:none;fill-rule:nonzero;fill:#ffffff;fill-opacity:1;" d="M 332.4375 505.242188 C 305.398438 473.566406 248.398438 423.140625 151.851562 409.476562 C 150.707031 409.320312 149.585938 409.0625 148.488281 408.707031 C 147.390625 408.347656 146.332031 407.894531 145.316406 407.347656 C 144.300781 406.800781 143.339844 406.167969 142.4375 405.449219 C 141.535156 404.730469 140.707031 403.9375 139.945312 403.070312 C 139.183594 402.199219 138.507812 401.273438 137.914062 400.28125 C 137.320312 399.292969 136.820312 398.257812 136.414062 397.179688 C 136.007812 396.101562 135.699219 394.996094 135.492188 393.859375 C 135.28125 392.726562 135.175781 391.582031 135.171875 390.429688 L 135.171875 100.550781 C 135.171875 100.046875 135.199219 99.542969 135.25 99.042969 C 135.304688 98.542969 135.382812 98.042969 135.488281 97.550781 C 135.59375 97.058594 135.722656 96.574219 135.878906 96.09375 C 136.035156 95.617188 136.21875 95.148438 136.421875 94.6875 C 136.628906 94.226562 136.859375 93.78125 137.113281 93.34375 C 137.367188 92.910156 137.640625 92.488281 137.9375 92.082031 C 138.238281 91.675781 138.554688 91.285156 138.894531 90.910156 C 139.230469 90.539062 139.589844 90.183594 139.964844 89.847656 C 140.34375 89.511719 140.734375 89.199219 141.144531 88.90625 C 141.554688 88.609375 141.976562 88.339844 142.414062 88.089844 C 142.855469 87.839844 143.304688 87.617188 143.765625 87.414062 C 144.226562 87.210938 144.699219 87.035156 145.179688 86.882812 C 145.660156 86.730469 146.148438 86.605469 146.640625 86.503906 C 147.136719 86.402344 147.632812 86.328125 148.136719 86.277344 C 148.636719 86.230469 149.140625 86.207031 149.644531 86.214844 C 150.148438 86.21875 150.652344 86.25 151.152344 86.304688 C 300.429688 103.847656 351.742188 208.5 351.742188 208.5 L 351.742188 498.097656 C 351.746094 499.214844 351.578125 500.3125 351.242188 501.382812 C 350.910156 502.453125 350.421875 503.445312 349.78125 504.367188 C 349.140625 505.289062 348.378906 506.089844 347.492188 506.777344 C 346.605469 507.464844 345.636719 508 344.582031 508.390625 C 343.53125 508.78125 342.445312 509.003906 341.324219 509.058594 C 340.203125 509.117188 339.101562 509.003906 338.015625 508.722656 C 336.929688 508.441406 335.910156 508.003906 334.957031 507.410156 C 334.007812 506.816406 333.167969 506.09375 332.4375 505.242188 Z M 332.4375 505.242188 "/><path style=" stroke:none;fill-rule:nonzero;fill:#bac7e5;fill-opacity:1;" d="M 198.074219 327.71875 C 212.25 332.070312 225.445312 338.449219 237.664062 346.847656 L 237.664062 299.769531 C 225.492188 291.234375 212.300781 284.78125 198.085938 280.417969 Z M 198.074219 327.71875 "/><path style=" stroke:none;fill-rule:nonzero;fill:#e28683;fill-opacity:1;" d="M 433.632812 269.925781 C 418.183594 296.007812 401.269531 341.949219 407.777344 412.863281 L 580.042969 303.152344 C 581.371094 302.304688 582.625 301.359375 583.800781 300.3125 C 584.976562 299.265625 586.058594 298.132812 587.054688 296.914062 C 588.046875 295.691406 588.9375 294.398438 589.722656 293.039062 C 590.507812 291.675781 591.179688 290.257812 591.738281 288.785156 C 592.296875 287.316406 592.734375 285.808594 593.050781 284.269531 C 593.363281 282.726562 593.554688 281.171875 593.621094 279.597656 C 593.6875 278.027344 593.628906 276.460938 593.441406 274.898438 C 593.253906 273.335938 592.945312 271.800781 592.511719 270.289062 C 588 253.933594 581.109375 238.644531 571.84375 224.429688 C 565.976562 215.730469 445.21875 250.363281 433.632812 269.925781 Z M 433.632812 269.925781 "/><path style=" stroke:none;fill-rule:nonzero;fill:#a05858;fill-opacity:1;" d="M 550.140625 200.742188 L 455.421875 242.589844 C 455.984375 241.972656 445.222656 250.371094 433.636719 269.925781 C 459.675781 277.554688 484.191406 256.9375 484.191406 256.9375 C 533.898438 271.6875 546.855469 231.699219 546.855469 231.699219 C 563.441406 234.730469 569.574219 228.75 571.824219 224.441406 C 565.855469 215.394531 558.625 207.496094 550.140625 200.742188 Z M 550.140625 200.742188 "/><path style=" stroke:none;fill-rule:nonzero;fill:#fccabe;fill-opacity:1;" d="M 427.195312 115.402344 L 424.75 130.632812 C 424.398438 132.804688 423.683594 134.847656 422.601562 136.765625 C 421.519531 138.679688 420.140625 140.347656 418.460938 141.769531 L 410.976562 148.105469 C 410.46875 148.539062 410.011719 149.019531 409.609375 149.554688 C 409.207031 150.085938 408.867188 150.65625 408.589844 151.265625 C 408.3125 151.871094 408.105469 152.503906 407.96875 153.15625 C 407.832031 153.808594 407.769531 154.46875 407.777344 155.136719 C 407.789062 155.804688 407.871094 156.464844 408.027344 157.113281 C 408.183594 157.761719 408.410156 158.386719 408.703125 158.988281 C 408.996094 159.585938 409.355469 160.144531 409.773438 160.667969 C 410.191406 161.1875 410.664062 161.65625 411.183594 162.070312 L 429.019531 176.28125 L 429.019531 209.125 L 501.574219 209.125 L 532.667969 123.542969 Z M 427.195312 115.402344 "/><path style=" stroke:none;fill-rule:nonzero;fill:#ffffff;fill-opacity:1;" d="M 429.019531 176.28125 C 428.007812 177.234375 427.058594 178.246094 426.171875 179.316406 C 425.285156 180.382812 424.46875 181.503906 423.71875 182.671875 C 422.96875 183.84375 422.292969 185.054688 421.691406 186.304688 C 421.089844 187.558594 420.566406 188.839844 420.125 190.15625 C 419.679688 191.472656 419.316406 192.8125 419.035156 194.171875 C 418.757812 195.53125 418.558594 196.902344 418.445312 198.289062 C 418.335938 199.671875 418.308594 201.058594 418.363281 202.445312 C 418.421875 203.832031 418.5625 205.210938 418.789062 206.582031 C 418.789062 206.582031 407.496094 210.714844 405.988281 229.144531 C 404.480469 247.574219 395.445312 254.34375 395.445312 254.34375 C 395.445312 254.34375 418.414062 262.992188 433.46875 248.699219 C 433.46875 248.699219 460.578125 262.992188 477.144531 240.050781 C 477.144531 240.050781 516.5625 257.578125 534.066406 224.097656 C 539.0625 214.546875 507.683594 184.875 495.324219 194.601562 C 494.976562 194.875 494.632812 195.140625 494.265625 195.394531 C 493.570312 195.882812 492.855469 196.335938 492.117188 196.75 C 491.378906 197.167969 490.621094 197.542969 489.84375 197.882812 C 489.066406 198.222656 488.277344 198.523438 487.46875 198.78125 C 486.664062 199.042969 485.84375 199.261719 485.015625 199.4375 C 484.1875 199.617188 483.351562 199.75 482.507812 199.84375 C 481.664062 199.9375 480.820312 199.988281 479.972656 200 C 479.125 200.007812 478.277344 199.972656 477.433594 199.894531 C 476.589844 199.820312 475.753906 199.703125 474.917969 199.539062 C 474.085938 199.378906 473.265625 199.175781 472.453125 198.933594 C 471.640625 198.691406 470.84375 198.40625 470.058594 198.082031 C 469.277344 197.757812 468.511719 197.398438 467.765625 196.996094 C 467.019531 196.59375 466.292969 196.160156 465.589844 195.683594 C 464.886719 195.210938 464.210938 194.703125 463.558594 194.160156 C 462.90625 193.621094 462.285156 193.046875 461.691406 192.441406 C 461.097656 191.839844 460.535156 191.207031 460.003906 190.542969 C 459.472656 189.882812 458.980469 189.199219 458.519531 188.488281 C 458.0625 187.792969 457.621094 187.054688 457.1875 186.273438 C 450.304688 173.828125 429.019531 176.28125 429.019531 176.28125 Z M 429.019531 176.28125 "/><path style=" stroke:none;fill-rule:nonzero;fill:#e8908e;fill-opacity:1;" d="M 532.675781 123.542969 C 532.675781 123.542969 484.765625 89.648438 429.019531 104.042969 L 426.34375 120.71875 C 434.238281 121.328125 456.199219 122.523438 477.148438 128.921875 C 483.945312 131.003906 485 137.113281 484.261719 144.179688 C 482.992188 156.214844 481.378906 176.285156 495.335938 194.605469 C 495.335938 194.605469 499.921875 194.230469 507.191406 193.71875 Z M 532.675781 123.542969 "/><path style=" stroke:none;fill-rule:nonzero;fill:#ffffff;fill-opacity:1;" d="M 506.882812 115.1875 C 506.882812 115.1875 485.753906 179.613281 513.839844 195.273438 C 513.839844 195.273438 526.96875 200.167969 534.597656 189.402344 C 534.597656 189.402344 526.976562 216.355469 551.695312 218.113281 C 574.640625 219.742188 569.625 192.335938 569.625 192.335938 C 569.625 192.335938 566.960938 167.867188 568.179688 150.574219 C 568.179688 150.574219 536.804688 123.671875 506.882812 115.1875 Z M 506.882812 115.1875 "/><path style=" stroke:none;fill-rule:nonzero;fill:#e28683;fill-opacity:1;" d="M 415.753906 28.117188 L 415.753906 89.507812 C 415.753906 90.863281 415.941406 92.195312 416.3125 93.5 C 416.683594 94.800781 417.222656 96.03125 417.9375 97.183594 C 418.652344 98.335938 419.507812 99.371094 420.511719 100.285156 C 421.511719 101.199219 422.621094 101.960938 423.832031 102.566406 C 425.472656 103.382812 427.203125 103.875 429.023438 104.042969 C 444.191406 105.460938 520.058594 114.589844 559.339844 158.21875 C 559.652344 158.566406 559.980469 158.898438 560.328125 159.214844 C 560.675781 159.527344 561.042969 159.820312 561.421875 160.09375 C 561.800781 160.371094 562.195312 160.621094 562.605469 160.851562 C 563.011719 161.082031 563.433594 161.292969 563.863281 161.476562 C 564.292969 161.660156 564.734375 161.820312 565.183594 161.957031 C 565.628906 162.09375 566.085938 162.207031 566.546875 162.292969 C 567.007812 162.382812 567.46875 162.441406 567.9375 162.480469 C 568.40625 162.515625 568.875 162.527344 569.34375 162.511719 C 569.8125 162.496094 570.277344 162.453125 570.742188 162.386719 C 571.207031 162.320312 571.664062 162.230469 572.121094 162.113281 C 572.574219 161.996094 573.019531 161.855469 573.457031 161.691406 C 573.898438 161.527344 574.324219 161.335938 574.742188 161.125 C 575.160156 160.910156 575.566406 160.675781 575.960938 160.421875 C 576.351562 160.164062 576.726562 159.886719 577.089844 159.589844 C 577.453125 159.289062 577.796875 158.972656 578.125 158.636719 C 578.449219 158.300781 578.757812 157.949219 579.046875 157.578125 L 605.46875 123.542969 C 605.46875 123.542969 586.753906 78.667969 554.730469 49.9375 C 552.449219 47.894531 549.9375 46.179688 547.207031 44.792969 C 544.472656 43.410156 541.605469 42.398438 538.605469 41.765625 C 519.019531 37.59375 468.695312 28.117188 415.753906 28.117188 Z M 415.753906 28.117188 "/><path style=" stroke:none;fill-rule:nonzero;fill:#3c3c4f;fill-opacity:1;" d="M 241.257812 294.882812 C 222.613281 281.183594 200.648438 274.875 199.734375 274.578125 C 199.511719 274.5 199.28125 274.433594 199.046875 274.382812 C 198.8125 274.332031 198.578125 274.296875 198.339844 274.273438 C 198.101562 274.253906 197.863281 274.246094 197.625 274.253906 C 197.382812 274.261719 197.148438 274.28125 196.910156 274.320312 C 196.675781 274.355469 196.441406 274.40625 196.210938 274.472656 C 195.980469 274.539062 195.757812 274.617188 195.535156 274.710938 C 195.316406 274.804688 195.101562 274.910156 194.894531 275.03125 C 194.6875 275.148438 194.488281 275.28125 194.300781 275.425781 C 194.109375 275.570312 193.925781 275.722656 193.753906 275.890625 C 193.582031 276.054688 193.421875 276.234375 193.273438 276.417969 C 193.125 276.605469 192.984375 276.800781 192.859375 277.003906 C 192.734375 277.207031 192.621094 277.414062 192.519531 277.632812 C 192.421875 277.847656 192.335938 278.070312 192.261719 278.296875 C 192.1875 278.527344 192.128906 278.757812 192.085938 278.992188 C 192.042969 279.226562 192.011719 279.464844 191.996094 279.703125 C 191.984375 279.941406 191.984375 280.179688 191.996094 280.417969 L 191.996094 327.714844 C 191.996094 328.371094 192.101562 329.007812 192.304688 329.628906 C 192.511719 330.25 192.808594 330.820312 193.199219 331.34375 C 193.589844 331.871094 194.054688 332.320312 194.589844 332.691406 C 195.128906 333.066406 195.710938 333.347656 196.335938 333.535156 C 209.824219 337.71875 222.402344 343.789062 234.070312 351.742188 C 239.289062 354.445312 243.722656 350.851562 243.722656 346.835938 L 243.722656 299.769531 C 243.722656 298.804688 243.507812 297.894531 243.074219 297.03125 C 242.636719 296.171875 242.035156 295.453125 241.257812 294.882812 Z M 231.582031 335.804688 C 222.855469 330.722656 213.710938 326.550781 204.15625 323.28125 L 204.15625 288.898438 C 213.839844 292.5 222.984375 297.167969 231.582031 302.902344 Z M 231.582031 335.804688 "/><path style=" stroke:none;fill-rule:nonzero;fill:#3c3c4f;fill-opacity:1;" d="M 196.730469 156.167969 C 198.621094 156.59375 203.394531 157.746094 203.90625 157.746094 C 210.835938 157.832031 212.261719 147.535156 205.449219 145.808594 C 200.707031 144.390625 193.785156 142.3125 192.148438 148.90625 C 192.058594 149.296875 192.011719 149.691406 192 150.089844 C 191.988281 150.484375 192.019531 150.882812 192.085938 151.273438 C 192.152344 151.667969 192.257812 152.050781 192.402344 152.421875 C 192.542969 152.792969 192.722656 153.148438 192.933594 153.484375 C 193.148438 153.820312 193.390625 154.136719 193.664062 154.425781 C 193.941406 154.714844 194.242188 154.972656 194.566406 155.203125 C 194.890625 155.433594 195.238281 155.628906 195.601562 155.789062 C 195.964844 155.953125 196.34375 156.078125 196.730469 156.167969 Z M 196.730469 156.167969 "/><path style=" stroke:none;fill-rule:nonzero;fill:#3c3c4f;fill-opacity:1;" d="M 238.417969 171.179688 C 277.523438 188.507812 305.414062 218.609375 305.6875 218.910156 C 310.636719 223.492188 320.308594 217.933594 314.652344 210.714844 C 313.457031 209.410156 284.851562 178.476562 243.347656 160.085938 C 236.101562 156.910156 231.152344 167.917969 238.417969 171.179688 Z M 238.417969 171.179688 "/><path style=" stroke:none;fill-rule:nonzero;fill:#3c3c4f;fill-opacity:1;" d="M 196.730469 200.996094 C 257.882812 214.835938 305.292969 263.398438 305.796875 263.855469 C 312.964844 269.8125 319.222656 260.488281 314.542969 255.433594 C 312.519531 253.332031 264.191406 203.820312 199.417969 189.160156 C 191.632812 187.535156 188.941406 199.085938 196.730469 200.996094 Z M 196.730469 200.996094 "/><path style=" stroke:none;fill-rule:nonzero;fill:#3c3c4f;fill-opacity:1;" d="M 196.730469 245.828125 C 257.882812 259.667969 305.324219 308.199219 305.796875 308.6875 C 306.398438 309.179688 307.066406 309.5625 307.796875 309.832031 C 308.527344 310.101562 309.285156 310.242188 310.0625 310.257812 C 310.84375 310.269531 311.601562 310.15625 312.34375 309.914062 C 313.085938 309.671875 313.765625 309.316406 314.382812 308.84375 C 314.679688 308.574219 314.945312 308.273438 315.179688 307.949219 C 315.414062 307.625 315.617188 307.277344 315.78125 306.914062 C 315.945312 306.546875 316.070312 306.167969 316.160156 305.777344 C 316.246094 305.386719 316.296875 304.988281 316.300781 304.589844 C 316.308594 304.1875 316.277344 303.789062 316.203125 303.394531 C 316.128906 303 316.019531 302.617188 315.867188 302.246094 C 315.714844 301.875 315.527344 301.523438 315.304688 301.1875 C 315.082031 300.855469 314.828125 300.546875 314.542969 300.265625 C 312.519531 298.164062 264.191406 248.652344 199.417969 233.992188 C 199.027344 233.902344 198.632812 233.855469 198.234375 233.84375 C 197.835938 233.832031 197.441406 233.863281 197.046875 233.929688 C 196.652344 233.996094 196.269531 234.101562 195.898438 234.242188 C 195.527344 234.386719 195.171875 234.566406 194.832031 234.777344 C 194.496094 234.988281 194.183594 235.234375 193.894531 235.507812 C 193.601562 235.78125 193.34375 236.082031 193.113281 236.40625 C 192.882812 236.730469 192.6875 237.078125 192.523438 237.441406 C 192.363281 237.804688 192.238281 238.179688 192.148438 238.570312 C 192.058594 238.957031 192.011719 239.351562 192 239.75 C 191.988281 240.148438 192.019531 240.542969 192.085938 240.9375 C 192.152344 241.328125 192.257812 241.710938 192.402344 242.082031 C 192.542969 242.457031 192.722656 242.808594 192.933594 243.148438 C 193.148438 243.484375 193.390625 243.796875 193.664062 244.085938 C 193.941406 244.375 194.238281 244.636719 194.566406 244.867188 C 194.890625 245.097656 195.234375 245.292969 195.601562 245.453125 C 195.964844 245.617188 196.339844 245.742188 196.730469 245.828125 Z M 196.730469 245.828125 "/><path style=" stroke:none;fill-rule:nonzero;fill:#3c3c4f;fill-opacity:1;" d="M 270.519531 310 C 263.578125 306.183594 257.675781 316.707031 264.621094 320.605469 C 286.246094 332.621094 305.527344 353.226562 305.71875 353.433594 C 306.917969 354.722656 311.378906 356.339844 314.304688 353.753906 C 314.601562 353.484375 314.867188 353.1875 315.101562 352.867188 C 315.339844 352.546875 315.542969 352.203125 315.710938 351.839844 C 315.878906 351.480469 316.007812 351.105469 316.101562 350.714844 C 316.195312 350.328125 316.25 349.933594 316.265625 349.535156 C 316.28125 349.136719 316.253906 348.738281 316.191406 348.34375 C 316.128906 347.949219 316.023438 347.566406 315.882812 347.191406 C 315.742188 346.820312 315.566406 346.464844 315.355469 346.125 C 315.144531 345.785156 314.902344 345.472656 314.628906 345.179688 C 313.789062 344.277344 293.875 322.96875 270.519531 310 Z M 270.519531 310 "/><path style=" stroke:none;fill-rule:nonzero;fill:#3c3c4f;fill-opacity:1;" d="M 314.300781 398.585938 C 314.59375 398.316406 314.859375 398.019531 315.09375 397.695312 C 315.328125 397.375 315.53125 397.03125 315.695312 396.667969 C 315.863281 396.308594 315.992188 395.933594 316.085938 395.546875 C 316.179688 395.15625 316.234375 394.765625 316.25 394.367188 C 316.261719 393.96875 316.238281 393.570312 316.175781 393.179688 C 316.113281 392.785156 316.011719 392.402344 315.871094 392.027344 C 315.730469 391.652344 315.558594 391.296875 315.347656 390.957031 C 315.136719 390.621094 314.898438 390.304688 314.625 390.011719 C 313.789062 389.109375 293.875 367.800781 270.519531 354.832031 C 270.171875 354.644531 269.808594 354.492188 269.429688 354.375 C 269.050781 354.261719 268.667969 354.179688 268.273438 354.140625 C 267.882812 354.101562 267.488281 354.097656 267.09375 354.132812 C 266.699219 354.167969 266.3125 354.242188 265.933594 354.355469 C 265.554688 354.464844 265.191406 354.613281 264.839844 354.792969 C 264.488281 354.976562 264.160156 355.191406 263.851562 355.4375 C 263.542969 355.683594 263.261719 355.957031 263.003906 356.257812 C 262.75 356.5625 262.527344 356.882812 262.335938 357.230469 C 262.144531 357.574219 261.984375 357.933594 261.863281 358.308594 C 261.742188 358.6875 261.660156 359.070312 261.613281 359.460938 C 261.566406 359.855469 261.558594 360.246094 261.585938 360.640625 C 261.617188 361.035156 261.6875 361.421875 261.792969 361.800781 C 261.898438 362.183594 262.039062 362.546875 262.214844 362.902344 C 262.394531 363.253906 262.605469 363.585938 262.847656 363.898438 C 263.089844 364.210938 263.359375 364.496094 263.65625 364.753906 C 263.953125 365.015625 264.273438 365.242188 264.617188 365.4375 C 286.246094 377.453125 305.527344 398.058594 305.71875 398.265625 C 306.921875 399.558594 311.460938 401.171875 314.300781 398.585938 Z M 314.300781 398.585938 "/><g clip-rule="nonzero" clip-path="url(#62feab415c)"><path style=" stroke:none;fill-rule:nonzero;fill:#3c3c4f;fill-opacity:1;" d="M 632.21875 203.085938 C 624.464844 199.210938 616.707031 195.78125 608.980469 192.738281 C 608.609375 192.589844 608.226562 192.480469 607.835938 192.40625 C 607.445312 192.335938 607.046875 192.300781 606.648438 192.304688 C 606.25 192.3125 605.855469 192.355469 605.464844 192.4375 C 605.078125 192.519531 604.699219 192.640625 604.332031 192.796875 C 603.964844 192.953125 603.617188 193.144531 603.289062 193.371094 C 602.960938 193.597656 602.65625 193.851562 602.378906 194.136719 C 602.097656 194.421875 601.851562 194.730469 601.632812 195.066406 C 601.414062 195.398438 601.234375 195.75 601.085938 196.121094 C 600.9375 196.492188 600.828125 196.871094 600.753906 197.261719 C 600.679688 197.65625 600.644531 198.050781 600.652344 198.449219 C 600.65625 198.847656 600.699219 199.242188 600.78125 199.632812 C 600.863281 200.019531 600.984375 200.398438 601.140625 200.765625 C 601.296875 201.132812 601.488281 201.480469 601.714844 201.808594 C 601.941406 202.136719 602.195312 202.4375 602.480469 202.71875 C 602.765625 202.996094 603.074219 203.242188 603.410156 203.460938 C 603.746094 203.679688 604.097656 203.863281 604.46875 204.007812 C 610.765625 206.484375 617.070312 209.242188 623.386719 212.28125 L 623.386719 522.160156 C 524.933594 478.484375 430.714844 493.664062 357.8125 522.40625 L 357.8125 212.378906 C 362.042969 210.492188 370.136719 207.082031 381.292969 203.261719 C 381.671875 203.132812 382.039062 202.96875 382.386719 202.765625 C 382.734375 202.566406 383.058594 202.335938 383.359375 202.070312 C 383.664062 201.804688 383.9375 201.515625 384.179688 201.195312 C 384.425781 200.878906 384.636719 200.539062 384.8125 200.179688 C 384.988281 199.816406 385.128906 199.445312 385.234375 199.054688 C 385.335938 198.667969 385.402344 198.273438 385.425781 197.875 C 385.453125 197.472656 385.4375 197.074219 385.382812 196.675781 C 385.332031 196.28125 385.238281 195.890625 385.109375 195.511719 C 384.976562 195.132812 384.8125 194.769531 384.609375 194.421875 C 384.40625 194.074219 384.171875 193.75 383.90625 193.453125 C 383.640625 193.152344 383.347656 192.878906 383.027344 192.636719 C 382.707031 192.394531 382.367188 192.1875 382.003906 192.011719 C 381.644531 191.835938 381.269531 191.695312 380.878906 191.59375 C 380.492188 191.496094 380.097656 191.433594 379.695312 191.410156 C 379.292969 191.386719 378.894531 191.402344 378.496094 191.457031 C 378.097656 191.511719 377.710938 191.605469 377.332031 191.738281 C 366.9375 195.296875 359.105469 198.527344 354.328125 200.625 C 312.011719 136.582031 250.097656 89.542969 135.609375 78.742188 C 135.191406 78.710938 134.777344 78.71875 134.363281 78.773438 C 133.949219 78.828125 133.542969 78.925781 133.148438 79.0625 C 132.753906 79.199219 132.378906 79.375 132.019531 79.59375 C 131.664062 79.808594 131.332031 80.058594 131.023438 80.34375 C 130.71875 80.628906 130.445312 80.941406 130.203125 81.28125 C 129.960938 81.621094 129.757812 81.984375 129.59375 82.367188 C 129.425781 82.75 129.300781 83.148438 129.21875 83.554688 C 129.132812 83.964844 129.09375 84.378906 129.09375 84.796875 L 129.09375 181.898438 C 118.816406 184.734375 93.371094 192.328125 72.78125 203.160156 C 72.296875 203.417969 71.859375 203.734375 71.460938 204.113281 C 71.066406 204.492188 70.726562 204.914062 70.449219 205.386719 C 70.167969 205.855469 69.957031 206.355469 69.8125 206.882812 C 69.667969 207.410156 69.597656 207.949219 69.597656 208.496094 L 69.597656 582.773438 C 69.597656 583.246094 69.648438 583.714844 69.753906 584.175781 C 69.859375 584.636719 70.015625 585.082031 70.222656 585.507812 C 70.429688 585.933594 70.683594 586.328125 70.980469 586.699219 C 71.277344 587.066406 71.613281 587.394531 71.984375 587.6875 C 72.359375 587.980469 72.757812 588.226562 73.1875 588.425781 C 73.617188 588.625 74.066406 588.777344 74.527344 588.875 C 74.992188 588.972656 75.460938 589.019531 75.933594 589.007812 C 76.40625 589 76.875 588.9375 77.335938 588.824219 C 227.527344 546.828125 329.464844 583.367188 351.703125 588.652344 C 374.226562 583.582031 477.523438 546.6875 627.808594 588.824219 C 632.785156 589.746094 635.542969 587.210938 635.542969 582.808594 L 635.542969 208.5 C 635.546875 207.941406 635.46875 207.390625 635.316406 206.851562 C 635.164062 206.308594 634.941406 205.800781 634.648438 205.324219 C 634.355469 204.84375 634.003906 204.417969 633.589844 204.035156 C 633.175781 203.65625 632.71875 203.339844 632.21875 203.085938 Z M 81.75 212.214844 C 97.039062 205 112.820312 199.105469 129.09375 194.527344 L 129.09375 407.535156 C 129.09375 407.917969 129.132812 408.292969 129.203125 408.667969 C 129.273438 409.039062 129.378906 409.402344 129.515625 409.757812 C 129.65625 410.109375 129.828125 410.449219 130.03125 410.769531 C 130.234375 411.09375 130.464844 411.390625 130.722656 411.671875 C 130.984375 411.949219 131.265625 412.199219 131.574219 412.425781 C 131.878906 412.652344 132.203125 412.84375 132.546875 413.011719 C 132.890625 413.175781 133.246094 413.304688 133.613281 413.402344 C 133.980469 413.5 134.355469 413.5625 134.734375 413.589844 C 241.140625 424.472656 292.589844 461.730469 336.910156 518.839844 C 261.464844 492.378906 180.023438 479.96875 81.746094 522.167969 Z M 345.667969 574.484375 C 269.253906 553.1875 191.890625 547.640625 81.75 575.015625 L 81.75 562.03125 C 199.75 510.617188 326.671875 554.734375 345.667969 561.90625 Z M 345.667969 548.949219 C 274.59375 524.660156 176.40625 510.5 81.75 548.832031 L 81.75 535.554688 C 176.660156 489.675781 278.664062 506.570312 345.667969 535.636719 Z M 345.667969 510.105469 C 337.773438 499.09375 282.484375 412.160156 141.246094 401.925781 L 141.246094 91.378906 C 245.046875 101.246094 311.503906 152.628906 345.667969 209.992188 Z M 623.394531 575.015625 C 537.839844 548.398438 413.710938 555.375 357.816406 574.515625 L 357.816406 562.050781 C 375.695312 555.3125 504.617188 510.285156 623.394531 562.035156 Z M 623.394531 548.832031 C 528.902344 510.375 428.648438 524.835938 357.816406 549.097656 L 357.816406 535.660156 C 379.515625 526.03125 502.039062 476.9375 623.394531 535.554688 Z M 623.394531 548.832031 "/></g><path style=" stroke:none;fill-rule:nonzero;fill:#3c3c4f;fill-opacity:1;" d="M 611.261719 121.777344 C 613.816406 123.285156 575.136719 43.074219 539.871094 35.832031 C 520.601562 31.789062 467.683594 21.625 414.59375 22.167969 C 413.90625 22.3125 413.261719 22.5625 412.660156 22.925781 C 412.058594 23.285156 411.535156 23.738281 411.085938 24.28125 C 410.640625 24.820312 410.296875 25.421875 410.054688 26.078125 C 409.8125 26.738281 409.6875 27.417969 409.679688 28.117188 L 409.679688 89.507812 C 409.675781 90.511719 409.746094 91.511719 409.886719 92.503906 C 410.03125 93.496094 410.246094 94.472656 410.53125 95.433594 C 410.816406 96.398438 411.171875 97.332031 411.597656 98.242188 C 412.019531 99.152344 412.507812 100.023438 413.058594 100.863281 C 413.613281 101.703125 414.222656 102.496094 414.890625 103.242188 C 415.558594 103.992188 416.28125 104.6875 417.050781 105.332031 C 417.820312 105.972656 418.636719 106.558594 419.492188 107.082031 C 420.347656 107.605469 421.238281 108.0625 422.160156 108.457031 L 418.753906 129.671875 C 418.519531 131.128906 418.039062 132.5 417.316406 133.785156 C 416.589844 135.070312 415.664062 136.1875 414.539062 137.144531 L 407.058594 143.476562 C 406.636719 143.835938 406.234375 144.222656 405.855469 144.625 C 405.476562 145.03125 405.121094 145.457031 404.789062 145.902344 C 404.457031 146.347656 404.148438 146.808594 403.867188 147.285156 C 403.585938 147.765625 403.328125 148.257812 403.101562 148.761719 C 402.875 149.269531 402.671875 149.785156 402.503906 150.316406 C 402.332031 150.84375 402.1875 151.378906 402.074219 151.921875 C 401.964844 152.464844 401.882812 153.011719 401.828125 153.566406 C 401.777344 154.117188 401.753906 154.671875 401.761719 155.226562 C 401.769531 155.78125 401.808594 156.335938 401.878906 156.886719 C 401.945312 157.4375 402.046875 157.984375 402.175781 158.523438 C 402.304688 159.0625 402.460938 159.59375 402.648438 160.117188 C 402.835938 160.640625 403.050781 161.148438 403.292969 161.648438 C 403.535156 162.148438 403.804688 162.632812 404.101562 163.101562 C 404.398438 163.574219 404.71875 164.023438 405.0625 164.460938 C 405.410156 164.894531 405.777344 165.308594 406.167969 165.703125 C 406.5625 166.097656 406.972656 166.46875 407.402344 166.816406 L 420.25 177.046875 C 418.839844 178.925781 417.609375 180.910156 416.550781 183.007812 C 415.492188 185.101562 414.628906 187.269531 413.953125 189.519531 C 413.28125 191.765625 412.808594 194.054688 412.539062 196.386719 C 412.269531 198.714844 412.207031 201.050781 412.351562 203.390625 C 395.457031 215.316406 403.71875 239.023438 391.816406 249.492188 C 391.386719 249.820312 391.007812 250.203125 390.679688 250.632812 C 390.351562 251.0625 390.085938 251.527344 389.878906 252.027344 C 389.675781 252.53125 389.539062 253.050781 389.472656 253.585938 C 389.410156 254.121094 389.414062 254.660156 389.488281 255.195312 C 389.566406 255.730469 389.710938 256.246094 389.925781 256.746094 C 390.136719 257.242188 390.414062 257.703125 390.75 258.125 C 391.085938 258.550781 391.472656 258.921875 391.90625 259.246094 C 392.34375 259.566406 392.8125 259.828125 393.316406 260.023438 C 399.074219 262.007812 405 263.007812 411.09375 263.019531 C 415.273438 263.117188 419.363281 262.550781 423.359375 261.320312 C 427.359375 260.085938 431.054688 258.25 434.453125 255.8125 C 434.742188 255.929688 435.042969 256.042969 435.34375 256.160156 C 417.464844 281.179688 394.144531 330.707031 401.742188 413.429688 C 401.765625 413.691406 401.804688 413.945312 401.863281 414.199219 C 401.917969 414.449219 401.992188 414.699219 402.078125 414.941406 C 402.167969 415.1875 402.269531 415.425781 402.390625 415.65625 C 402.507812 415.886719 402.640625 416.105469 402.789062 416.320312 C 402.9375 416.535156 403.097656 416.738281 403.269531 416.929688 C 403.441406 417.121094 403.628906 417.304688 403.824219 417.472656 C 404.019531 417.644531 404.226562 417.796875 404.445312 417.941406 C 404.660156 418.085938 404.886719 418.210938 405.117188 418.328125 C 405.351562 418.441406 405.589844 418.539062 405.835938 418.625 C 406.082031 418.707031 406.332031 418.773438 406.585938 418.824219 C 406.839844 418.878906 407.097656 418.910156 407.355469 418.929688 C 407.613281 418.949219 407.875 418.953125 408.132812 418.9375 C 408.390625 418.921875 408.648438 418.890625 408.902344 418.84375 C 409.160156 418.796875 409.410156 418.734375 409.65625 418.652344 C 409.902344 418.574219 410.144531 418.480469 410.378906 418.367188 C 410.613281 418.257812 410.839844 418.132812 411.058594 417.992188 L 583.324219 308.273438 C 584.933594 307.257812 586.449219 306.125 587.875 304.863281 C 589.296875 303.605469 590.613281 302.242188 591.816406 300.769531 C 593.019531 299.296875 594.097656 297.742188 595.046875 296.09375 C 596 294.449219 596.8125 292.738281 597.484375 290.964844 C 598.160156 289.1875 598.683594 287.367188 599.066406 285.507812 C 599.445312 283.644531 599.671875 281.765625 599.746094 279.867188 C 599.820312 277.96875 599.742188 276.074219 599.511719 274.191406 C 599.28125 272.304688 598.898438 270.449219 598.367188 268.625 C 594.117188 253.769531 586.167969 232.664062 572.207031 214.578125 C 580.246094 198.695312 573.78125 189.445312 574.066406 167.882812 C 576.007812 167.34375 577.816406 166.507812 579.492188 165.386719 C 581.164062 164.261719 582.617188 162.90625 583.851562 161.3125 L 610.277344 127.273438 C 610.875 126.492188 611.261719 125.613281 611.433594 124.644531 C 611.609375 123.675781 611.550781 122.71875 611.261719 121.777344 Z M 413.855469 155.046875 C 413.84375 154.601562 413.929688 154.179688 414.113281 153.773438 C 414.292969 153.367188 414.554688 153.023438 414.894531 152.734375 L 422.382812 146.398438 C 432.070312 139.636719 431.910156 120.964844 434.09375 110.695312 C 455.871094 113.328125 477.058594 118.417969 497.652344 125.972656 C 493.671875 142.800781 490.277344 166.515625 496.800781 183.601562 C 489.929688 197.335938 469.074219 197.128906 462.5 183.335938 C 455.332031 170.382812 437.675781 169.789062 430.953125 170.066406 L 414.972656 157.324219 C 414.625 157.050781 414.351562 156.710938 414.15625 156.3125 C 413.957031 155.914062 413.859375 155.492188 413.855469 155.046875 Z M 561.878906 167.183594 C 561.597656 187.886719 567.445312 200.164062 560.925781 209.480469 C 560.253906 210.222656 558.234375 212.476562 552.125 212.050781 C 539.023438 212.125 538.285156 198.476562 540.445312 191.042969 C 540.640625 190.351562 540.710938 189.652344 540.65625 188.9375 C 540.601562 188.226562 540.429688 187.542969 540.132812 186.890625 C 539.839844 186.238281 539.441406 185.65625 538.9375 185.144531 C 538.4375 184.632812 537.863281 184.226562 537.21875 183.917969 C 536.570312 183.609375 535.890625 183.421875 535.179688 183.351562 C 534.464844 183.285156 533.761719 183.339844 533.070312 183.519531 C 532.375 183.699219 531.734375 183.992188 531.144531 184.398438 C 530.554688 184.808594 530.054688 185.300781 529.640625 185.886719 C 525.347656 191.933594 518.21875 190.273438 516.347656 189.699219 C 500.394531 180.140625 505.4375 146.976562 509.058594 130.65625 C 525.964844 138.214844 542.363281 148.433594 554.816406 162.265625 C 556.789062 164.453125 559.140625 166.097656 561.878906 167.195312 Z M 429.292969 244.300781 C 422.324219 250.917969 412.867188 251.359375 406.113281 250.542969 C 413.699219 239.707031 409.402344 217.984375 420.886719 212.277344 C 429.742188 208.875 418.535156 196.324219 431.691406 182.160156 C 438.636719 181.664062 450.421875 183.535156 453.433594 191.789062 C 464.074219 209.21875 490.984375 210.890625 503.707031 194.910156 C 509.890625 201.628906 517.070312 204.007812 527.539062 201.5 C 527.863281 206.027344 529.257812 210.195312 531.726562 214.007812 C 524.925781 237.082031 503.726562 242.152344 485.601562 236.515625 C 486.902344 232.871094 487.519531 229.113281 487.445312 225.246094 C 487.199219 217.300781 475.15625 217.597656 475.292969 225.527344 C 475.304688 227.46875 475.042969 229.371094 474.519531 231.242188 C 473.992188 233.109375 473.21875 234.871094 472.195312 236.523438 C 458.984375 254.777344 437.214844 243.789062 436.3125 243.324219 C 435.75 243.027344 435.15625 242.828125 434.527344 242.71875 C 433.902344 242.609375 433.273438 242.597656 432.644531 242.6875 C 432.015625 242.773438 431.414062 242.957031 430.84375 243.230469 C 430.269531 243.507812 429.753906 243.863281 429.292969 244.300781 Z M 576.785156 298.027344 L 413.066406 402.304688 C 408.074219 321.980469 434.625 276.738281 448.339844 259.039062 C 449.757812 259.191406 451.183594 259.257812 452.609375 259.242188 C 454.039062 259.226562 455.460938 259.125 456.875 258.941406 C 458.292969 258.753906 459.691406 258.488281 461.074219 258.136719 C 462.460938 257.789062 463.820312 257.359375 465.152344 256.847656 C 466.484375 256.335938 467.785156 255.75 469.046875 255.085938 C 470.3125 254.421875 471.53125 253.6875 472.710938 252.878906 C 473.886719 252.074219 475.011719 251.199219 476.085938 250.257812 C 477.15625 249.316406 478.171875 248.316406 479.128906 247.257812 C 500.234375 255.027344 530.996094 250.925781 541.722656 222.023438 C 547.285156 224.539062 557.394531 225.144531 562.976562 222.476562 C 575.527344 238.933594 582.765625 258.265625 586.679688 271.945312 C 587.027344 273.148438 587.277344 274.367188 587.429688 275.605469 C 587.582031 276.847656 587.632812 278.09375 587.585938 279.339844 C 587.535156 280.589844 587.386719 281.828125 587.136719 283.050781 C 586.886719 284.277344 586.539062 285.472656 586.09375 286.640625 C 585.652344 287.808594 585.117188 288.933594 584.492188 290.015625 C 583.863281 291.097656 583.15625 292.125 582.363281 293.089844 C 581.570312 294.058594 580.707031 294.957031 579.769531 295.785156 C 578.832031 296.613281 577.835938 297.359375 576.777344 298.027344 Z M 574.234375 153.855469 C 573.925781 154.246094 573.582031 154.59375 573.195312 154.90625 C 572.8125 155.21875 572.398438 155.488281 571.957031 155.707031 C 571.515625 155.929688 571.050781 156.101562 570.570312 156.222656 C 570.09375 156.34375 569.605469 156.410156 569.109375 156.425781 C 568.613281 156.441406 568.125 156.402344 567.636719 156.308594 C 567.152344 156.214844 566.679688 156.070312 566.226562 155.875 C 565.769531 155.679688 565.34375 155.433594 564.941406 155.144531 C 564.539062 154.855469 564.175781 154.527344 563.847656 154.15625 C 520.449219 106.78125 445.097656 100.726562 426.542969 97.136719 C 425.835938 96.785156 425.1875 96.339844 424.601562 95.808594 C 424.011719 95.273438 423.511719 94.667969 423.09375 93.996094 C 422.679688 93.320312 422.363281 92.601562 422.144531 91.839844 C 421.929688 91.078125 421.824219 90.300781 421.824219 89.507812 L 421.824219 37.425781 L 519.902344 80.648438 L 509.222656 101.714844 C 505.675781 108.78125 516.40625 114.289062 520.066406 107.199219 L 533.636719 80.421875 C 533.824219 80.054688 533.972656 79.671875 534.082031 79.273438 C 534.1875 78.878906 534.253906 78.472656 534.28125 78.0625 C 534.308594 77.648438 534.292969 77.242188 534.234375 76.832031 C 534.175781 76.425781 534.078125 76.027344 533.9375 75.636719 C 533.800781 75.25 533.625 74.878906 533.410156 74.527344 C 533.195312 74.175781 532.945312 73.847656 532.667969 73.546875 C 532.386719 73.246094 532.078125 72.972656 531.742188 72.734375 C 531.402344 72.496094 531.046875 72.292969 530.667969 72.128906 L 446.914062 35.21875 C 477.347656 37.265625 507.484375 41.425781 537.332031 47.703125 C 561.421875 54.640625 582.398438 93.65625 591.453125 108.796875 L 546.777344 83.90625 C 539.832031 80.074219 533.929688 90.609375 540.859375 94.507812 L 596.328125 125.402344 Z M 574.234375 153.855469 "/><path style=" stroke:none;fill-rule:nonzero;fill:#3c3c4f;fill-opacity:1;" d="M 447.570312 147.757812 C 451.8125 146.71875 459.882812 150.1875 461.386719 142.929688 C 461.460938 142.539062 461.496094 142.144531 461.496094 141.746094 C 461.492188 141.347656 461.453125 140.953125 461.375 140.5625 C 461.292969 140.171875 461.175781 139.792969 461.023438 139.425781 C 460.867188 139.058594 460.679688 138.710938 460.457031 138.382812 C 460.234375 138.050781 459.980469 137.746094 459.699219 137.464844 C 459.414062 137.1875 459.105469 136.9375 458.773438 136.714844 C 458.441406 136.496094 458.089844 136.3125 457.722656 136.160156 C 457.355469 136.007812 456.972656 135.894531 456.582031 135.820312 C 452.902344 135.214844 449.222656 135.207031 445.542969 135.792969 C 437.734375 137.164062 439.75 149 447.570312 147.757812 Z M 447.570312 147.757812 "/></g></svg>