<svg xmlns="http://www.w3.org/2000/svg" xmlns:xlink="http://www.w3.org/1999/xlink" width="940" zoomAndPan="magnify" viewBox="0 0 705 591.000005" height="788" preserveAspectRatio="xMidYMid meet" version="1.2"><defs><clipPath id="78e3438360"><path d="M 268.964844 393 L 286.183594 393 L 286.183594 395 L 268.964844 395 Z M 268.964844 393 "/></clipPath><clipPath id="becee992ec"><path d="M 268.964844 394 L 286.183594 394 L 286.183594 395.265625 L 268.964844 395.265625 Z M 268.964844 394 "/></clipPath><clipPath id="e244d785e8"><path d="M 268.964844 393 L 270 393 L 270 394 L 268.964844 394 Z M 268.964844 393 "/></clipPath><clipPath id="13ca963033"><path d="M 286 393 L 286.183594 393 L 286.183594 394 L 286 394 Z M 286 393 "/></clipPath><clipPath id="8d838995d1"><path d="M 275 387.777344 L 280 387.777344 L 280 394 L 275 394 Z M 275 387.777344 "/></clipPath><clipPath id="d3ae151f5e"><path d="M 40 36.347656 L 665 36.347656 L 665 553.722656 L 40 553.722656 Z M 40 36.347656 "/></clipPath></defs><g id="641af37594"><g clip-rule="nonzero" clip-path="url(#78e3438360)"><path style=" stroke:none;fill-rule:nonzero;fill:#000000;fill-opacity:1;" d="M 279.722656 393.648438 C 279.691406 393.648438 279.660156 393.648438 279.625 393.65625 C 279.601562 393.660156 279.589844 393.695312 279.5625 393.679688 C 279.542969 393.664062 279.53125 393.640625 279.515625 393.621094 C 279.507812 393.613281 279.5 393.601562 279.492188 393.59375 C 279.472656 393.5625 279.445312 393.550781 279.410156 393.550781 C 279.394531 393.550781 279.375 393.550781 279.359375 393.550781 C 278.167969 393.550781 276.980469 393.550781 275.789062 393.550781 C 275.773438 393.550781 275.753906 393.550781 275.734375 393.550781 C 275.703125 393.546875 275.679688 393.5625 275.660156 393.589844 C 275.644531 393.617188 275.625 393.644531 275.605469 393.671875 C 275.59375 393.683594 275.578125 393.699219 275.5625 393.6875 C 275.519531 393.648438 275.46875 393.660156 275.417969 393.660156 C 273.300781 393.660156 271.183594 393.660156 269.066406 393.660156 C 269.035156 393.660156 269.003906 393.660156 268.96875 393.660156 L 268.96875 394.78125 C 269.003906 394.78125 269.039062 394.785156 269.074219 394.785156 C 271.191406 394.785156 273.3125 394.785156 275.429688 394.785156 C 275.445312 394.785156 275.457031 394.785156 275.472656 394.785156 C 275.527344 394.785156 275.558594 394.8125 275.5625 394.871094 C 275.570312 394.925781 275.589844 394.953125 275.644531 394.960938 C 275.664062 394.964844 275.6875 394.96875 275.710938 394.96875 C 276.953125 394.96875 278.195312 394.96875 279.433594 394.96875 C 279.453125 394.96875 279.472656 394.96875 279.488281 394.964844 C 279.554688 394.957031 279.589844 394.917969 279.59375 394.851562 C 279.601562 394.785156 279.601562 394.785156 279.667969 394.785156 C 279.6875 394.78125 279.707031 394.785156 279.726562 394.785156 C 281.847656 394.785156 283.96875 394.785156 286.089844 394.785156 C 286.121094 394.785156 286.148438 394.78125 286.175781 394.78125 L 286.175781 393.648438 C 284.75 393.648438 283.328125 393.648438 281.902344 393.648438 C 281.175781 393.648438 280.449219 393.648438 279.722656 393.648438 Z M 279.722656 393.648438 "/></g><g clip-rule="nonzero" clip-path="url(#becee992ec)"><path style=" stroke:none;fill-rule:nonzero;fill:#000000;fill-opacity:1;" d="M 279.84375 394.917969 C 279.785156 394.921875 279.738281 394.9375 279.726562 395.015625 C 279.71875 395.070312 279.695312 395.085938 279.644531 395.089844 C 279.621094 395.089844 279.601562 395.089844 279.582031 395.089844 C 278.226562 395.089844 276.871094 395.089844 275.515625 395.089844 C 275.492188 395.089844 275.46875 395.089844 275.449219 395.089844 C 275.398438 395.082031 275.378906 395.066406 275.371094 395.015625 C 275.355469 394.945312 275.332031 394.925781 275.261719 394.917969 C 275.242188 394.917969 275.222656 394.917969 275.207031 394.917969 C 273.128906 394.917969 271.050781 394.917969 268.96875 394.917969 L 268.96875 395.101562 C 269.003906 395.101562 269.039062 395.101562 269.074219 395.101562 C 271.042969 395.101562 273.007812 395.101562 274.976562 395.101562 C 275 395.101562 275.027344 395.101562 275.050781 395.105469 C 275.09375 395.105469 275.113281 395.121094 275.128906 395.167969 C 275.152344 395.253906 275.167969 395.265625 275.253906 395.265625 C 276.789062 395.265625 278.320312 395.265625 279.855469 395.265625 C 279.945312 395.265625 279.957031 395.253906 279.984375 395.167969 C 279.996094 395.121094 280.015625 395.105469 280.0625 395.105469 C 280.085938 395.101562 280.109375 395.101562 280.132812 395.101562 C 282.113281 395.101562 284.09375 395.101562 286.074219 395.101562 C 286.105469 395.101562 286.140625 395.101562 286.175781 395.101562 L 286.175781 394.917969 C 284.082031 394.917969 281.988281 394.917969 279.890625 394.917969 C 279.875 394.917969 279.859375 394.917969 279.84375 394.917969 Z M 279.84375 394.917969 "/></g><g clip-rule="nonzero" clip-path="url(#e244d785e8)"><path style=" stroke:none;fill-rule:nonzero;fill:#000000;fill-opacity:1;" d="M 269.066406 393.625 C 269.117188 393.621094 269.125 393.617188 269.128906 393.5625 C 269.128906 393.507812 269.128906 393.449219 269.128906 393.390625 C 269.128906 393.257812 269.140625 393.285156 269.046875 393.1875 C 269.023438 393.167969 269.003906 393.144531 268.96875 393.144531 L 268.96875 393.625 C 269.003906 393.625 269.035156 393.625 269.066406 393.625 Z M 269.066406 393.625 "/></g><g clip-rule="nonzero" clip-path="url(#13ca963033)"><path style=" stroke:none;fill-rule:nonzero;fill:#000000;fill-opacity:1;" d="M 286.0625 393.269531 C 286.050781 393.277344 286.042969 393.292969 286.042969 393.308594 C 286.042969 393.398438 286.042969 393.488281 286.042969 393.582031 C 286.042969 393.609375 286.058594 393.625 286.085938 393.625 C 286.117188 393.625 286.144531 393.625 286.175781 393.625 L 286.175781 393.144531 C 286.136719 393.183594 286.097656 393.226562 286.0625 393.269531 Z M 286.0625 393.269531 "/></g><g clip-rule="nonzero" clip-path="url(#8d838995d1)"><path style=" stroke:none;fill-rule:nonzero;fill:#000000;fill-opacity:1;" d="M 275.328125 392.046875 C 275.351562 392.066406 275.363281 392.085938 275.367188 392.113281 C 275.371094 392.164062 275.382812 392.210938 275.382812 392.261719 C 275.378906 392.328125 275.398438 392.390625 275.394531 392.457031 C 275.394531 392.480469 275.402344 392.5 275.425781 392.503906 C 275.457031 392.507812 275.457031 392.527344 275.457031 392.550781 C 275.449219 392.628906 275.445312 392.707031 275.4375 392.785156 C 275.429688 392.851562 275.433594 392.859375 275.5 392.859375 C 275.707031 392.867188 275.914062 392.847656 276.121094 392.847656 C 276.128906 392.847656 276.132812 392.847656 276.140625 392.847656 C 276.164062 392.847656 276.175781 392.832031 276.175781 392.808594 C 276.179688 392.75 276.179688 392.75 276.238281 392.75 C 276.375 392.75 276.511719 392.75 276.648438 392.75 C 276.664062 392.75 276.675781 392.75 276.691406 392.753906 C 276.703125 392.753906 276.714844 392.761719 276.714844 392.773438 C 276.722656 392.832031 276.726562 392.886719 276.714844 392.949219 C 276.699219 392.9375 276.695312 392.933594 276.6875 392.929688 C 276.625 392.894531 276.542969 392.902344 276.492188 392.953125 C 276.457031 392.984375 276.425781 393.023438 276.398438 393.0625 C 276.378906 393.085938 276.371094 393.109375 276.371094 393.136719 C 276.371094 393.25 276.371094 393.363281 276.371094 393.472656 C 276.371094 393.53125 276.382812 393.539062 276.4375 393.539062 C 276.550781 393.539062 276.667969 393.539062 276.78125 393.539062 C 276.796875 393.539062 276.8125 393.535156 276.828125 393.53125 C 276.871094 393.523438 276.878906 393.511719 276.878906 393.46875 C 276.878906 393.449219 276.878906 393.433594 276.878906 393.414062 C 276.878906 393.152344 276.878906 392.886719 276.878906 392.625 C 276.878906 392.558594 276.886719 392.554688 276.949219 392.554688 C 276.953125 392.554688 276.960938 392.554688 276.964844 392.554688 C 277.378906 392.554688 277.792969 392.554688 278.203125 392.554688 C 278.289062 392.554688 278.292969 392.554688 278.292969 392.644531 C 278.292969 392.910156 278.292969 393.175781 278.292969 393.445312 C 278.292969 393.523438 278.304688 393.535156 278.375 393.539062 C 278.492188 393.539062 278.609375 393.539062 278.726562 393.539062 C 278.777344 393.539062 278.785156 393.527344 278.785156 393.476562 C 278.789062 393.394531 278.785156 393.316406 278.785156 393.234375 C 278.785156 393.089844 278.785156 393.089844 278.691406 392.980469 C 278.644531 392.921875 278.589844 392.902344 278.523438 392.910156 C 278.511719 392.910156 278.503906 392.914062 278.492188 392.914062 C 278.472656 392.921875 278.460938 392.914062 278.460938 392.890625 C 278.460938 392.867188 278.460938 392.84375 278.460938 392.816406 C 278.460938 392.757812 278.46875 392.75 278.527344 392.75 C 278.640625 392.75 278.753906 392.75 278.867188 392.75 C 278.894531 392.75 278.921875 392.75 278.949219 392.75 C 278.972656 392.75 278.984375 392.761719 278.992188 392.789062 C 279.003906 392.847656 279.003906 392.847656 279.0625 392.847656 C 279.128906 392.851562 279.195312 392.84375 279.257812 392.851562 C 279.398438 392.867188 279.542969 392.859375 279.683594 392.859375 C 279.730469 392.859375 279.730469 392.855469 279.730469 392.808594 C 279.726562 392.730469 279.71875 392.648438 279.710938 392.570312 C 279.707031 392.550781 279.699219 392.519531 279.71875 392.515625 C 279.777344 392.492188 279.773438 392.441406 279.777344 392.394531 C 279.78125 392.320312 279.785156 392.242188 279.789062 392.164062 C 279.792969 392.125 279.800781 392.085938 279.832031 392.058594 C 279.867188 392.019531 279.867188 392.015625 279.839844 391.964844 C 279.824219 391.9375 279.800781 391.902344 279.8125 391.875 C 279.828125 391.832031 279.8125 391.796875 279.8125 391.757812 C 279.8125 391.710938 279.808594 391.664062 279.828125 391.621094 C 279.839844 391.601562 279.828125 391.585938 279.808594 391.574219 C 279.804688 391.582031 279.800781 391.582031 279.800781 391.585938 C 279.804688 391.691406 279.796875 391.789062 279.777344 391.890625 C 279.765625 391.949219 279.742188 391.988281 279.699219 392.003906 C 279.578125 392.042969 279.457031 392.035156 279.332031 392.03125 C 279.300781 392.03125 279.292969 392.011719 279.300781 391.980469 C 279.300781 391.964844 279.308594 391.949219 279.320312 391.9375 C 279.363281 391.910156 279.355469 391.875 279.335938 391.835938 C 279.316406 391.796875 279.296875 391.761719 279.316406 391.714844 C 279.320312 391.703125 279.316406 391.691406 279.316406 391.679688 C 279.304688 391.621094 279.296875 391.5625 279.320312 391.503906 C 279.332031 391.480469 279.324219 391.460938 279.292969 391.449219 C 279.289062 391.5625 279.296875 391.671875 279.269531 391.777344 C 279.253906 391.839844 279.238281 391.867188 279.175781 391.886719 C 279.09375 391.914062 279.011719 391.910156 278.929688 391.910156 C 278.816406 391.910156 278.8125 391.90625 278.832031 391.792969 C 278.835938 391.765625 278.828125 391.730469 278.851562 391.710938 C 278.902344 391.675781 278.886719 391.640625 278.863281 391.601562 C 278.851562 391.574219 278.832031 391.542969 278.839844 391.515625 C 278.855469 391.476562 278.84375 391.4375 278.847656 391.398438 C 278.847656 391.351562 278.839844 391.304688 278.859375 391.257812 C 278.867188 391.234375 278.855469 391.214844 278.832031 391.195312 C 278.820312 391.222656 278.824219 391.246094 278.824219 391.269531 C 278.824219 391.355469 278.824219 391.445312 278.808594 391.53125 C 278.800781 391.582031 278.78125 391.628906 278.730469 391.644531 C 278.675781 391.664062 278.621094 391.679688 278.566406 391.683594 C 278.453125 391.699219 278.339844 391.703125 278.230469 391.710938 C 278.183594 391.714844 278.171875 391.699219 278.171875 391.65625 C 278.171875 391.617188 278.183594 391.605469 278.222656 391.605469 C 278.277344 391.601562 278.328125 391.605469 278.378906 391.605469 C 278.441406 391.605469 278.449219 391.597656 278.46875 391.535156 C 278.472656 391.511719 278.480469 391.492188 278.488281 391.46875 C 278.496094 391.4375 278.507812 391.40625 278.542969 391.386719 C 278.582031 391.363281 278.59375 391.300781 278.566406 391.261719 C 278.535156 391.214844 278.535156 391.160156 278.554688 391.117188 C 278.582031 391.0625 278.585938 391.015625 278.574219 390.960938 C 278.574219 390.945312 278.570312 390.929688 278.574219 390.914062 C 278.585938 390.875 278.578125 390.839844 278.566406 390.804688 C 278.550781 390.757812 278.546875 390.710938 278.582031 390.671875 C 278.597656 390.65625 278.597656 390.636719 278.582031 390.621094 C 278.554688 390.585938 278.546875 390.542969 278.539062 390.496094 C 278.535156 390.46875 278.542969 390.4375 278.515625 390.402344 C 278.503906 390.464844 278.492188 390.515625 278.496094 390.566406 C 278.5 390.664062 278.480469 390.761719 278.484375 390.859375 C 278.484375 390.886719 278.472656 390.90625 278.453125 390.925781 C 278.429688 390.945312 278.414062 390.917969 278.390625 390.917969 C 278.386719 390.949219 278.382812 390.980469 278.347656 390.984375 C 278.296875 390.992188 278.277344 391.023438 278.265625 391.070312 C 278.253906 391.117188 278.226562 391.125 278.183594 391.097656 C 278.132812 391.066406 278.082031 391.035156 278.03125 391 C 278.023438 390.992188 278.003906 390.988281 278.011719 390.96875 C 278.03125 390.960938 278.054688 390.964844 278.078125 390.964844 C 278.125 390.960938 278.128906 390.957031 278.144531 390.910156 C 278.160156 390.867188 278.164062 390.824219 278.199219 390.789062 C 278.214844 390.777344 278.203125 390.753906 278.199219 390.734375 C 278.195312 390.714844 278.183594 390.691406 278.195312 390.671875 C 278.214844 390.632812 278.210938 390.59375 278.210938 390.550781 C 278.210938 390.515625 278.214844 390.476562 278.199219 390.441406 C 278.195312 390.425781 278.199219 390.40625 278.210938 390.390625 C 278.222656 390.371094 278.222656 390.351562 278.210938 390.332031 C 278.195312 390.308594 278.195312 390.28125 278.1875 390.257812 C 278.183594 390.242188 278.1875 390.222656 278.171875 390.214844 C 278.15625 390.226562 278.15625 390.242188 278.160156 390.257812 C 278.160156 390.332031 278.140625 390.402344 278.144531 390.476562 C 278.144531 390.503906 278.132812 390.519531 278.105469 390.535156 C 278.070312 390.558594 278.019531 390.570312 278.007812 390.625 C 278 390.644531 277.984375 390.652344 277.964844 390.640625 C 277.917969 390.617188 277.875 390.589844 277.839844 390.554688 C 277.8125 390.53125 277.816406 390.492188 277.828125 390.457031 C 277.835938 390.425781 277.867188 390.433594 277.890625 390.433594 C 277.90625 390.433594 277.921875 390.433594 277.9375 390.433594 C 277.953125 390.429688 277.972656 390.425781 277.976562 390.410156 C 277.984375 390.351562 278.050781 390.308594 278.019531 390.238281 C 278.015625 390.234375 278.019531 390.222656 278.023438 390.214844 C 278.046875 390.171875 278.035156 390.125 278.03125 390.078125 C 278.03125 390.058594 278.027344 390.039062 278.03125 390.023438 C 278.039062 389.976562 278.015625 389.9375 278.003906 389.894531 C 277.984375 389.90625 277.988281 389.925781 277.988281 389.941406 C 277.992188 389.988281 277.980469 390.03125 277.976562 390.074219 C 277.976562 390.089844 277.976562 390.105469 277.960938 390.113281 C 277.925781 390.128906 277.90625 390.152344 277.882812 390.179688 C 277.871094 390.191406 277.859375 390.199219 277.84375 390.1875 C 277.820312 390.171875 277.796875 390.160156 277.777344 390.140625 C 277.757812 390.125 277.757812 390.097656 277.765625 390.078125 C 277.769531 390.054688 277.789062 390.054688 277.808594 390.050781 C 277.824219 390.050781 277.839844 390.050781 277.855469 390.050781 C 277.871094 390.046875 277.886719 390.042969 277.890625 390.027344 C 277.90625 389.996094 277.921875 389.964844 277.925781 389.929688 C 277.9375 389.855469 277.9375 389.78125 277.933594 389.707031 C 277.933594 389.679688 277.929688 389.652344 277.90625 389.632812 C 277.886719 389.65625 277.890625 389.6875 277.894531 389.710938 C 277.90625 389.78125 277.851562 389.8125 277.8125 389.847656 C 277.789062 389.867188 277.765625 389.84375 277.746094 389.832031 C 277.726562 389.8125 277.734375 389.800781 277.753906 389.789062 C 277.765625 389.78125 277.753906 389.769531 277.746094 389.761719 C 277.707031 389.738281 277.699219 389.703125 277.699219 389.65625 C 277.703125 389.632812 277.695312 389.609375 277.671875 389.59375 C 277.652344 389.582031 277.652344 389.5625 277.660156 389.542969 C 277.667969 389.519531 277.675781 389.496094 277.6875 389.472656 C 277.707031 389.4375 277.710938 389.402344 277.703125 389.363281 C 277.679688 389.257812 277.660156 389.152344 277.636719 389.046875 C 277.621094 388.976562 277.609375 388.910156 277.625 388.839844 C 277.632812 388.8125 277.636719 388.785156 277.628906 388.757812 C 277.625 388.738281 277.628906 388.722656 277.65625 388.722656 C 277.691406 388.71875 277.695312 388.699219 277.691406 388.667969 C 277.683594 388.59375 277.664062 388.523438 277.644531 388.453125 C 277.597656 388.308594 277.5625 388.164062 277.578125 388.011719 C 277.582031 387.996094 277.578125 387.980469 277.578125 387.960938 C 277.582031 387.925781 277.570312 387.882812 277.601562 387.851562 C 277.609375 387.84375 277.605469 387.832031 277.597656 387.824219 C 277.585938 387.808594 277.585938 387.785156 277.5625 387.777344 C 277.550781 387.796875 277.554688 387.820312 277.554688 387.839844 C 277.554688 387.945312 277.554688 388.050781 277.554688 388.152344 C 277.554688 388.179688 277.554688 388.203125 277.546875 388.226562 C 277.511719 388.328125 277.5 388.4375 277.460938 388.539062 C 277.441406 388.582031 277.445312 388.628906 277.4375 388.671875 C 277.433594 388.691406 277.4375 388.710938 277.453125 388.714844 C 277.5 388.722656 277.496094 388.75 277.496094 388.785156 C 277.496094 388.8125 277.5 388.839844 277.507812 388.863281 C 277.519531 388.914062 277.511719 388.960938 277.5 389.011719 C 277.480469 389.113281 277.460938 389.214844 277.433594 389.316406 C 277.417969 389.386719 277.417969 389.453125 277.460938 389.511719 C 277.464844 389.519531 277.46875 389.53125 277.472656 389.539062 C 277.480469 389.5625 277.480469 389.582031 277.460938 389.59375 C 277.433594 389.609375 277.433594 389.632812 277.433594 389.65625 C 277.4375 389.703125 277.425781 389.738281 277.386719 389.761719 C 277.378906 389.765625 277.371094 389.773438 277.375 389.78125 C 277.378906 389.785156 277.378906 389.789062 277.382812 389.789062 C 277.394531 389.796875 277.410156 389.792969 277.410156 389.808594 C 277.410156 389.824219 277.394531 389.828125 277.386719 389.835938 C 277.371094 389.847656 277.355469 389.847656 277.335938 389.835938 C 277.289062 389.808594 277.253906 389.773438 277.265625 389.707031 C 277.269531 389.683594 277.273438 389.65625 277.25 389.628906 C 277.234375 389.671875 277.222656 389.707031 277.226562 389.75 C 277.226562 389.804688 277.238281 389.863281 277.230469 389.917969 C 277.222656 389.960938 277.238281 389.996094 277.253906 390.03125 C 277.269531 390.0625 277.304688 390.046875 277.332031 390.050781 C 277.339844 390.050781 277.347656 390.054688 277.355469 390.054688 C 277.371094 390.058594 277.378906 390.066406 277.382812 390.082031 C 277.390625 390.132812 277.351562 390.148438 277.324219 390.171875 C 277.296875 390.191406 277.28125 390.183594 277.261719 390.160156 C 277.253906 390.144531 277.238281 390.132812 277.222656 390.125 C 277.183594 390.113281 277.179688 390.082031 277.179688 390.046875 C 277.179688 389.996094 277.171875 389.949219 277.164062 389.898438 C 277.148438 389.898438 277.148438 389.910156 277.144531 389.917969 C 277.136719 389.960938 277.117188 390.003906 277.136719 390.050781 C 277.105469 390.136719 277.152344 390.222656 277.128906 390.304688 C 277.128906 390.316406 277.132812 390.324219 277.136719 390.335938 C 277.152344 390.394531 277.191406 390.425781 277.253906 390.433594 C 277.269531 390.433594 277.285156 390.4375 277.292969 390.453125 C 277.308594 390.480469 277.300781 390.546875 277.277344 390.566406 C 277.25 390.589844 277.21875 390.605469 277.191406 390.625 C 277.175781 390.636719 277.160156 390.636719 277.152344 390.617188 C 277.140625 390.578125 277.089844 390.574219 277.078125 390.535156 C 277.078125 390.527344 277.066406 390.527344 277.058594 390.53125 C 277.019531 390.539062 277.015625 390.507812 277.011719 390.480469 C 277.011719 390.445312 277.015625 390.410156 277.011719 390.375 C 277.007812 390.324219 277 390.273438 276.996094 390.222656 C 276.996094 390.222656 276.992188 390.21875 276.984375 390.214844 C 276.96875 390.234375 276.976562 390.261719 276.96875 390.285156 C 276.953125 390.328125 276.929688 390.371094 276.960938 390.417969 C 276.964844 390.425781 276.960938 390.441406 276.957031 390.449219 C 276.9375 390.5 276.957031 390.554688 276.945312 390.605469 C 276.941406 390.617188 276.945312 390.632812 276.953125 390.640625 C 276.976562 390.675781 276.972656 390.710938 276.957031 390.746094 C 276.949219 390.765625 276.945312 390.789062 276.953125 390.8125 C 276.964844 390.851562 276.976562 390.886719 276.988281 390.921875 C 276.996094 390.949219 277.015625 390.960938 277.042969 390.964844 C 277.066406 390.964844 277.089844 390.960938 277.117188 390.972656 C 277.058594 391.011719 277.003906 391.046875 276.949219 391.082031 C 276.910156 391.105469 276.902344 391.105469 276.890625 391.058594 C 276.882812 391.023438 276.867188 390.996094 276.828125 390.988281 C 276.800781 390.984375 276.785156 390.96875 276.78125 390.9375 C 276.78125 390.914062 276.769531 390.902344 276.746094 390.921875 C 276.71875 390.945312 276.703125 390.925781 276.6875 390.902344 C 276.671875 390.886719 276.675781 390.867188 276.675781 390.84375 C 276.675781 390.722656 276.65625 390.601562 276.660156 390.480469 C 276.660156 390.457031 276.660156 390.433594 276.644531 390.414062 C 276.628906 390.421875 276.628906 390.433594 276.625 390.441406 C 276.621094 390.507812 276.613281 390.570312 276.574219 390.625 C 276.5625 390.644531 276.566406 390.664062 276.582031 390.679688 C 276.621094 390.714844 276.617188 390.757812 276.597656 390.800781 C 276.582031 390.832031 276.570312 390.863281 276.582031 390.898438 C 276.585938 390.929688 276.585938 390.960938 276.578125 390.992188 C 276.574219 391.023438 276.566406 391.058594 276.589844 391.085938 C 276.632812 391.148438 276.621094 391.203125 276.597656 391.265625 C 276.585938 391.292969 276.570312 391.320312 276.585938 391.355469 C 276.605469 391.414062 276.625 391.472656 276.640625 391.53125 C 276.664062 391.601562 276.664062 391.601562 276.738281 391.605469 C 276.78125 391.605469 276.820312 391.601562 276.863281 391.605469 C 276.894531 391.609375 276.914062 391.644531 276.910156 391.679688 C 276.90625 391.714844 276.878906 391.703125 276.863281 391.703125 C 276.726562 391.691406 276.585938 391.691406 276.449219 391.652344 C 276.402344 391.640625 276.371094 391.609375 276.363281 391.5625 C 276.34375 391.46875 276.324219 391.375 276.335938 391.277344 C 276.335938 391.253906 276.339844 391.230469 276.328125 391.203125 C 276.308594 391.226562 276.300781 391.246094 276.3125 391.269531 C 276.324219 391.289062 276.320312 391.3125 276.324219 391.335938 C 276.328125 391.394531 276.308594 391.457031 276.324219 391.519531 C 276.328125 391.535156 276.316406 391.558594 276.3125 391.578125 C 276.304688 391.59375 276.296875 391.605469 276.289062 391.621094 C 276.273438 391.648438 276.273438 391.675781 276.300781 391.695312 C 276.328125 391.714844 276.335938 391.742188 276.335938 391.773438 C 276.335938 391.800781 276.335938 391.832031 276.335938 391.859375 C 276.332031 391.902344 276.324219 391.910156 276.28125 391.910156 C 276.1875 391.910156 276.089844 391.917969 275.996094 391.886719 C 275.933594 391.867188 275.898438 391.832031 275.890625 391.761719 C 275.878906 391.679688 275.875 391.59375 275.875 391.503906 C 275.875 391.484375 275.882812 391.464844 275.863281 391.445312 C 275.84375 391.460938 275.832031 391.480469 275.84375 391.507812 C 275.855469 391.546875 275.851562 391.589844 275.851562 391.628906 C 275.851562 391.65625 275.84375 391.6875 275.851562 391.714844 C 275.867188 391.761719 275.851562 391.800781 275.832031 391.839844 C 275.804688 391.894531 275.804688 391.894531 275.84375 391.941406 C 275.863281 391.960938 275.867188 391.984375 275.859375 392.011719 C 275.851562 392.035156 275.828125 392.035156 275.808594 392.03125 C 275.703125 392.027344 275.601562 392.042969 275.496094 392.011719 C 275.429688 391.992188 275.398438 391.964844 275.386719 391.894531 C 275.375 391.804688 275.363281 391.714844 275.371094 391.625 C 275.371094 391.609375 275.375 391.589844 275.359375 391.574219 C 275.332031 391.605469 275.328125 391.605469 275.335938 391.625 C 275.371094 391.679688 275.359375 391.734375 275.347656 391.789062 C 275.34375 391.8125 275.335938 391.832031 275.347656 391.851562 C 275.359375 391.875 275.351562 391.898438 275.34375 391.921875 C 275.332031 391.945312 275.324219 391.96875 275.3125 391.988281 C 275.300781 392.011719 275.304688 392.035156 275.328125 392.050781 Z M 275.328125 392.046875 "/></g><path style=" stroke:none;fill-rule:nonzero;fill:#000000;fill-opacity:1;" d="M 278.945312 393.476562 C 278.945312 393.527344 278.953125 393.535156 279.003906 393.539062 C 279.074219 393.539062 279.140625 393.539062 279.210938 393.539062 C 279.277344 393.539062 279.347656 393.539062 279.414062 393.539062 C 279.464844 393.535156 279.472656 393.527344 279.472656 393.476562 C 279.476562 393.441406 279.472656 393.40625 279.476562 393.371094 C 279.476562 393.34375 279.46875 393.320312 279.445312 393.308594 C 279.421875 393.292969 279.425781 393.277344 279.449219 393.261719 C 279.46875 393.25 279.472656 393.226562 279.472656 393.203125 C 279.472656 393.128906 279.476562 393.050781 279.472656 392.976562 C 279.472656 392.933594 279.464844 392.925781 279.417969 392.921875 C 279.371094 392.921875 279.324219 392.921875 279.273438 392.921875 C 279.15625 392.921875 279.054688 392.964844 278.976562 393.054688 C 278.953125 393.078125 278.945312 393.101562 278.945312 393.132812 C 278.945312 393.246094 278.941406 393.363281 278.945312 393.476562 Z M 278.945312 393.476562 "/><path style=" stroke:none;fill-rule:nonzero;fill:#000000;fill-opacity:1;" d="M 275.707031 393.316406 C 275.6875 393.332031 275.683594 393.351562 275.683594 393.375 C 275.683594 393.410156 275.683594 393.441406 275.683594 393.472656 C 275.683594 393.53125 275.691406 393.535156 275.75 393.539062 C 275.816406 393.539062 275.882812 393.539062 275.949219 393.539062 C 276.015625 393.539062 276.082031 393.539062 276.148438 393.539062 C 276.207031 393.535156 276.214844 393.53125 276.214844 393.472656 C 276.214844 393.402344 276.214844 393.332031 276.214844 393.261719 C 276.214844 393.140625 276.171875 393.042969 276.089844 392.960938 C 276.085938 392.957031 276.082031 392.953125 276.082031 392.953125 C 276.0625 392.929688 276.039062 392.921875 276.011719 392.921875 C 275.917969 392.921875 275.828125 392.921875 275.738281 392.921875 C 275.695312 392.921875 275.683594 392.933594 275.683594 392.976562 C 275.683594 393.054688 275.683594 393.128906 275.683594 393.203125 C 275.683594 393.226562 275.6875 393.246094 275.707031 393.257812 C 275.730469 393.277344 275.726562 393.296875 275.707031 393.3125 Z M 275.707031 393.316406 "/><path style=" stroke:none;fill-rule:nonzero;fill:#000000;fill-opacity:1;" d="M 277.675781 393.476562 C 277.675781 393.527344 277.683594 393.535156 277.730469 393.539062 C 277.847656 393.539062 277.964844 393.539062 278.078125 393.539062 C 278.125 393.535156 278.132812 393.527344 278.132812 393.480469 C 278.136719 393.363281 278.132812 393.246094 278.132812 393.125 C 278.132812 393.105469 278.128906 393.085938 278.113281 393.070312 C 278.082031 393.03125 278.050781 392.996094 278.019531 392.960938 C 277.953125 392.886719 277.859375 392.886719 277.792969 392.957031 C 277.765625 392.984375 277.738281 393.011719 277.710938 393.039062 C 277.6875 393.0625 277.675781 393.09375 277.675781 393.128906 C 277.675781 393.183594 277.675781 393.242188 277.675781 393.300781 C 277.675781 393.359375 277.675781 393.417969 277.675781 393.476562 Z M 277.675781 393.476562 "/><path style=" stroke:none;fill-rule:nonzero;fill:#000000;fill-opacity:1;" d="M 277.484375 393.136719 C 277.484375 393.113281 277.480469 393.09375 277.464844 393.074219 C 277.425781 393.027344 277.390625 392.976562 277.34375 392.9375 C 277.328125 392.921875 277.3125 392.914062 277.292969 392.910156 C 277.230469 392.90625 277.171875 392.910156 277.128906 392.964844 C 277.109375 392.996094 277.082031 393.015625 277.058594 393.042969 C 277.035156 393.0625 277.023438 393.09375 277.023438 393.125 C 277.023438 393.242188 277.023438 393.363281 277.023438 393.480469 C 277.023438 393.527344 277.035156 393.535156 277.078125 393.539062 C 277.195312 393.539062 277.3125 393.539062 277.425781 393.539062 C 277.472656 393.535156 277.480469 393.527344 277.480469 393.480469 C 277.484375 393.425781 277.480469 393.367188 277.480469 393.308594 C 277.480469 393.253906 277.480469 393.195312 277.480469 393.136719 Z M 277.484375 393.136719 "/><path style=" stroke:none;fill-rule:nonzero;fill:#000000;fill-opacity:1;" d="M 269.730469 393.625 C 269.769531 393.625 269.808594 393.625 269.851562 393.625 C 269.886719 393.625 269.921875 393.625 269.957031 393.625 C 270.027344 393.625 270.03125 393.617188 270.03125 393.546875 C 270.035156 393.503906 270.03125 393.460938 270.035156 393.417969 C 270.039062 393.335938 270.03125 393.261719 269.964844 393.207031 C 269.957031 393.203125 269.957031 393.199219 269.953125 393.195312 C 269.898438 393.128906 269.820312 393.121094 269.757812 393.183594 C 269.742188 393.203125 269.722656 393.21875 269.703125 393.238281 C 269.683594 393.261719 269.671875 393.289062 269.671875 393.324219 C 269.671875 393.40625 269.671875 393.484375 269.671875 393.566406 C 269.671875 393.613281 269.683594 393.625 269.730469 393.625 Z M 269.730469 393.625 "/><path style=" stroke:none;fill-rule:nonzero;fill:#000000;fill-opacity:1;" d="M 285.644531 393.625 C 285.6875 393.625 285.734375 393.625 285.777344 393.625 C 285.820312 393.625 285.859375 393.625 285.902344 393.625 C 285.945312 393.621094 285.957031 393.613281 285.957031 393.570312 C 285.960938 393.511719 285.957031 393.453125 285.960938 393.398438 C 285.964844 393.328125 285.953125 393.261719 285.894531 393.21875 C 285.890625 393.210938 285.886719 393.203125 285.878906 393.199219 C 285.824219 393.125 285.746094 393.121094 285.683594 393.183594 C 285.664062 393.203125 285.648438 393.222656 285.628906 393.242188 C 285.609375 393.261719 285.597656 393.285156 285.597656 393.3125 C 285.597656 393.398438 285.59375 393.488281 285.597656 393.574219 C 285.597656 393.613281 285.609375 393.621094 285.644531 393.625 Z M 285.644531 393.625 "/><path style=" stroke:none;fill-rule:nonzero;fill:#000000;fill-opacity:1;" d="M 271.527344 393.625 C 271.566406 393.625 271.609375 393.625 271.652344 393.625 C 271.691406 393.625 271.730469 393.625 271.773438 393.625 C 271.824219 393.621094 271.832031 393.613281 271.832031 393.5625 C 271.832031 393.496094 271.828125 393.429688 271.832031 393.367188 C 271.84375 393.261719 271.761719 393.21875 271.710938 393.15625 C 271.703125 393.148438 271.6875 393.144531 271.675781 393.144531 C 271.628906 393.140625 271.585938 393.148438 271.550781 393.1875 C 271.535156 393.210938 271.515625 393.226562 271.496094 393.246094 C 271.476562 393.265625 271.46875 393.285156 271.46875 393.3125 C 271.46875 393.398438 271.46875 393.484375 271.46875 393.570312 C 271.472656 393.613281 271.480469 393.621094 271.523438 393.625 Z M 271.527344 393.625 "/><path style=" stroke:none;fill-rule:nonzero;fill:#000000;fill-opacity:1;" d="M 279.835938 393.1875 C 279.816406 393.210938 279.796875 393.226562 279.78125 393.246094 C 279.761719 393.261719 279.753906 393.28125 279.753906 393.304688 C 279.753906 393.394531 279.75 393.484375 279.753906 393.574219 C 279.753906 393.613281 279.765625 393.621094 279.800781 393.625 C 279.84375 393.625 279.886719 393.625 279.929688 393.625 C 279.96875 393.625 280.011719 393.625 280.054688 393.625 C 280.105469 393.625 280.113281 393.613281 280.113281 393.5625 C 280.117188 393.492188 280.113281 393.421875 280.117188 393.355469 C 280.121094 393.253906 280.039062 393.210938 279.988281 393.152344 C 279.980469 393.144531 279.96875 393.144531 279.957031 393.144531 C 279.910156 393.140625 279.867188 393.148438 279.835938 393.1875 Z M 279.835938 393.1875 "/><path style=" stroke:none;fill-rule:nonzero;fill:#000000;fill-opacity:1;" d="M 283.855469 393.625 C 283.894531 393.625 283.9375 393.625 283.980469 393.625 C 284.023438 393.625 284.066406 393.625 284.105469 393.625 C 284.148438 393.621094 284.15625 393.613281 284.160156 393.574219 C 284.160156 393.523438 284.15625 393.472656 284.160156 393.425781 C 284.171875 393.332031 284.144531 393.257812 284.078125 393.191406 C 284.019531 393.132812 283.945312 393.121094 283.886719 393.183594 C 283.863281 393.203125 283.84375 393.226562 283.824219 393.25 C 283.808594 393.269531 283.796875 393.292969 283.796875 393.320312 C 283.796875 393.402344 283.796875 393.488281 283.796875 393.570312 C 283.796875 393.613281 283.808594 393.621094 283.855469 393.625 Z M 283.855469 393.625 "/><path style=" stroke:none;fill-rule:nonzero;fill:#000000;fill-opacity:1;" d="M 282.050781 393.625 C 282.09375 393.625 282.132812 393.625 282.175781 393.625 C 282.21875 393.625 282.261719 393.625 282.304688 393.625 C 282.351562 393.621094 282.359375 393.613281 282.359375 393.566406 C 282.359375 393.484375 282.359375 393.40625 282.359375 393.324219 C 282.359375 393.300781 282.355469 393.28125 282.339844 393.261719 C 282.316406 393.238281 282.296875 393.210938 282.277344 393.1875 C 282.222656 393.128906 282.148438 393.125 282.089844 393.179688 C 282.0625 393.207031 282.039062 393.242188 282.011719 393.273438 C 282 393.285156 282 393.304688 282 393.320312 C 282 393.402344 281.996094 393.488281 282 393.574219 C 282 393.613281 282.007812 393.621094 282.050781 393.625 Z M 282.050781 393.625 "/><path style=" stroke:none;fill-rule:nonzero;fill:#000000;fill-opacity:1;" d="M 281.550781 393.441406 C 281.550781 393.484375 281.550781 393.523438 281.550781 393.566406 C 281.554688 393.613281 281.5625 393.625 281.609375 393.625 C 281.6875 393.625 281.769531 393.625 281.847656 393.625 C 281.902344 393.625 281.910156 393.613281 281.914062 393.558594 C 281.914062 393.496094 281.90625 393.433594 281.914062 393.375 C 281.925781 393.265625 281.84375 393.21875 281.789062 393.152344 C 281.785156 393.148438 281.777344 393.148438 281.769531 393.144531 C 281.71875 393.140625 281.671875 393.140625 281.636719 393.1875 C 281.621094 393.203125 281.601562 393.222656 281.585938 393.238281 C 281.558594 393.261719 281.550781 393.289062 281.550781 393.324219 C 281.550781 393.363281 281.550781 393.402344 281.550781 393.441406 Z M 281.550781 393.441406 "/><path style=" stroke:none;fill-rule:nonzero;fill:#000000;fill-opacity:1;" d="M 273.714844 393.570312 C 273.71875 393.613281 273.726562 393.621094 273.769531 393.625 C 273.8125 393.625 273.855469 393.625 273.894531 393.625 C 273.9375 393.625 273.976562 393.625 274.015625 393.625 C 274.066406 393.625 274.078125 393.613281 274.078125 393.5625 C 274.078125 393.484375 274.078125 393.40625 274.078125 393.328125 C 274.078125 393.300781 274.070312 393.277344 274.050781 393.257812 C 274.03125 393.238281 274.019531 393.214844 274 393.195312 C 273.941406 393.128906 273.863281 393.121094 273.800781 393.1875 C 273.78125 393.207031 273.761719 393.234375 273.742188 393.257812 C 273.722656 393.277344 273.714844 393.300781 273.714844 393.328125 C 273.714844 393.410156 273.714844 393.488281 273.714844 393.570312 Z M 273.714844 393.570312 "/><path style=" stroke:none;fill-rule:nonzero;fill:#000000;fill-opacity:1;" d="M 273.269531 393.441406 C 273.269531 393.484375 273.265625 393.527344 273.269531 393.570312 C 273.269531 393.613281 273.277344 393.625 273.324219 393.625 C 273.40625 393.625 273.488281 393.625 273.570312 393.625 C 273.617188 393.625 273.628906 393.609375 273.628906 393.558594 C 273.632812 393.511719 273.628906 393.460938 273.632812 393.414062 C 273.636719 393.328125 273.625 393.257812 273.554688 393.207031 C 273.546875 393.199219 273.542969 393.191406 273.535156 393.183594 C 273.5 393.136719 273.421875 393.125 273.378906 393.164062 C 273.3125 393.21875 273.246094 393.28125 273.269531 393.382812 C 273.269531 393.402344 273.269531 393.421875 273.269531 393.441406 Z M 273.269531 393.441406 "/><path style=" stroke:none;fill-rule:nonzero;fill:#000000;fill-opacity:1;" d="M 271.96875 393.625 C 272.011719 393.625 272.054688 393.625 272.09375 393.625 C 272.136719 393.625 272.179688 393.625 272.222656 393.625 C 272.269531 393.621094 272.277344 393.613281 272.277344 393.566406 C 272.28125 393.484375 272.277344 393.40625 272.277344 393.324219 C 272.277344 393.304688 272.273438 393.285156 272.261719 393.269531 C 272.238281 393.238281 272.214844 393.210938 272.191406 393.183594 C 272.152344 393.136719 272.101562 393.136719 272.054688 393.148438 C 272.011719 393.15625 271.917969 393.277344 271.917969 393.320312 C 271.914062 393.402344 271.914062 393.488281 271.917969 393.570312 C 271.917969 393.613281 271.925781 393.621094 271.96875 393.625 Z M 271.96875 393.625 "/><path style=" stroke:none;fill-rule:nonzero;fill:#000000;fill-opacity:1;" d="M 283.351562 393.5625 C 283.351562 393.613281 283.359375 393.625 283.40625 393.625 C 283.488281 393.625 283.570312 393.625 283.652344 393.625 C 283.699219 393.625 283.710938 393.613281 283.710938 393.566406 C 283.714844 393.519531 283.710938 393.476562 283.710938 393.429688 C 283.710938 393.277344 283.71875 393.292969 283.628906 393.195312 C 283.566406 393.128906 283.5 393.121094 283.433594 393.191406 C 283.414062 393.207031 283.398438 393.226562 283.382812 393.242188 C 283.359375 393.261719 283.347656 393.289062 283.351562 393.320312 C 283.351562 393.359375 283.351562 393.402344 283.351562 393.441406 C 283.351562 393.480469 283.347656 393.523438 283.351562 393.5625 Z M 283.351562 393.5625 "/><path style=" stroke:none;fill-rule:nonzero;fill:#000000;fill-opacity:1;" d="M 275.066406 393.566406 C 275.070312 393.613281 275.078125 393.621094 275.125 393.625 C 275.167969 393.625 275.207031 393.625 275.246094 393.625 C 275.289062 393.625 275.332031 393.625 275.375 393.625 C 275.414062 393.621094 275.425781 393.609375 275.429688 393.570312 C 275.429688 393.523438 275.429688 393.476562 275.429688 393.433594 C 275.429688 393.265625 275.433594 393.292969 275.34375 393.191406 C 275.285156 393.128906 275.214844 393.125 275.15625 393.183594 C 275.136719 393.203125 275.117188 393.222656 275.097656 393.242188 C 275.078125 393.265625 275.066406 393.289062 275.066406 393.316406 C 275.066406 393.398438 275.066406 393.484375 275.066406 393.566406 Z M 275.066406 393.566406 "/><path style=" stroke:none;fill-rule:nonzero;fill:#000000;fill-opacity:1;" d="M 280.25 393.625 C 280.292969 393.625 280.335938 393.625 280.382812 393.625 C 280.421875 393.625 280.464844 393.625 280.507812 393.625 C 280.550781 393.621094 280.558594 393.613281 280.5625 393.570312 C 280.5625 393.488281 280.5625 393.40625 280.5625 393.324219 C 280.5625 393.300781 280.554688 393.28125 280.542969 393.265625 C 280.519531 393.242188 280.5 393.214844 280.480469 393.191406 C 280.445312 393.144531 280.402344 393.136719 280.351562 393.148438 C 280.300781 393.15625 280.203125 393.265625 280.199219 393.316406 C 280.199219 393.402344 280.199219 393.488281 280.199219 393.574219 C 280.199219 393.613281 280.210938 393.621094 280.25 393.625 Z M 280.25 393.625 "/><path style=" stroke:none;fill-rule:nonzero;fill:#000000;fill-opacity:1;" d="M 270.171875 393.625 C 270.214844 393.625 270.257812 393.625 270.300781 393.625 C 270.339844 393.625 270.378906 393.625 270.421875 393.625 C 270.46875 393.621094 270.480469 393.613281 270.480469 393.566406 C 270.480469 393.488281 270.480469 393.40625 270.480469 393.328125 C 270.480469 393.308594 270.476562 393.285156 270.464844 393.269531 C 270.441406 393.242188 270.417969 393.214844 270.394531 393.183594 C 270.367188 393.148438 270.328125 393.140625 270.285156 393.144531 C 270.226562 393.148438 270.121094 393.261719 270.117188 393.324219 C 270.117188 393.40625 270.117188 393.488281 270.117188 393.570312 C 270.121094 393.613281 270.128906 393.621094 270.171875 393.625 Z M 270.171875 393.625 "/><path style=" stroke:none;fill-rule:nonzero;fill:#000000;fill-opacity:1;" d="M 274.222656 393.625 C 274.261719 393.625 274.300781 393.625 274.339844 393.625 C 274.382812 393.625 274.421875 393.625 274.460938 393.625 C 274.515625 393.625 274.523438 393.617188 274.523438 393.558594 C 274.527344 393.496094 274.519531 393.429688 274.527344 393.367188 C 274.53125 393.308594 274.507812 393.261719 274.46875 393.21875 C 274.453125 393.203125 274.441406 393.183594 274.421875 393.171875 C 274.390625 393.140625 274.328125 393.132812 274.292969 393.15625 C 274.25 393.191406 274.210938 393.234375 274.175781 393.277344 C 274.164062 393.289062 274.164062 393.304688 274.164062 393.316406 C 274.164062 393.402344 274.160156 393.484375 274.164062 393.570312 C 274.164062 393.613281 274.175781 393.621094 274.222656 393.625 Z M 274.222656 393.625 "/><path style=" stroke:none;fill-rule:nonzero;fill:#000000;fill-opacity:1;" d="M 280.703125 393.625 C 280.746094 393.625 280.785156 393.625 280.824219 393.625 C 280.867188 393.625 280.910156 393.625 280.953125 393.625 C 281 393.621094 281.007812 393.613281 281.007812 393.566406 C 281.007812 393.484375 281.007812 393.40625 281.007812 393.324219 C 281.007812 393.304688 281.003906 393.285156 280.992188 393.269531 C 280.964844 393.230469 280.9375 393.195312 280.902344 393.167969 C 280.867188 393.132812 280.800781 393.132812 280.761719 393.167969 C 280.730469 393.195312 280.699219 393.230469 280.667969 393.261719 C 280.65625 393.277344 280.648438 393.296875 280.648438 393.316406 C 280.644531 393.402344 280.644531 393.484375 280.648438 393.570312 C 280.648438 393.613281 280.660156 393.621094 280.703125 393.625 Z M 280.703125 393.625 "/><path style=" stroke:none;fill-rule:nonzero;fill:#000000;fill-opacity:1;" d="M 282.503906 393.625 C 282.542969 393.625 282.582031 393.625 282.621094 393.625 C 282.664062 393.625 282.707031 393.625 282.75 393.625 C 282.796875 393.621094 282.804688 393.613281 282.808594 393.566406 C 282.808594 393.484375 282.808594 393.40625 282.808594 393.324219 C 282.808594 393.304688 282.800781 393.285156 282.789062 393.269531 C 282.765625 393.230469 282.734375 393.195312 282.703125 393.167969 C 282.667969 393.136719 282.601562 393.132812 282.566406 393.160156 C 282.53125 393.195312 282.496094 393.234375 282.460938 393.269531 C 282.449219 393.28125 282.445312 393.300781 282.445312 393.316406 C 282.445312 393.402344 282.445312 393.484375 282.445312 393.570312 C 282.445312 393.613281 282.460938 393.621094 282.503906 393.625 Z M 282.503906 393.625 "/><path style=" stroke:none;fill-rule:nonzero;fill:#000000;fill-opacity:1;" d="M 284.300781 393.625 C 284.34375 393.625 284.382812 393.625 284.425781 393.625 C 284.464844 393.625 284.507812 393.625 284.546875 393.625 C 284.59375 393.621094 284.605469 393.613281 284.605469 393.566406 C 284.605469 393.484375 284.605469 393.40625 284.605469 393.324219 C 284.605469 393.304688 284.601562 393.285156 284.589844 393.269531 C 284.566406 393.242188 284.542969 393.210938 284.515625 393.183594 C 284.492188 393.148438 284.457031 393.140625 284.421875 393.144531 C 284.363281 393.148438 284.246094 393.257812 284.246094 393.316406 C 284.242188 393.402344 284.242188 393.484375 284.246094 393.566406 C 284.246094 393.609375 284.257812 393.621094 284.300781 393.625 Z M 284.300781 393.625 "/><path style=" stroke:none;fill-rule:nonzero;fill:#000000;fill-opacity:1;" d="M 285.148438 393.4375 C 285.148438 393.484375 285.148438 393.53125 285.148438 393.574219 C 285.152344 393.613281 285.160156 393.625 285.195312 393.625 C 285.28125 393.625 285.367188 393.625 285.449219 393.625 C 285.488281 393.625 285.5 393.613281 285.5 393.570312 C 285.5 393.519531 285.496094 393.46875 285.5 393.417969 C 285.511719 393.320312 285.488281 393.242188 285.410156 393.179688 C 285.367188 393.140625 285.296875 393.128906 285.253906 393.167969 C 285.1875 393.226562 285.128906 393.289062 285.148438 393.390625 C 285.152344 393.40625 285.148438 393.421875 285.148438 393.441406 Z M 285.148438 393.4375 "/><path style=" stroke:none;fill-rule:nonzero;fill:#000000;fill-opacity:1;" d="M 269.222656 393.441406 C 269.222656 393.484375 269.222656 393.527344 269.222656 393.570312 C 269.226562 393.613281 269.234375 393.625 269.277344 393.625 C 269.359375 393.625 269.4375 393.625 269.519531 393.625 C 269.566406 393.625 269.574219 393.613281 269.574219 393.5625 C 269.578125 393.515625 269.570312 393.464844 269.578125 393.417969 C 269.585938 393.320312 269.5625 393.242188 269.488281 393.179688 C 269.445312 393.140625 269.375 393.128906 269.332031 393.164062 C 269.265625 393.21875 269.203125 393.28125 269.222656 393.382812 C 269.226562 393.402344 269.222656 393.421875 269.222656 393.441406 Z M 269.222656 393.441406 "/><path style=" stroke:none;fill-rule:nonzero;fill:#000000;fill-opacity:1;" d="M 281.15625 393.625 C 281.238281 393.625 281.320312 393.625 281.402344 393.625 C 281.445312 393.625 281.453125 393.613281 281.457031 393.566406 C 281.457031 393.527344 281.457031 393.484375 281.457031 393.445312 C 281.457031 393.402344 281.457031 393.359375 281.457031 393.316406 C 281.457031 393.289062 281.449219 393.265625 281.429688 393.25 C 281.40625 393.222656 281.378906 393.195312 281.355469 393.171875 C 281.316406 393.132812 281.25 393.132812 281.210938 393.167969 C 281.179688 393.191406 281.152344 393.222656 281.125 393.253906 C 281.109375 393.269531 281.105469 393.289062 281.105469 393.308594 C 281.105469 393.398438 281.101562 393.484375 281.105469 393.574219 C 281.105469 393.613281 281.113281 393.625 281.15625 393.625 Z M 281.15625 393.625 "/><path style=" stroke:none;fill-rule:nonzero;fill:#000000;fill-opacity:1;" d="M 271.023438 393.5625 C 271.023438 393.613281 271.03125 393.625 271.082031 393.625 C 271.160156 393.625 271.238281 393.625 271.316406 393.625 C 271.363281 393.625 271.371094 393.613281 271.375 393.566406 C 271.375 393.484375 271.375 393.398438 271.375 393.316406 C 271.375 393.285156 271.363281 393.261719 271.34375 393.242188 C 271.320312 393.21875 271.300781 393.195312 271.277344 393.171875 C 271.234375 393.132812 271.167969 393.132812 271.125 393.171875 C 271.023438 393.257812 271.023438 393.261719 271.023438 393.394531 L 271.023438 393.4375 C 271.023438 393.480469 271.023438 393.519531 271.023438 393.5625 Z M 271.023438 393.5625 "/><path style=" stroke:none;fill-rule:nonzero;fill:#000000;fill-opacity:1;" d="M 284.703125 393.441406 C 284.703125 393.480469 284.699219 393.519531 284.703125 393.558594 C 284.703125 393.617188 284.710938 393.625 284.765625 393.625 C 284.839844 393.625 284.917969 393.625 284.992188 393.625 C 285.042969 393.625 285.050781 393.613281 285.054688 393.5625 C 285.054688 393.507812 285.054688 393.453125 285.054688 393.398438 C 285.050781 393.253906 285.070312 393.289062 284.960938 393.179688 C 284.910156 393.128906 284.84375 393.128906 284.792969 393.179688 C 284.773438 393.199219 284.753906 393.222656 284.734375 393.242188 C 284.710938 393.261719 284.699219 393.289062 284.703125 393.320312 C 284.703125 393.359375 284.703125 393.402344 284.703125 393.441406 Z M 284.703125 393.441406 "/><path style=" stroke:none;fill-rule:nonzero;fill:#000000;fill-opacity:1;" d="M 272.871094 393.625 C 272.953125 393.625 273.039062 393.625 273.121094 393.625 C 273.164062 393.625 273.171875 393.613281 273.171875 393.570312 C 273.175781 393.527344 273.171875 393.484375 273.171875 393.441406 C 273.171875 393.402344 273.171875 393.359375 273.171875 393.320312 C 273.175781 393.289062 273.164062 393.265625 273.140625 393.242188 C 273.117188 393.21875 273.09375 393.191406 273.070312 393.167969 C 273.035156 393.136719 272.96875 393.132812 272.9375 393.160156 C 272.902344 393.191406 272.871094 393.226562 272.839844 393.257812 C 272.828125 393.269531 272.824219 393.289062 272.820312 393.304688 C 272.820312 393.394531 272.820312 393.484375 272.824219 393.574219 C 272.824219 393.613281 272.832031 393.621094 272.871094 393.625 Z M 272.871094 393.625 "/><path style=" stroke:none;fill-rule:nonzero;fill:#000000;fill-opacity:1;" d="M 274.671875 393.625 C 274.753906 393.625 274.835938 393.625 274.917969 393.625 C 274.960938 393.625 274.96875 393.613281 274.972656 393.566406 C 274.972656 393.527344 274.972656 393.484375 274.972656 393.445312 C 274.972656 393.402344 274.972656 393.359375 274.972656 393.316406 C 274.972656 393.289062 274.964844 393.265625 274.945312 393.25 C 274.921875 393.222656 274.898438 393.195312 274.871094 393.171875 C 274.832031 393.132812 274.765625 393.132812 274.726562 393.167969 C 274.695312 393.191406 274.667969 393.222656 274.640625 393.253906 C 274.625 393.269531 274.621094 393.289062 274.621094 393.308594 C 274.621094 393.398438 274.621094 393.484375 274.621094 393.574219 C 274.621094 393.613281 274.632812 393.625 274.671875 393.625 Z M 274.671875 393.625 "/><path style=" stroke:none;fill-rule:nonzero;fill:#000000;fill-opacity:1;" d="M 282.957031 393.625 C 282.996094 393.625 283.035156 393.625 283.074219 393.625 C 283.117188 393.625 283.15625 393.625 283.195312 393.625 C 283.246094 393.621094 283.253906 393.613281 283.253906 393.566406 C 283.253906 393.488281 283.253906 393.40625 283.253906 393.328125 C 283.253906 393.292969 283.242188 393.261719 283.21875 393.238281 C 283.199219 393.21875 283.179688 393.195312 283.15625 393.171875 C 283.113281 393.132812 283.046875 393.132812 283.003906 393.171875 C 282.976562 393.195312 282.953125 393.222656 282.925781 393.25 C 282.910156 393.265625 282.902344 393.285156 282.902344 393.308594 C 282.902344 393.398438 282.902344 393.484375 282.902344 393.574219 C 282.90625 393.613281 282.914062 393.621094 282.957031 393.625 Z M 282.957031 393.625 "/><path style=" stroke:none;fill-rule:nonzero;fill:#000000;fill-opacity:1;" d="M 270.574219 393.441406 C 270.574219 393.480469 270.574219 393.523438 270.574219 393.5625 C 270.578125 393.613281 270.585938 393.625 270.636719 393.625 C 270.710938 393.625 270.789062 393.625 270.867188 393.625 C 270.917969 393.625 270.925781 393.617188 270.925781 393.558594 C 270.929688 393.484375 270.925781 393.414062 270.929688 393.34375 C 270.929688 393.300781 270.914062 393.265625 270.886719 393.234375 C 270.867188 393.214844 270.847656 393.191406 270.824219 393.171875 C 270.785156 393.132812 270.71875 393.132812 270.679688 393.167969 C 270.613281 393.226562 270.554688 393.289062 270.574219 393.390625 C 270.578125 393.40625 270.574219 393.421875 270.574219 393.441406 Z M 270.574219 393.441406 "/><path style=" stroke:none;fill-rule:nonzero;fill:#000000;fill-opacity:1;" d="M 272.425781 393.625 C 272.464844 393.625 272.507812 393.625 272.546875 393.625 C 272.582031 393.625 272.621094 393.625 272.65625 393.625 C 272.65625 393.625 272.660156 393.625 272.660156 393.625 C 272.71875 393.621094 272.726562 393.617188 272.726562 393.5625 C 272.726562 393.492188 272.722656 393.421875 272.726562 393.351562 C 272.730469 393.300781 272.710938 393.257812 272.675781 393.222656 C 272.660156 393.207031 272.644531 393.1875 272.625 393.171875 C 272.585938 393.132812 272.519531 393.132812 272.476562 393.167969 C 272.449219 393.195312 272.421875 393.222656 272.398438 393.25 C 272.382812 393.265625 272.375 393.285156 272.375 393.308594 C 272.375 393.394531 272.375 393.484375 272.375 393.574219 C 272.375 393.613281 272.386719 393.621094 272.425781 393.625 Z M 272.425781 393.625 "/><path style=" stroke:none;fill-rule:nonzero;fill:#ffdbac;fill-opacity:1;" d="M 659.324219 491.605469 L 602.375 131.421875 C 602.375 131.421875 571.125 107.636719 491.691406 107.636719 C 480.253906 107.636719 469.308594 108.527344 458.761719 109.964844 C 460.246094 99.410156 460.988281 88.359375 460.9375 76.761719 C 460.890625 65.464844 460.097656 53.621094 458.613281 41.328125 L 245.964844 41.328125 C 244.476562 53.621094 243.683594 65.464844 243.636719 76.761719 C 243.585938 88.359375 244.328125 99.410156 245.8125 109.964844 C 235.265625 108.527344 224.320312 107.636719 212.882812 107.636719 C 133.449219 107.636719 102.199219 131.421875 102.199219 131.421875 L 45.25 491.605469 C 57.582031 502.207031 64.167969 515.292969 62.828125 531.695312 C 62.828125 531.695312 99.328125 503.792969 191.242188 503.792969 C 283.152344 503.792969 352.289062 548.992188 352.289062 548.992188 C 352.289062 548.992188 421.421875 503.792969 513.332031 503.792969 C 605.246094 503.792969 641.746094 531.695312 641.746094 531.695312 C 640.40625 515.292969 646.996094 502.207031 659.324219 491.605469 Z M 659.324219 491.605469 "/><path style=" stroke:none;fill-rule:nonzero;fill:#f1c27d;fill-opacity:1;" d="M 352.289062 508.898438 L 352.289062 548.992188 C 352.289062 548.992188 283.152344 503.792969 191.242188 503.792969 C 99.328125 503.792969 62.828125 531.695312 62.828125 531.695312 C 64.167969 515.292969 57.582031 502.207031 45.25 491.605469 C 45.25 491.605469 83.976562 463.703125 181.484375 463.703125 C 278.996094 463.703125 352.289062 508.898438 352.289062 508.898438 Z M 352.289062 508.898438 "/><path style=" stroke:none;fill-rule:nonzero;fill:#e0ac69;fill-opacity:1;" d="M 659.324219 491.605469 C 646.996094 502.207031 640.40625 515.292969 641.746094 531.695312 C 641.746094 531.695312 605.246094 503.792969 513.332031 503.792969 C 421.421875 503.792969 352.289062 548.992188 352.289062 548.992188 L 352.289062 508.898438 C 352.289062 508.898438 425.582031 463.703125 523.089844 463.703125 C 620.597656 463.703125 659.324219 491.605469 659.324219 491.605469 Z M 659.324219 491.605469 "/><path style=" stroke:none;fill-rule:nonzero;fill:#f1c27d;fill-opacity:1;" d="M 460.34375 353.585938 C 459.105469 334.855469 455.691406 317.558594 449.996094 301.75 C 444.695312 286.785156 437.367188 273.105469 428.105469 260.765625 C 481.886719 243.421875 539.136719 247.832031 599.15625 269.339844 L 580.089844 165.121094 C 537.003906 148.371094 490.15625 144.457031 447.023438 154.023438 C 452.667969 140.492188 456.582031 125.824219 458.761719 109.964844 C 469.308594 108.527344 480.253906 107.636719 491.691406 107.636719 C 571.125 107.636719 602.375 131.421875 602.375 131.421875 L 659.324219 491.605469 C 659.324219 491.605469 620.597656 463.703125 523.089844 463.703125 C 425.582031 463.703125 352.289062 508.898438 352.289062 508.898438 L 352.289062 406.710938 L 458.613281 406.710938 C 460.097656 394.421875 460.890625 382.578125 460.9375 371.28125 C 460.9375 365.234375 460.789062 359.335938 460.34375 353.585938 Z M 460.34375 353.585938 "/><path style=" stroke:none;fill-rule:nonzero;fill:#20bab6;fill-opacity:1;" d="M 580.089844 165.121094 L 599.15625 269.339844 C 539.136719 247.832031 481.886719 243.421875 428.105469 260.765625 C 417.65625 246.84375 404.730469 234.601562 389.28125 223.996094 C 415.972656 205.710938 435.238281 182.417969 447.023438 154.023438 C 490.15625 144.457031 537.003906 148.371094 580.089844 165.121094 Z M 580.089844 165.121094 "/><path style=" stroke:none;fill-rule:nonzero;fill:#e7f2f1;fill-opacity:1;" d="M 460.9375 76.761719 C 460.988281 88.359375 460.246094 99.410156 458.761719 109.964844 C 456.582031 125.824219 452.667969 140.492188 447.023438 154.023438 C 435.238281 182.417969 415.972656 205.710938 389.28125 223.996094 C 404.730469 234.601562 417.65625 246.84375 428.105469 260.765625 C 437.367188 273.105469 444.695312 286.785156 449.996094 301.75 C 455.691406 317.558594 459.105469 334.855469 460.34375 353.585938 C 410.625 339.316406 374.621094 267.953125 351.691406 267.953125 C 328.8125 267.953125 285.234375 335.796875 244.578125 348.828125 C 246.0625 331.882812 249.378906 316.222656 254.578125 301.75 C 259.878906 286.785156 267.207031 273.105469 276.46875 260.765625 C 286.917969 246.84375 299.84375 234.601562 315.292969 223.996094 C 288.601562 205.710938 269.335938 182.417969 257.550781 154.023438 C 251.90625 140.492188 247.992188 125.824219 245.8125 109.964844 C 244.328125 99.410156 243.585938 88.359375 243.636719 76.761719 Z M 351.691406 219.238281 C 383.683594 207.046875 406.367188 187.472656 417.011719 158.285156 C 372.839844 170.625 329.308594 170.625 286.421875 158.285156 C 297.070312 187.472656 319.75 207.046875 351.691406 219.238281 Z M 351.691406 219.238281 "/><path style=" stroke:none;fill-rule:nonzero;fill:#f69552;fill-opacity:1;" d="M 460.34375 353.585938 C 460.789062 359.335938 460.9375 365.234375 460.9375 371.28125 L 243.636719 371.28125 C 243.636719 363.546875 243.933594 356.066406 244.578125 348.828125 C 285.234375 335.796875 328.8125 267.953125 351.691406 267.953125 C 374.621094 267.953125 410.625 339.316406 460.34375 353.585938 Z M 460.34375 353.585938 "/><path style=" stroke:none;fill-rule:nonzero;fill:#ad6a6a;fill-opacity:1;" d="M 460.9375 76.761719 L 243.636719 76.761719 C 243.683594 65.464844 244.476562 53.621094 245.964844 41.328125 L 458.613281 41.328125 C 460.097656 53.621094 460.890625 65.464844 460.9375 76.761719 Z M 460.9375 76.761719 "/><path style=" stroke:none;fill-rule:nonzero;fill:#ad6a6a;fill-opacity:1;" d="M 243.636719 371.28125 L 460.9375 371.28125 C 460.890625 382.578125 460.097656 394.421875 458.613281 406.710938 L 245.964844 406.710938 C 245.417969 402.152344 244.972656 397.691406 244.625 393.28125 C 243.980469 385.75 243.683594 378.414062 243.636719 371.28125 Z M 243.636719 371.28125 "/><path style=" stroke:none;fill-rule:nonzero;fill:#f69552;fill-opacity:1;" d="M 417.011719 158.285156 C 406.367188 187.472656 383.683594 207.046875 351.691406 219.238281 C 319.75 207.046875 297.070312 187.472656 286.421875 158.285156 C 329.308594 170.625 372.839844 170.625 417.011719 158.285156 Z M 417.011719 158.285156 "/><path style=" stroke:none;fill-rule:nonzero;fill:#3a322b;fill-opacity:1;" d="M 351.714844 224.203125 C 352.3125 224.203125 352.910156 224.101562 353.476562 223.882812 C 388.058594 210.675781 410.992188 189.171875 421.644531 159.972656 C 422.277344 158.222656 421.886719 156.273438 420.625 154.910156 C 419.359375 153.546875 417.4375 152.996094 415.65625 153.507812 C 372.601562 165.5625 329.585938 165.574219 287.800781 153.515625 C 286.015625 153 284.082031 153.535156 282.808594 154.894531 C 281.535156 156.257812 281.140625 158.222656 281.777344 159.972656 C 292.425781 189.175781 315.363281 210.675781 349.945312 223.882812 C 350.519531 224.101562 351.113281 224.203125 351.714844 224.203125 Z M 294.960938 165.667969 C 332.222656 174.761719 370.328125 174.726562 408.503906 165.59375 C 397.902344 187.191406 379.226562 203.074219 351.71875 213.9375 C 324.234375 203.089844 305.566406 187.226562 294.960938 165.667969 Z M 294.960938 165.667969 "/><g clip-rule="nonzero" clip-path="url(#d3ae151f5e)"><path style=" stroke:none;fill-rule:nonzero;fill:#3a322b;fill-opacity:1;" d="M 664.226562 492.085938 C 664.242188 491.925781 664.222656 491.777344 664.222656 491.617188 C 664.222656 491.347656 664.257812 491.078125 664.21875 490.804688 L 607.269531 130.664062 C 607.066406 129.402344 606.390625 128.273438 605.375 127.492188 C 604.042969 126.484375 571.863281 102.695312 491.703125 102.695312 C 482.703125 102.695312 473.519531 103.25 464.316406 104.300781 C 465.28125 95.625 465.761719 86.628906 465.757812 77.324219 C 465.78125 77.125 465.871094 76.949219 465.871094 76.746094 C 465.871094 76.542969 465.78125 76.371094 465.757812 76.175781 C 465.707031 64.792969 465.023438 53.007812 463.53125 40.703125 C 463.226562 38.21875 461.117188 36.347656 458.613281 36.347656 L 245.964844 36.347656 C 243.460938 36.347656 241.347656 38.21875 241.046875 40.703125 C 239.550781 53.007812 238.867188 64.792969 238.816406 76.175781 C 238.792969 76.375 238.703125 76.542969 238.703125 76.746094 C 238.703125 76.949219 238.796875 77.125 238.816406 77.324219 C 238.8125 86.628906 239.292969 95.625 240.257812 104.300781 C 231.058594 103.253906 221.871094 102.695312 212.871094 102.695312 C 132.707031 102.695312 100.53125 126.484375 99.199219 127.492188 C 98.183594 128.265625 97.503906 129.402344 97.308594 130.664062 L 40.355469 490.804688 C 40.3125 491.078125 40.347656 491.347656 40.351562 491.617188 C 40.351562 491.777344 40.332031 491.925781 40.347656 492.085938 C 40.40625 492.648438 40.542969 493.195312 40.792969 493.703125 C 40.847656 493.824219 40.941406 493.917969 41.003906 494.03125 C 41.234375 494.421875 41.503906 494.78125 41.832031 495.097656 C 41.90625 495.171875 41.941406 495.269531 42.019531 495.339844 C 53.847656 505.507812 59.035156 517.273438 57.902344 531.304688 C 57.742188 533.25 58.75 535.105469 60.457031 536.042969 C 62.164062 536.976562 64.277344 536.835938 65.832031 535.65625 C 66.1875 535.382812 102.53125 508.765625 191.253906 508.765625 C 280.53125 508.765625 348.898438 552.71875 349.578125 553.160156 C 349.738281 553.261719 349.921875 553.308594 350.082031 553.390625 C 350.246094 553.476562 350.40625 553.554688 350.578125 553.621094 C 351.132812 553.824219 351.703125 553.960938 352.28125 553.960938 C 352.867188 553.960938 353.4375 553.824219 353.992188 553.613281 C 354.164062 553.550781 354.324219 553.46875 354.484375 553.386719 C 354.65625 553.300781 354.832031 553.257812 354.996094 553.152344 C 355.675781 552.707031 423.910156 508.761719 513.320312 508.761719 C 602.042969 508.761719 638.386719 535.378906 638.734375 535.640625 C 640.292969 536.828125 642.398438 536.992188 644.113281 536.050781 C 645.824219 535.113281 646.832031 533.25 646.671875 531.296875 C 645.539062 517.269531 650.730469 505.503906 662.554688 495.335938 C 662.625 495.277344 662.652344 495.1875 662.71875 495.121094 C 663.074219 494.78125 663.371094 494.398438 663.609375 493.976562 C 663.660156 493.882812 663.738281 493.808594 663.78125 493.714844 C 664.023438 493.210938 664.167969 492.652344 664.226562 492.085938 Z M 491.703125 112.613281 C 558.59375 112.613281 590.691406 129.917969 597.824219 134.363281 L 652.828125 482.191406 C 635.972656 473.832031 595.496094 458.742188 523.105469 458.742188 C 442.125 458.742188 378.46875 488.941406 357.238281 500.390625 L 357.238281 411.660156 L 458.613281 411.660156 C 461.113281 411.660156 463.226562 409.789062 463.53125 407.300781 C 465.023438 394.996094 465.707031 383.210938 465.757812 371.828125 C 465.78125 371.632812 465.871094 371.460938 465.871094 371.257812 C 465.871094 371.054688 465.777344 370.882812 465.757812 370.683594 C 465.757812 364.941406 465.589844 359.300781 465.222656 353.796875 C 465.238281 353.382812 465.238281 352.992188 465.160156 352.601562 C 463.945312 335.722656 460.964844 319.988281 456.273438 305.386719 C 513.828125 292.1875 564.480469 296.613281 606.84375 318.660156 C 607.570312 319.042969 608.351562 319.21875 609.121094 319.21875 C 610.90625 319.21875 612.636719 318.25 613.515625 316.554688 C 614.78125 314.125 613.835938 311.132812 611.40625 309.867188 C 566.625 286.546875 513.324219 281.917969 452.957031 295.984375 C 448.480469 284.390625 442.820312 273.585938 436 263.566406 C 485.191406 249.339844 538.085938 252.722656 597.476562 274 C 598.023438 274.191406 598.585938 274.292969 599.144531 274.292969 C 600.300781 274.292969 601.445312 273.886719 602.351562 273.117188 C 603.695312 271.972656 604.332031 270.1875 604.015625 268.449219 L 584.972656 164.246094 C 584.660156 162.550781 583.496094 161.144531 581.890625 160.519531 C 540.992188 144.589844 496.1875 140.042969 454.722656 147.445312 C 458.398438 137.058594 461.117188 126.035156 462.964844 114.449219 C 472.625 113.25 482.273438 112.613281 491.703125 112.613281 Z M 318.097656 228.09375 C 318.125 228.074219 318.140625 228.050781 318.171875 228.03125 C 318.253906 227.96875 318.324219 227.890625 318.402344 227.828125 C 318.695312 227.589844 318.957031 227.328125 319.1875 227.035156 C 319.28125 226.914062 319.359375 226.796875 319.4375 226.667969 C 319.648438 226.34375 319.8125 226.003906 319.9375 225.640625 C 319.96875 225.5625 320.023438 225.503906 320.042969 225.421875 C 320.054688 225.398438 320.042969 225.367188 320.046875 225.34375 C 320.171875 224.914062 320.25 224.46875 320.25 224.007812 C 320.25 223.882812 320.214844 223.761719 320.207031 223.640625 C 320.195312 223.511719 320.183594 223.390625 320.164062 223.261719 C 320.078125 222.703125 319.929688 222.15625 319.664062 221.660156 C 319.648438 221.636719 319.632812 221.621094 319.617188 221.597656 C 319.355469 221.121094 319 220.710938 318.585938 220.34375 C 318.5 220.265625 318.414062 220.179688 318.320312 220.105469 C 318.242188 220.046875 318.179688 219.96875 318.097656 219.90625 C 273.03125 189.042969 249.867188 142.617188 248.769531 81.691406 L 455.800781 81.691406 C 454.710938 142.613281 431.542969 189.042969 386.472656 219.90625 C 385.125 220.835938 384.320312 222.359375 384.320312 223.996094 C 384.320312 225.632812 385.125 227.164062 386.472656 228.085938 C 426.492188 255.488281 449.304688 295.125 454.679688 346.316406 C 431.136719 336.648438 410.355469 313.886719 393.371094 295.230469 C 376.960938 277.207031 363.996094 262.96875 351.707031 262.96875 C 338.746094 262.96875 323.371094 278.167969 303.902344 297.414062 C 287.183594 313.9375 268.515625 332.398438 250.59375 341.042969 C 256.960938 292.433594 279.480469 254.542969 318.097656 228.09375 Z M 397.8125 224.007812 C 421.554688 206.398438 439.085938 184.472656 450.410156 158.40625 C 490.894531 149.886719 535.1875 153.53125 575.738281 168.769531 L 592.753906 261.882812 C 533.894531 242.257812 479.148438 239.996094 429.808594 255.074219 C 420.800781 243.582031 410.183594 233.183594 397.8125 224.007812 Z M 249.429688 352.332031 C 270.71875 344.136719 291.988281 323.140625 310.867188 304.476562 C 326.574219 288.945312 342.820312 272.890625 351.714844 272.890625 C 359.625 272.890625 372.460938 286.988281 386.054688 301.914062 C 404.777344 322.46875 427.902344 347.808594 455.507812 357.210938 C 455.675781 360.195312 455.75 363.242188 455.804688 366.300781 L 248.777344 366.300781 C 248.859375 361.5625 249.078125 356.902344 249.429688 352.332031 Z M 248.761719 376.214844 L 455.8125 376.214844 C 455.644531 384.484375 455.144531 392.96875 454.195312 401.746094 L 352.335938 401.746094 C 352.320312 401.746094 352.308594 401.738281 352.289062 401.738281 C 352.269531 401.738281 352.257812 401.746094 352.238281 401.746094 L 250.378906 401.746094 C 249.429688 392.96875 248.929688 384.484375 248.761719 376.214844 Z M 454.199219 46.261719 C 455.148438 55.035156 455.644531 63.519531 455.820312 71.792969 L 248.765625 71.792969 C 248.929688 63.519531 249.429688 55.035156 250.378906 46.261719 Z M 106.753906 134.34375 C 113.84375 129.878906 145.617188 112.605469 212.878906 112.605469 C 222.304688 112.605469 231.953125 113.25 241.605469 114.445312 C 243.457031 126.042969 246.175781 137.0625 249.851562 147.460938 C 207.984375 140.101562 159.710938 144.921875 118.855469 160.835938 C 116.304688 161.828125 115.039062 164.695312 116.03125 167.25 C 116.792969 169.210938 118.664062 170.410156 120.648438 170.410156 C 121.246094 170.410156 121.855469 170.304688 122.441406 170.074219 C 163.667969 154.03125 212.703125 149.734375 254.167969 158.417969 C 263.304688 179.4375 276.554688 197.714844 293.773438 213.253906 C 233.484375 199.464844 170.863281 201.441406 111.257812 219.261719 C 108.636719 220.046875 107.148438 222.808594 107.929688 225.429688 C 108.710938 228.050781 111.46875 229.535156 114.089844 228.757812 C 176.230469 210.179688 241.734375 209.300781 304.203125 226.050781 C 292.933594 234.726562 283.125 244.410156 274.765625 255.078125 C 223.183594 239.320312 165.683594 242.496094 103.761719 264.671875 C 101.183594 265.59375 99.84375 268.433594 100.769531 271.003906 C 101.492188 273.03125 103.398438 274.292969 105.429688 274.292969 C 105.984375 274.292969 106.546875 274.195312 107.097656 274 C 166.484375 252.730469 219.390625 249.335938 268.574219 263.566406 C 261.753906 273.585938 256.101562 284.390625 251.617188 295.984375 C 191.25 281.929688 137.953125 286.550781 93.167969 309.867188 C 90.742188 311.132812 89.792969 314.121094 91.058594 316.554688 C 91.9375 318.25 93.667969 319.21875 95.453125 319.21875 C 96.222656 319.21875 97.003906 319.042969 97.734375 318.660156 C 140.097656 296.613281 190.742188 292.179688 248.300781 305.386719 C 244.046875 318.628906 241.167969 332.785156 239.777344 347.898438 C 239.722656 348.179688 239.683594 348.453125 239.679688 348.746094 C 239.050781 355.835938 238.808594 363.183594 238.8125 370.679688 C 238.789062 370.878906 238.699219 371.050781 238.699219 371.253906 C 238.699219 371.457031 238.789062 371.632812 238.8125 371.824219 C 238.835938 376.839844 238.992188 381.945312 239.296875 387.136719 C 177.433594 374.769531 118.15625 382.839844 75.824219 409.710938 C 73.515625 411.175781 72.832031 414.238281 74.292969 416.554688 C 75.234375 418.042969 76.839844 418.855469 78.480469 418.855469 C 79.386719 418.855469 80.304688 418.605469 81.128906 418.085938 C 121.929688 392.175781 179.691406 384.734375 240.066406 397.40625 C 240.367188 400.6875 240.632812 403.945312 241.039062 407.296875 C 241.34375 409.785156 243.453125 411.652344 245.957031 411.652344 L 347.332031 411.652344 L 347.332031 500.375 C 326.101562 488.925781 262.445312 458.726562 181.464844 458.726562 C 109.074219 458.726562 68.597656 473.824219 51.742188 482.179688 Z M 67.746094 522.894531 C 66.71875 511.605469 61.882812 501.449219 53.402344 492.546875 C 66.785156 485.484375 106.554688 468.648438 181.46875 468.648438 C 266.839844 468.648438 334.183594 504.28125 347.335938 511.738281 L 347.335938 540.261719 C 326.75 528.5625 267.019531 498.855469 191.253906 498.855469 C 121.464844 498.855469 83.0625 514.632812 67.746094 522.894531 Z M 636.832031 522.894531 C 621.511719 514.632812 583.109375 498.855469 513.324219 498.855469 C 437.558594 498.855469 377.832031 528.5625 357.246094 540.261719 L 357.246094 511.738281 C 370.378906 504.28125 437.613281 468.648438 523.109375 468.648438 C 598.046875 468.648438 637.808594 485.488281 651.183594 492.546875 C 642.695312 501.449219 637.863281 511.601562 636.832031 522.894531 Z M 636.832031 522.894531 "/></g><path style=" stroke:none;fill-rule:nonzero;fill:#3a322b;fill-opacity:1;" d="M 496.183594 339.03125 C 493.464844 339.335938 491.503906 341.78125 491.804688 344.503906 C 492.109375 347.222656 494.519531 349.171875 497.273438 348.890625 C 538.980469 344.285156 578.664062 351.945312 615.195312 371.671875 C 615.945312 372.078125 616.746094 372.265625 617.542969 372.265625 C 619.304688 372.265625 621.011719 371.324219 621.90625 369.664062 C 623.203125 367.261719 622.308594 364.246094 619.902344 362.953125 C 581.566406 342.253906 539.941406 334.21875 496.183594 339.03125 Z M 496.183594 339.03125 "/><path style=" stroke:none;fill-rule:nonzero;fill:#3a322b;fill-opacity:1;" d="M 531.988281 386.574219 C 531.816406 389.308594 533.886719 391.660156 536.613281 391.839844 C 569.710938 393.964844 599.734375 403.046875 623.441406 418.097656 C 624.265625 418.617188 625.183594 418.863281 626.089844 418.863281 C 627.730469 418.863281 629.335938 418.050781 630.277344 416.566406 C 631.742188 414.25 631.058594 411.1875 628.746094 409.71875 C 603.636719 393.777344 572 384.179688 537.242188 381.949219 C 534.507812 381.878906 532.164062 383.84375 531.988281 386.574219 Z M 531.988281 386.574219 "/><path style=" stroke:none;fill-rule:nonzero;fill:#3a322b;fill-opacity:1;" d="M 87.035156 372.261719 C 87.828125 372.261719 88.636719 372.070312 89.382812 371.664062 C 125.917969 351.945312 165.59375 344.277344 207.304688 348.882812 C 210.050781 349.175781 212.472656 347.21875 212.773438 344.5 C 213.074219 341.777344 211.113281 339.328125 208.394531 339.027344 C 164.652344 334.210938 123.019531 342.238281 84.683594 362.9375 C 82.277344 364.238281 81.378906 367.246094 82.679688 369.648438 C 83.570312 371.320312 85.273438 372.261719 87.035156 372.261719 Z M 87.035156 372.261719 "/></g></svg>