<svg xmlns="http://www.w3.org/2000/svg" xmlns:xlink="http://www.w3.org/1999/xlink" width="500" zoomAndPan="magnify" viewBox="0 0 375 374.999991" height="500" preserveAspectRatio="xMidYMid meet" version="1.2"><defs><clipPath id="8478536826"><path d="M 58.367188 298.828125 L 151.246094 298.828125 L 151.246094 306.59375 L 58.367188 306.59375 Z M 58.367188 298.828125 "/></clipPath><clipPath id="e5ebbba8a7"><path d="M 103 68.109375 L 107 68.109375 L 107 84 L 103 84 Z M 103 68.109375 "/></clipPath><clipPath id="d94e7adf12"><path d="M 83 225 L 122 225 L 122 300 L 83 300 Z M 83 225 "/></clipPath><clipPath id="6ddee78434"><path d="M 72.554688 228.4375 L 110.308594 222.710938 L 121.070312 293.652344 L 83.3125 299.378906 Z M 72.554688 228.4375 "/></clipPath><clipPath id="b869f8990c"><path d="M 91.433594 225.574219 L 121.058594 293.597656 L 83.304688 299.324219 Z M 91.433594 225.574219 "/></clipPath><clipPath id="c05bd28880"><path d="M 150 204 L 198 204 L 198 285 L 150 285 Z M 150 204 "/></clipPath><clipPath id="e63add7da1"><path d="M 133.871094 209.609375 L 180.976562 199.242188 L 197.5 274.3125 L 150.394531 284.679688 Z M 133.871094 209.609375 "/></clipPath><clipPath id="9c7371bdc1"><path d="M 157.425781 204.425781 L 197.476562 274.207031 L 150.371094 284.574219 Z M 157.425781 204.425781 "/></clipPath><clipPath id="f6edd84f8d"><path d="M 137.480469 110.714844 L 178.011719 110.714844 L 178.011719 187.496094 L 137.480469 187.496094 Z M 137.480469 110.714844 "/></clipPath><clipPath id="0be8872d41"><path d="M 157.746094 187.496094 L 137.480469 110.734375 L 178.011719 110.734375 Z M 157.746094 187.496094 "/></clipPath><clipPath id="b21d050e85"><path d="M 91.472656 226.371094 L 116.609375 226.371094 L 116.609375 293.535156 L 91.472656 293.535156 Z M 91.472656 226.371094 "/></clipPath><clipPath id="44d0d7156a"><path d="M 104.042969 293.535156 L 91.472656 226.46875 L 116.609375 226.46875 Z M 104.042969 293.535156 "/></clipPath><clipPath id="e69a64ca81"><path d="M 234.988281 199.242188 L 264.386719 199.242188 L 264.386719 278.394531 L 234.988281 278.394531 Z M 234.988281 199.242188 "/></clipPath><clipPath id="c2dd54ee38"><path d="M 89 225 L 131 225 L 131 298 L 89 298 Z M 89 225 "/></clipPath><clipPath id="08315a86e3"><path d="M 97.066406 223.796875 L 137.488281 228.136719 L 130.007812 297.769531 L 89.585938 293.425781 Z M 97.066406 223.796875 "/></clipPath><clipPath id="c413cde776"><path d="M 117.277344 225.964844 L 130.023438 297.621094 L 89.601562 293.28125 Z M 117.277344 225.964844 "/></clipPath><clipPath id="024f281b4f"><path d="M 299.230469 194.230469 L 332.570312 194.230469 L 332.570312 251.121094 L 299.230469 251.121094 Z M 299.230469 194.230469 "/></clipPath><clipPath id="19f14ae39a"><path d="M 302.699219 195 C 320.925781 222.75 322.125 225 324.148438 228.976562 C 326.773438 234.300781 332.398438 244.5 332.476562 247.949219 C 332.476562 249.300781 331.949219 250.273438 331.351562 250.726562 C 330.75 251.101562 329.625 251.175781 329.023438 250.800781 C 328.351562 250.425781 327.601562 248.925781 327.675781 248.175781 C 327.75 247.5 328.5 246.601562 329.101562 246.375 C 329.699219 246.074219 330.824219 246.074219 331.351562 246.523438 C 332.023438 246.976562 332.699219 248.550781 332.476562 249.300781 C 332.25 250.050781 330.824219 251.023438 330.074219 251.023438 C 329.398438 251.101562 328.800781 250.800781 328.050781 249.976562 C 325.351562 246.976562 321.074219 232.125 316.5 223.425781 C 311.625 214.351562 299.625 200.625 299.324219 196.574219 C 299.25 195.449219 299.773438 194.550781 300.300781 194.324219 C 300.898438 194.023438 302.699219 195 302.699219 195 "/></clipPath><clipPath id="4769b1da29"><path d="M 79.839844 325.632812 L 80.195312 325.632812 L 80.195312 325.914062 L 79.839844 325.914062 Z M 79.839844 325.632812 "/></clipPath><clipPath id="0136532dac"><path d="M 80.175781 325.800781 C 79.5 326.101562 80.101562 325.648438 80.101562 325.648438 "/></clipPath><clipPath id="df4d9b1ac4"><path d="M 66.246094 331.410156 L 69.839844 331.410156 L 69.839844 334.460938 L 66.246094 334.460938 Z M 66.246094 331.410156 "/></clipPath><clipPath id="1b2df8a04a"><path d="M 69.824219 332.476562 C 68.25 335.023438 66.675781 334.574219 66.375 334.050781 C 66.074219 333.523438 66.375 331.949219 66.824219 331.574219 C 67.351562 331.199219 69.375 331.726562 69.375 331.726562 "/></clipPath><clipPath id="d7c746b514"><path d="M 143.0625 332.855469 L 145.753906 332.855469 L 145.753906 335.152344 L 143.0625 335.152344 Z M 143.0625 332.855469 "/></clipPath><clipPath id="d18178d3dc"><path d="M 145.726562 333.675781 C 144.523438 335.550781 143.398438 335.25 143.175781 334.800781 C 142.949219 334.425781 143.175781 333.300781 143.550781 333 C 143.851562 332.699219 145.351562 333.074219 145.351562 333.074219 "/></clipPath><clipPath id="f330fc608a"><path d="M 167.183594 298.457031 L 174.171875 298.457031 L 174.171875 321.046875 L 167.183594 321.046875 Z M 167.183594 298.457031 "/></clipPath><clipPath id="0201a345b6"><path d="M 174.148438 300.75 C 170.625 311.699219 172.273438 318 171.148438 319.800781 C 170.625 320.625 169.351562 321.148438 168.75 320.925781 C 168.226562 320.773438 167.550781 319.648438 167.625 319.050781 C 167.625 318.523438 168.074219 317.851562 168.523438 317.625 C 168.976562 317.324219 169.875 317.25 170.25 317.550781 C 170.773438 317.925781 171.300781 319.574219 171 320.175781 C 170.773438 320.699219 169.5 321.074219 168.976562 321 C 168.449219 320.925781 168 320.550781 167.699219 319.800781 C 166.875 318 167.175781 311.324219 167.925781 307.648438 C 168.601562 304.425781 170.023438 300.074219 171.449219 299.023438 C 172.125 298.5 173.101562 298.351562 173.550781 298.648438 C 174 298.949219 174.148438 300.75 174.148438 300.75 "/></clipPath><clipPath id="2bd9d4a43f"><path d="M 63.375 293.535156 L 148.726562 293.535156 L 148.726562 299.375 L 63.375 299.375 Z M 63.375 293.535156 "/></clipPath><clipPath id="3befa8bf5f"><path d="M 210.121094 224.503906 L 234.988281 224.503906 L 234.988281 268.605469 L 210.121094 268.605469 Z M 210.121094 224.503906 "/></clipPath><clipPath id="56f3b5f221"><path d="M 86.925781 139.832031 L 116.277344 139.832031 L 116.277344 214.472656 L 86.925781 214.472656 Z M 86.925781 139.832031 "/></clipPath><clipPath id="ed4d780eb0"><path d="M 101.601562 139.832031 L 116.277344 214.371094 L 86.925781 214.371094 Z M 101.601562 139.832031 "/></clipPath><clipPath id="c934b324e9"><path d="M 89.839844 63.140625 L 124.371094 63.140625 L 124.371094 80.542969 L 89.839844 80.542969 Z M 89.839844 63.140625 "/></clipPath><clipPath id="319a01d653"><path d="M 111.824219 77.550781 C 98.550781 80.476562 96.523438 80.699219 95.101562 80.476562 C 94.125 80.398438 93.074219 80.25 92.699219 79.648438 C 92.175781 78.976562 92.101562 77.25 92.773438 76.199219 C 93.898438 74.398438 97.800781 73.125 101.324219 71.476562 C 106.800781 68.925781 120 62.925781 122.773438 63.226562 C 123.523438 63.300781 123.824219 63.675781 124.050781 64.050781 C 124.273438 64.425781 124.425781 65.101562 124.125 65.550781 C 123.75 66.226562 122.550781 66.601562 120.898438 67.425781 C 116.101562 69.675781 95.476562 78.148438 91.949219 78.675781 C 91.199219 78.75 90.898438 78.824219 90.523438 78.523438 C 90.148438 78.226562 89.773438 77.476562 89.925781 76.949219 C 90.074219 76.050781 91.425781 75.300781 93.074219 74.324219 C 96.976562 71.925781 112.425781 64.273438 115.273438 64.5 C 115.949219 64.574219 116.25 64.949219 116.476562 65.324219 C 116.699219 65.699219 116.773438 66.375 116.476562 66.824219 C 116.023438 67.648438 114.675781 68.175781 112.949219 69.074219 C 109.050781 71.25 95.550781 78 92.625 78 C 91.800781 77.925781 91.273438 77.625 91.050781 77.25 C 90.824219 76.875 90.75 76.125 91.199219 75.523438 C 92.699219 73.351562 107.699219 67.800781 110.398438 67.351562 C 111.148438 67.273438 111.449219 67.273438 111.824219 67.5 C 112.199219 67.726562 112.5 68.324219 112.5 68.699219 C 112.5 69.148438 112.425781 69.523438 111.898438 69.976562 C 110.023438 71.773438 97.199219 77.550781 94.351562 77.699219 C 93.375 77.773438 92.699219 77.550781 92.476562 77.175781 C 92.25 76.726562 92.398438 75.824219 93.074219 75.074219 C 95.398438 72.75 113.324219 67.050781 116.175781 67.425781 C 116.851562 67.574219 117.226562 67.875 117.375 68.25 C 117.601562 68.699219 117.601562 69.300781 117.226562 70.050781 C 116.023438 72 107.851562 77.625 105.449219 78.375 C 104.550781 78.601562 103.726562 78.675781 103.351562 78.300781 C 102.898438 77.851562 102.75 76.199219 103.125 75.75 C 103.5 75.375 105.148438 75.375 105.675781 75.75 C 106.050781 75.976562 106.199219 76.800781 106.125 77.25 C 106.050781 77.773438 105.601562 78.375 105.148438 78.523438 C 104.625 78.675781 103.425781 78.449219 103.050781 78 C 102.75 77.625 102.601562 76.726562 103.050781 75.898438 C 104.175781 73.800781 114.074219 67.273438 116.175781 67.425781 C 116.851562 67.5 117.449219 68.101562 117.523438 68.625 C 117.601562 69.148438 117.300781 69.824219 116.550781 70.425781 C 114.074219 72.601562 97.648438 77.699219 94.351562 77.699219 C 93.375 77.699219 92.699219 77.550781 92.476562 77.175781 C 92.25 76.726562 92.476562 75.824219 93.074219 75.074219 C 95.023438 72.898438 107.851562 67.800781 110.398438 67.351562 C 111.148438 67.273438 111.449219 67.273438 111.824219 67.5 C 112.199219 67.800781 112.574219 68.625 112.5 69.074219 C 112.425781 69.523438 112.125 69.75 111.601562 70.199219 C 109.351562 71.773438 96 77.773438 92.925781 77.851562 C 92.023438 77.925781 91.351562 77.699219 91.050781 77.25 C 90.75 76.875 90.75 76.199219 91.199219 75.523438 C 92.925781 73.050781 111.523438 64.273438 114.898438 64.5 C 115.800781 64.574219 116.476562 65.175781 116.625 65.699219 C 116.773438 66.226562 116.398438 66.824219 115.648438 67.574219 C 113.023438 70.125 95.101562 78.148438 91.949219 78.675781 C 91.273438 78.824219 90.898438 78.824219 90.523438 78.523438 C 90.148438 78.226562 89.851562 77.398438 89.925781 76.949219 C 89.925781 76.5 90.148438 76.273438 90.824219 75.824219 C 93.898438 73.648438 119.023438 62.398438 122.773438 63.226562 C 123.75 63.449219 124.199219 64.199219 124.273438 64.800781 C 124.351562 65.25 124.050781 65.773438 123.300781 66.375 C 120.449219 68.699219 95.851562 76.125 96.074219 76.949219 C 96.226562 77.550781 109.273438 73.574219 111.675781 74.324219 C 112.5 74.625 113.101562 75.300781 113.175781 75.898438 C 113.175781 76.425781 111.824219 77.550781 111.824219 77.550781 "/></clipPath><clipPath id="4bd686cbdc"><path d="M 129.695312 99.671875 L 142.464844 99.671875 L 142.464844 108.109375 L 129.695312 108.109375 Z M 129.695312 99.671875 "/></clipPath><clipPath id="91d5edd69a"><path d="M 129.714844 102.167969 C 129.714844 101.792969 129.789062 101.71875 129.789062 101.640625 C 129.863281 101.492188 129.863281 101.417969 129.9375 101.34375 C 130.011719 101.265625 130.089844 101.191406 130.164062 101.117188 C 130.238281 101.117188 130.3125 101.042969 130.386719 100.96875 C 130.464844 100.96875 130.539062 100.890625 130.6875 100.890625 C 130.761719 100.890625 130.839844 100.890625 130.988281 100.890625 C 131.0625 100.890625 131.136719 100.890625 131.214844 100.890625 C 131.363281 100.96875 131.4375 100.96875 131.511719 101.042969 C 131.589844 101.042969 131.664062 101.117188 131.738281 101.191406 C 131.8125 101.265625 131.964844 101.417969 131.964844 101.417969 C 131.964844 101.417969 132.261719 102.015625 132.488281 102.167969 C 132.714844 102.390625 133.011719 102.46875 133.238281 102.46875 C 133.539062 102.46875 134.0625 102.167969 134.0625 102.09375 C 134.136719 102.09375 134.136719 102.015625 134.136719 102.015625 C 134.136719 102.015625 134.214844 101.941406 134.214844 101.867188 C 134.289062 101.792969 134.363281 101.71875 134.363281 101.71875 C 134.363281 101.71875 134.4375 101.566406 134.511719 101.566406 C 134.511719 101.492188 134.664062 101.417969 134.664062 101.417969 C 134.664062 101.417969 134.738281 101.34375 134.8125 101.34375 C 134.886719 101.191406 134.886719 100.96875 134.964844 100.816406 C 135.113281 100.667969 135.5625 100.59375 135.789062 100.367188 C 135.9375 100.21875 135.9375 100.066406 136.089844 99.917969 C 136.386719 99.765625 137.4375 99.691406 137.738281 99.765625 C 137.8125 99.765625 137.8125 99.917969 137.964844 99.917969 C 138.113281 99.992188 138.488281 99.617188 138.789062 99.691406 C 139.238281 99.765625 139.988281 100.292969 140.289062 100.742188 C 140.664062 101.191406 140.589844 101.941406 140.8125 102.46875 C 141.039062 102.992188 141.5625 103.515625 141.714844 103.816406 C 141.789062 103.890625 141.789062 103.96875 141.863281 103.96875 C 141.863281 104.042969 141.863281 104.042969 141.863281 104.042969 C 141.9375 104.117188 141.9375 104.265625 142.011719 104.417969 C 142.164062 104.566406 142.464844 104.867188 142.464844 105.167969 C 142.464844 105.691406 141.9375 106.742188 141.5625 107.042969 C 141.339844 107.191406 140.964844 107.042969 140.886719 107.117188 C 140.8125 107.117188 140.738281 107.191406 140.738281 107.191406 C 140.738281 107.191406 140.664062 107.191406 140.664062 107.191406 C 140.664062 107.191406 140.589844 107.191406 140.511719 107.191406 C 140.4375 107.265625 140.289062 107.265625 140.289062 107.265625 C 140.289062 107.265625 140.0625 107.265625 140.0625 107.265625 C 140.0625 107.265625 139.988281 107.265625 139.988281 107.265625 C 139.988281 107.265625 139.988281 107.191406 139.988281 107.191406 C 139.988281 107.191406 139.914062 107.191406 139.914062 107.191406 C 139.839844 107.191406 139.839844 107.265625 139.761719 107.265625 C 139.761719 107.265625 139.761719 107.191406 139.6875 107.265625 C 139.539062 107.265625 138.636719 108.09375 138.113281 108.09375 C 137.511719 108.09375 136.839844 107.71875 136.386719 107.34375 C 135.9375 107.042969 135.488281 106.292969 135.414062 106.066406 C 135.339844 105.992188 135.414062 105.84375 135.339844 105.84375 C 135.339844 105.84375 135.1875 105.917969 135.039062 106.066406 C 134.738281 106.21875 133.761719 106.96875 133.6875 106.96875 C 133.6875 106.96875 133.613281 107.042969 133.539062 107.042969 C 133.464844 107.117188 133.386719 107.191406 133.386719 107.191406 C 133.386719 107.191406 133.238281 107.191406 133.164062 107.191406 C 133.089844 107.265625 133.011719 107.265625 133.011719 107.265625 C 133.011719 107.265625 132.863281 107.265625 132.789062 107.265625 C 132.714844 107.34375 132.5625 107.34375 132.5625 107.34375 C 132.5625 107.34375 132.414062 107.265625 132.339844 107.265625 C 132.339844 107.265625 132.1875 107.265625 132.1875 107.265625 C 132.1875 107.265625 132.039062 107.191406 131.964844 107.191406 C 131.886719 107.117188 131.8125 107.117188 131.8125 107.042969 C 131.8125 107.042969 131.664062 106.96875 131.664062 106.96875 C 131.589844 106.890625 131.4375 106.816406 131.4375 106.816406 C 131.4375 106.816406 131.363281 106.742188 131.363281 106.667969 C 131.289062 106.59375 131.289062 106.59375 131.214844 106.515625 C 131.0625 106.441406 130.164062 106.667969 129.9375 106.441406 C 129.714844 106.140625 129.9375 104.941406 130.164062 104.566406 C 130.3125 104.265625 130.914062 104.117188 130.914062 103.96875 C 130.914062 103.816406 130.539062 103.742188 130.386719 103.515625 C 130.164062 103.367188 130.011719 102.917969 129.863281 102.765625 C 129.863281 102.617188 129.789062 102.542969 129.789062 102.46875 C 129.714844 102.390625 129.714844 102.167969 129.714844 102.167969 "/></clipPath><clipPath id="b5940e590b"><path d="M 128.84375 97.914062 L 130.957031 97.914062 L 130.957031 99.746094 L 128.84375 99.746094 Z M 128.84375 97.914062 "/></clipPath><clipPath id="0012178047"><path d="M 130.949219 98.550781 C 130.050781 100.050781 129.148438 99.824219 128.925781 99.449219 C 128.773438 99.148438 128.925781 98.25 129.226562 98.023438 C 129.523438 97.800781 130.726562 98.101562 130.726562 98.101562 "/></clipPath><clipPath id="61ac12fd2b"><path d="M 125.394531 120.371094 L 127.503906 120.371094 L 127.503906 122.203125 L 125.394531 122.203125 Z M 125.394531 120.371094 "/></clipPath><clipPath id="0ab4e002e7"><path d="M 127.5 121.050781 C 126.601562 122.550781 125.699219 122.25 125.476562 121.949219 C 125.324219 121.648438 125.476562 120.675781 125.773438 120.449219 C 126.074219 120.226562 127.273438 120.601562 127.273438 120.601562 "/></clipPath><clipPath id="481207ce4b"><path d="M 125.898438 97.921875 L 131.066406 97.921875 L 131.066406 106.621094 L 125.898438 106.621094 Z M 125.898438 97.921875 "/></clipPath><clipPath id="e9e3fc9684"><path d="M 130.875 99.449219 C 129.898438 105.074219 129.226562 105.601562 128.773438 105.523438 C 128.25 105.449219 127.648438 104.773438 127.425781 104.175781 C 127.125 103.125 127.5 100.199219 128.25 99.449219 C 128.625 99 129.523438 98.925781 129.976562 99.148438 C 130.425781 99.300781 130.726562 99.824219 130.949219 100.351562 C 131.175781 101.101562 131.023438 102.449219 130.726562 103.425781 C 130.5 104.398438 129.976562 105.75 129.300781 106.199219 C 128.773438 106.574219 127.949219 106.574219 127.425781 106.425781 C 127.050781 106.199219 126.675781 105.75 126.523438 105.148438 C 126.226562 104.023438 126.375 101.101562 127.050781 100.050781 C 127.5 99.375 128.398438 98.773438 129 98.851562 C 129.523438 98.925781 130.351562 99.675781 130.425781 100.199219 C 130.5 100.800781 129.300781 102.148438 129.300781 102.148438 C 129.300781 102.148438 129.898438 100.800781 130.125 100.875 C 130.351562 100.875 130.648438 101.851562 130.574219 102.449219 C 130.5 103.5 129.675781 105.601562 128.851562 106.199219 C 128.324219 106.574219 127.351562 106.726562 126.824219 106.425781 C 126.375 106.125 125.851562 104.699219 126.074219 104.175781 C 126.300781 103.648438 127.800781 103.125 128.398438 103.199219 C 128.773438 103.273438 129.074219 103.648438 129.226562 103.949219 C 129.449219 104.398438 129.523438 105.226562 129.300781 105.601562 C 129.074219 106.050781 128.398438 106.574219 127.949219 106.574219 C 127.425781 106.648438 126.75 106.425781 126.375 106.050781 C 126.074219 105.675781 125.851562 104.925781 126 104.476562 C 126.074219 103.949219 126.601562 103.351562 127.050781 103.199219 C 127.574219 103.050781 128.324219 103.125 128.699219 103.425781 C 129.148438 103.726562 129.449219 104.398438 129.449219 104.925781 C 129.449219 105.375 129.074219 106.050781 128.625 106.351562 C 128.25 106.574219 127.273438 106.648438 126.824219 106.425781 C 126.449219 106.199219 126 105.675781 125.925781 105.074219 C 125.773438 103.800781 128.324219 99.074219 128.101562 98.925781 C 127.949219 98.851562 127.050781 100.050781 127.050781 100.050781 C 127.050781 100.050781 128.023438 98.851562 128.550781 98.851562 C 129.074219 98.773438 129.976562 99.226562 130.273438 99.824219 C 130.726562 100.800781 130.425781 104.476562 129.824219 104.699219 C 129.375 104.925781 127.726562 103.5 127.5 102.824219 C 127.425781 102.375 127.726562 101.550781 128.101562 101.398438 C 128.398438 101.175781 129.148438 102.074219 129.675781 102 C 130.125 101.851562 130.726562 100.648438 130.800781 100.726562 C 131.023438 100.875 129.824219 105.300781 129.074219 105.523438 C 128.625 105.601562 127.726562 104.851562 127.425781 104.175781 C 127.050781 103.050781 127.800781 100.199219 128.398438 99.148438 C 128.851562 98.476562 129.601562 97.800781 129.976562 97.949219 C 130.425781 98.023438 130.875 99.449219 130.875 99.449219 "/></clipPath><clipPath id="2beb0b169b"><path d="M 72.824219 71.886719 L 130.574219 71.886719 L 130.574219 105.410156 L 72.824219 105.410156 Z M 72.824219 71.886719 "/></clipPath><clipPath id="c959b52447"><path d="M 58.480469 53.960938 L 148.304688 53.960938 L 148.304688 113.210938 L 58.480469 113.210938 Z M 58.480469 53.960938 "/></clipPath><clipPath id="66eb5ce5c5"><path d="M 165.347656 50.457031 L 224.503906 50.457031 L 224.503906 79.5 L 165.347656 79.5 Z M 165.347656 50.457031 "/></clipPath><clipPath id="5f84fb2e7b"><path d="M 130.574219 152 L 134 152 L 134 159.324219 L 130.574219 159.324219 Z M 130.574219 152 "/></clipPath><clipPath id="4317d1bf0f"><path d="M 130.574219 88 L 305 88 L 305 134 L 130.574219 134 Z M 130.574219 88 "/></clipPath><clipPath id="981707a5e3"><path d="M 130.574219 62.574219 L 339.824219 62.574219 L 339.824219 159.324219 L 130.574219 159.324219 Z M 130.574219 62.574219 "/></clipPath><clipPath id="1102e3b143"><path d="M 89.675781 139.832031 L 119.027344 139.832031 L 119.027344 214.472656 L 89.675781 214.472656 Z M 89.675781 139.832031 "/></clipPath><clipPath id="7b8f070e00"><path d="M 104.351562 139.832031 L 119.027344 214.371094 L 89.675781 214.371094 Z M 104.351562 139.832031 "/></clipPath><clipPath id="16984aaa2a"><path d="M 149.488281 133.664062 L 179.761719 133.664062 L 179.761719 208.171875 L 149.488281 208.171875 Z M 149.488281 133.664062 "/></clipPath><clipPath id="51b0b65fb2"><path d="M 101.117188 139.832031 L 104.867188 139.832031 L 104.867188 147.226562 L 101.117188 147.226562 Z M 101.117188 139.832031 "/></clipPath><clipPath id="6937dcd26c"><path d="M 70.101562 119.714844 L 74.117188 119.714844 L 74.117188 130.410156 L 70.101562 130.410156 Z M 70.101562 119.714844 "/></clipPath><clipPath id="0d6b580a51"><path d="M 72.109375 119.714844 L 74.117188 130.398438 L 70.101562 130.398438 Z M 72.109375 119.714844 "/></clipPath><clipPath id="9c9249a513"><path d="M 70.101562 129.914062 L 78.132812 129.914062 L 78.132812 133.664062 L 70.101562 133.664062 Z M 70.101562 129.914062 "/></clipPath><clipPath id="c7a4579f94"><path d="M 130.574219 130.398438 L 138.605469 130.398438 L 138.605469 134.148438 L 130.574219 134.148438 Z M 130.574219 130.398438 "/></clipPath><clipPath id="75ddabe184"><path d="M 134.589844 120.058594 L 138.605469 120.058594 L 138.605469 130.753906 L 134.589844 130.753906 Z M 134.589844 120.058594 "/></clipPath><clipPath id="7c0d862498"><path d="M 136.597656 120.058594 L 138.605469 130.742188 L 134.589844 130.742188 Z M 136.597656 120.058594 "/></clipPath><clipPath id="c48c5f72cd"><path d="M 63.375 137.910156 L 148.484375 137.910156 L 148.484375 141.71875 L 63.375 141.71875 Z M 63.375 137.910156 "/></clipPath><clipPath id="13cee7f7f4"><path d="M 63.375 130.398438 L 67.390625 130.398438 L 67.390625 141.097656 L 63.375 141.097656 Z M 63.375 130.398438 "/></clipPath><clipPath id="0210d1f3d2"><path d="M 65.382812 130.398438 L 67.390625 141.085938 L 63.375 141.085938 Z M 65.382812 130.398438 "/></clipPath><clipPath id="2b166abc30"><path d="M 141.605469 128.324219 L 145.621094 128.324219 L 145.621094 139.019531 L 141.605469 139.019531 Z M 141.605469 128.324219 "/></clipPath><clipPath id="95f48b909d"><path d="M 143.613281 128.324219 L 145.621094 139.007812 L 141.605469 139.007812 Z M 143.613281 128.324219 "/></clipPath></defs><g id="19f95094b4"><rect x="0" width="375" y="0" height="374.999991" style="fill:#ffffff;fill-opacity:1;stroke:none;"/><rect x="0" width="375" y="0" height="374.999991" style="fill:#ffffff;fill-opacity:1;stroke:none;"/><path style=" stroke:none;fill-rule:nonzero;fill:#000000;fill-opacity:1;" d="M 126.304688 134.691406 L 83.375 134.691406 L 69.0625 298.472656 L 140.617188 298.472656 L 126.304688 134.691406 "/><path style=" stroke:none;fill-rule:nonzero;fill:#000000;fill-opacity:1;" d="M 133.484375 134.210938 L 76.171875 134.210938 L 76.171875 126.570312 L 133.484375 126.570312 L 133.484375 134.210938 "/><path style=" stroke:none;fill-rule:nonzero;fill:#000000;fill-opacity:1;" d="M 130.679688 126.09375 L 78.976562 126.09375 L 78.976562 122.273438 L 130.679688 122.273438 L 130.679688 126.09375 "/><path style=" stroke:none;fill-rule:nonzero;fill:#000000;fill-opacity:1;" d="M 123.007812 115.789062 L 116.328125 115.789062 L 116.328125 110.222656 C 116.328125 108.378906 117.824219 106.882812 119.667969 106.882812 C 121.511719 106.882812 123.007812 108.378906 123.007812 110.222656 Z M 112.621094 121.558594 L 97.039062 121.558594 L 97.039062 113.769531 C 97.039062 109.46875 100.527344 105.980469 104.828125 105.980469 C 109.132812 105.980469 112.621094 109.46875 112.621094 113.769531 Z M 93.328125 115.789062 L 86.652344 115.789062 L 86.652344 110.222656 C 86.652344 108.378906 88.144531 106.882812 89.992188 106.882812 C 91.832031 106.882812 93.328125 108.378906 93.328125 110.222656 Z M 84.238281 105.007812 L 84.238281 121.792969 L 125.417969 121.792969 L 125.417969 105.007812 L 84.238281 105.007812 "/><g clip-rule="nonzero" clip-path="url(#8478536826)"><path style=" stroke:none;fill-rule:nonzero;fill:#000000;fill-opacity:1;" d="M 146.457031 298.953125 L 63.160156 298.953125 L 58.367188 306.488281 L 58.367188 306.59375 L 151.246094 306.59375 L 151.246094 306.488281 L 146.457031 298.953125 "/></g><path style=" stroke:none;fill-rule:nonzero;fill:#000000;fill-opacity:1;" d="M 135.546875 104.527344 L 126.601562 99.433594 L 126.601562 95.4375 C 126.601562 94.738281 126.246094 94.089844 125.65625 93.71875 L 104.828125 80.535156 L 84.003906 93.71875 C 83.414062 94.089844 83.054688 94.738281 83.054688 95.4375 L 83.054688 99.433594 L 74.109375 104.527344 L 135.546875 104.527344 "/><g clip-rule="nonzero" clip-path="url(#e5ebbba8a7)"><path style=" stroke:none;fill-rule:nonzero;fill:#000000;fill-opacity:1;" d="M 104.828125 68.105469 L 103.449219 83.816406 L 106.207031 83.816406 L 104.828125 68.105469 L 103.449219 83.816406 L 106.207031 83.816406 L 104.828125 68.105469 "/></g><g clip-rule="nonzero" clip-path="url(#d94e7adf12)"><g clip-rule="nonzero" clip-path="url(#6ddee78434)"><g clip-rule="nonzero" clip-path="url(#b869f8990c)"><path style=" stroke:none;fill-rule:nonzero;fill:#ffffff;fill-opacity:1;" d="M 72.554688 228.4375 L 110.308594 222.710938 L 121.070312 293.652344 L 83.3125 299.378906 Z M 72.554688 228.4375 "/></g></g></g><g clip-rule="nonzero" clip-path="url(#c05bd28880)"><g clip-rule="nonzero" clip-path="url(#e63add7da1)"><g clip-rule="nonzero" clip-path="url(#9c7371bdc1)"><path style=" stroke:none;fill-rule:nonzero;fill:#ffffff;fill-opacity:1;" d="M 133.871094 209.609375 L 180.976562 199.242188 L 197.457031 274.128906 L 150.355469 284.496094 Z M 133.871094 209.609375 "/></g></g></g><g clip-rule="nonzero" clip-path="url(#f6edd84f8d)"><g clip-rule="nonzero" clip-path="url(#0be8872d41)"><path style=" stroke:none;fill-rule:nonzero;fill:#ffffff;fill-opacity:1;" d="M 178.011719 187.496094 L 137.480469 187.496094 L 137.480469 110.714844 L 178.011719 110.714844 Z M 178.011719 187.496094 "/></g></g><g clip-rule="nonzero" clip-path="url(#b21d050e85)"><g clip-rule="nonzero" clip-path="url(#44d0d7156a)"><path style=" stroke:none;fill-rule:nonzero;fill:#ffffff;fill-opacity:1;" d="M 116.609375 293.535156 L 91.472656 293.535156 L 91.472656 226.46875 L 116.609375 226.46875 Z M 116.609375 293.535156 "/></g></g><g clip-rule="nonzero" clip-path="url(#e69a64ca81)"><path style=" stroke:none;fill-rule:nonzero;fill:#ffffff;fill-opacity:1;" d="M 234.988281 199.242188 L 264.386719 199.242188 L 264.386719 278.367188 L 234.988281 278.367188 Z M 234.988281 199.242188 "/></g><g clip-rule="nonzero" clip-path="url(#c2dd54ee38)"><g clip-rule="nonzero" clip-path="url(#08315a86e3)"><g clip-rule="nonzero" clip-path="url(#c413cde776)"><path style=" stroke:none;fill-rule:nonzero;fill:#ffffff;fill-opacity:1;" d="M 97.066406 223.796875 L 137.488281 228.136719 L 130.023438 297.609375 L 89.605469 293.269531 Z M 97.066406 223.796875 "/></g></g></g><g clip-rule="nonzero" clip-path="url(#024f281b4f)"><g clip-rule="nonzero" clip-path="url(#19f14ae39a)"><path style=" stroke:none;fill-rule:nonzero;fill:#ffffff;fill-opacity:1;" d="M 296.324219 191.324219 L 335.476562 191.324219 L 335.476562 254.027344 L 296.324219 254.027344 Z M 296.324219 191.324219 "/></g></g><g clip-rule="nonzero" clip-path="url(#4769b1da29)"><g clip-rule="nonzero" clip-path="url(#0136532dac)"><path style=" stroke:none;fill-rule:nonzero;fill:#ffffff;fill-opacity:1;" d="M 76.5 322.648438 L 83.253906 322.648438 L 83.253906 329.175781 L 76.5 329.175781 Z M 76.5 322.648438 "/></g></g><g clip-rule="nonzero" clip-path="url(#df4d9b1ac4)"><g clip-rule="nonzero" clip-path="url(#1b2df8a04a)"><path style=" stroke:none;fill-rule:nonzero;fill:#ffffff;fill-opacity:1;" d="M 63.375 328.574219 L 72.820312 328.574219 L 72.820312 337.875 L 63.375 337.875 Z M 63.375 328.574219 "/></g></g><g clip-rule="nonzero" clip-path="url(#d7c746b514)"><g clip-rule="nonzero" clip-path="url(#d18178d3dc)"><path style=" stroke:none;fill-rule:nonzero;fill:#ffffff;fill-opacity:1;" d="M 140.175781 330 L 148.738281 330 L 148.738281 338.398438 L 140.175781 338.398438 Z M 140.175781 330 "/></g></g><g clip-rule="nonzero" clip-path="url(#f330fc608a)"><g clip-rule="nonzero" clip-path="url(#0201a345b6)"><path style=" stroke:none;fill-rule:nonzero;fill:#ffffff;fill-opacity:1;" d="M 164.625 295.648438 L 177.226562 295.648438 L 177.226562 324 L 164.625 324 Z M 164.625 295.648438 "/></g></g><g clip-rule="nonzero" clip-path="url(#2bd9d4a43f)"><path style=" stroke:none;fill-rule:nonzero;fill:#ffffff;fill-opacity:1;" d="M 63.375 293.535156 L 148.730469 293.535156 L 148.730469 299.375 L 63.375 299.375 Z M 63.375 293.535156 "/></g><g clip-rule="nonzero" clip-path="url(#3befa8bf5f)"><path style=" stroke:none;fill-rule:nonzero;fill:#ffffff;fill-opacity:1;" d="M 210.121094 224.503906 L 234.988281 224.503906 L 234.988281 268.605469 L 210.121094 268.605469 Z M 210.121094 224.503906 "/></g><g clip-rule="nonzero" clip-path="url(#56f3b5f221)"><g clip-rule="nonzero" clip-path="url(#ed4d780eb0)"><path style=" stroke:none;fill-rule:nonzero;fill:#ffffff;fill-opacity:1;" d="M 86.925781 139.832031 L 116.277344 139.832031 L 116.277344 214.359375 L 86.925781 214.359375 Z M 86.925781 139.832031 "/></g></g><g clip-rule="nonzero" clip-path="url(#c934b324e9)"><g clip-rule="nonzero" clip-path="url(#319a01d653)"><path style=" stroke:none;fill-rule:nonzero;fill:#ffffff;fill-opacity:1;" d="M 86.925781 60.226562 L 127.378906 60.226562 L 127.378906 83.550781 L 86.925781 83.550781 Z M 86.925781 60.226562 "/></g></g><g clip-rule="nonzero" clip-path="url(#4bd686cbdc)"><g clip-rule="nonzero" clip-path="url(#91d5edd69a)"><path style=" stroke:none;fill-rule:nonzero;fill:#ffffff;fill-opacity:1;" d="M 126.714844 96.691406 L 145.558594 96.691406 L 145.558594 111.09375 L 126.714844 111.09375 Z M 126.714844 96.691406 "/></g></g><g clip-rule="nonzero" clip-path="url(#b5940e590b)"><g clip-rule="nonzero" clip-path="url(#0012178047)"><path style=" stroke:none;fill-rule:nonzero;fill:#ffffff;fill-opacity:1;" d="M 125.925781 95.023438 L 134.03125 95.023438 L 134.03125 102.976562 L 125.925781 102.976562 Z M 125.925781 95.023438 "/></g></g><g clip-rule="nonzero" clip-path="url(#61ac12fd2b)"><g clip-rule="nonzero" clip-path="url(#0ab4e002e7)"><path style=" stroke:none;fill-rule:nonzero;fill:#ffffff;fill-opacity:1;" d="M 122.476562 117.449219 L 130.582031 117.449219 L 130.582031 125.398438 L 122.476562 125.398438 Z M 122.476562 117.449219 "/></g></g><g clip-rule="nonzero" clip-path="url(#481207ce4b)"><g clip-rule="nonzero" clip-path="url(#e9e3fc9684)"><path style=" stroke:none;fill-rule:nonzero;fill:#ffffff;fill-opacity:1;" d="M 122.925781 94.949219 L 133.949219 94.949219 L 133.949219 109.636719 L 122.925781 109.636719 Z M 122.925781 94.949219 "/></g></g><g clip-rule="nonzero" clip-path="url(#2beb0b169b)"><path style=" stroke:none;fill-rule:nonzero;fill:#ffffff;fill-opacity:1;" d="M 72.824219 71.886719 L 130.574219 71.886719 L 130.574219 105.410156 L 72.824219 105.410156 Z M 72.824219 71.886719 "/></g><path style=" stroke:none;fill-rule:nonzero;fill:#100f0d;fill-opacity:1;" d="M 129.183594 84.933594 L 129.183594 100.050781 C 129.179688 104.511719 118.5625 109.488281 103.335938 109.488281 C 88.105469 109.488281 77.488281 104.511719 77.488281 100.046875 L 77.488281 82.542969 L 106.117188 95.324219 L 129.183594 84.933594 "/><g clip-rule="nonzero" clip-path="url(#c959b52447)"><path style=" stroke:none;fill-rule:nonzero;fill:#100f0d;fill-opacity:1;" d="M 96.859375 74.636719 C 97.492188 74.636719 98.007812 74.121094 98.007812 73.488281 C 98.007812 72.851562 97.492188 72.339844 96.859375 72.339844 L 67.78125 72.339844 C 67.917969 72.554688 68 72.8125 68 73.089844 L 68 74.636719 Z M 58.492188 108.574219 C 59.726562 98.253906 63.742188 93.421875 65.207031 91.96875 L 65.207031 73.089844 C 65.207031 72.8125 65.289062 72.554688 65.425781 72.339844 C 65.675781 71.949219 66.109375 71.6875 66.601562 71.6875 C 66.679688 71.6875 66.75 71.699219 66.820312 71.710938 L 106.15625 53.988281 L 148.476562 72.882812 L 106.113281 91.96875 L 68 74.953125 L 68 91.96875 C 69.464844 93.421875 73.480469 98.253906 74.714844 108.574219 C 74.71875 108.613281 74.722656 108.652344 74.726562 108.695312 C 74.730469 108.90625 74.714844 110.015625 73.667969 111.101562 C 72.335938 112.480469 69.960938 113.183594 66.601562 113.183594 C 63.246094 113.183594 60.871094 112.480469 59.539062 111.101562 C 58.492188 110.015625 58.476562 108.90625 58.480469 108.695312 C 58.484375 108.652344 58.488281 108.613281 58.492188 108.574219 "/></g><g clip-rule="nonzero" clip-path="url(#66eb5ce5c5)"><path style=" stroke:none;fill-rule:nonzero;fill:#ffffff;fill-opacity:1;" d="M 165.347656 50.457031 L 224.453125 50.457031 L 224.453125 79.5 L 165.347656 79.5 Z M 165.347656 50.457031 "/></g><g clip-rule="nonzero" clip-path="url(#5f84fb2e7b)"><path style=" stroke:none;fill-rule:nonzero;fill:#59a6d1;fill-opacity:1;" d="M 113.285156 153.214844 C 112.335938 152.996094 111.382812 152.804688 110.429688 152.605469 L 110.582031 155.617188 C 111.289062 155.734375 111.992188 155.84375 112.699219 155.972656 C 114.15625 156.242188 115.605469 156.550781 117.046875 156.890625 L 118.121094 170.585938 L 119.375 157.476562 C 119.960938 157.636719 120.546875 157.792969 121.128906 157.960938 C 123.875 158.769531 126.609375 159.746094 128.996094 161.191406 C 130.164062 161.914062 131.308594 162.765625 131.949219 163.863281 C 132.320312 164.410156 132.429688 164.96875 132.488281 165.636719 L 132.59375 167.839844 C 132.734375 170.769531 132.902344 173.699219 133.09375 176.628906 C 133.285156 173.699219 133.453125 170.769531 133.59375 167.839844 L 133.699219 165.636719 C 133.71875 164.859375 133.59375 163.917969 133.183594 163.203125 C 132.445312 161.6875 131.207031 160.640625 129.980469 159.71875 C 128.734375 158.808594 127.386719 158.09375 126.027344 157.445312 C 124.664062 156.785156 123.269531 156.234375 121.867188 155.710938 C 119.054688 154.6875 116.171875 153.910156 113.285156 153.214844 "/></g><g clip-rule="nonzero" clip-path="url(#4317d1bf0f)"><path style=" stroke:none;fill-rule:nonzero;fill:#fbb03b;fill-opacity:1;" d="M 304.605469 88.289062 L 122.429688 110.953125 L 304.605469 133.617188 Z M 304.605469 88.289062 "/></g><g clip-rule="nonzero" clip-path="url(#981707a5e3)"><path style=" stroke:none;fill-rule:nonzero;fill:#59a6d1;fill-opacity:1;" d="M 104.339844 113.625 C 99.390625 112.570312 94.386719 111.878906 89.363281 111.476562 L 89.363281 114.269531 C 90.144531 114.320312 90.929688 114.371094 91.710938 114.433594 C 95.949219 114.75 100.164062 115.273438 104.339844 115.988281 L 104.339844 129.585938 C 99.683594 128.679688 94.308594 127.996094 88.460938 127.597656 L 88.460938 99.265625 L 104.339844 99.265625 Z M 84.839844 111.183594 C 82.472656 111.066406 80.101562 110.980469 77.734375 110.953125 C 74.910156 110.949219 72.085938 111.011719 69.261719 111.140625 L 69.261719 113.972656 C 72.078125 113.871094 74.898438 113.828125 77.714844 113.863281 C 80.089844 113.859375 82.464844 113.925781 84.839844 114.027344 L 84.839844 127.390625 C 82.148438 127.265625 79.378906 127.195312 76.542969 127.195312 C 73.746094 127.195312 71.007812 127.265625 68.351562 127.382812 L 68.351562 99.265625 L 84.839844 99.265625 Z M 64.730469 111.421875 C 59.710938 111.800781 54.710938 112.433594 49.757812 113.441406 L 49.757812 115.75 L 49.804688 115.742188 C 54.40625 115.027344 59.050781 114.519531 63.710938 114.246094 C 64.050781 114.222656 64.390625 114.207031 64.730469 114.1875 L 64.730469 127.585938 C 58.886719 127.980469 53.511719 128.664062 48.851562 129.5625 L 48.851562 99.265625 L 64.730469 99.265625 Z M 347.378906 429.222656 C 346.445312 429.433594 345.492188 429.605469 344.5625 429.800781 L 341.738281 430.28125 C 337.980469 430.902344 334.207031 431.292969 330.457031 431.585938 C 328.585938 431.753906 326.691406 431.796875 324.828125 431.921875 C 322.953125 431.980469 321.089844 432.058594 319.214844 432.058594 C 315.476562 432.070312 311.757812 432.070312 308.035156 431.847656 L 305.253906 431.726562 L 302.472656 431.539062 L 299.699219 431.34375 C 298.777344 431.273438 297.851562 431.164062 296.929688 431.074219 C 293.242188 430.742188 289.558594 430.324219 285.898438 429.824219 C 278.574219 428.835938 271.292969 427.488281 264.0625 425.996094 L 258.648438 424.835938 L 253.253906 423.546875 L 250.5625 422.90625 L 247.878906 422.203125 L 242.515625 420.8125 C 235.382812 418.808594 228.285156 416.757812 221.234375 414.433594 L 215.945312 412.71875 L 210.683594 410.890625 L 205.421875 409.066406 L 200.191406 407.128906 C 198.449219 406.480469 196.691406 405.882812 194.953125 405.207031 L 189.75 403.171875 L 184.484375 401.164062 L 178.824219 399.050781 C 164.585938 393.820312 149.757812 389.835938 134.59375 387.46875 L 126.785156 312.453125 L 138.605469 282.398438 L 123.65625 282.398438 L 114.5 194.410156 C 125.917969 191.8125 133.09375 188.058594 133.09375 183.882812 C 133.09375 179.070312 123.550781 174.820312 108.960938 172.25 L 108.960938 146.574219 C 116.988281 144.519531 121.941406 141.703125 121.941406 138.59375 C 121.941406 135.300781 116.359375 132.328125 107.441406 130.246094 L 107.441406 99.339844 L 122.429688 99.339844 C 122.429688 99.339844 112.925781 81.859375 86.121094 75.503906 C 86.746094 74.621094 87.105469 73.640625 87.105469 72.597656 C 87.105469 69.839844 84.632812 67.464844 81.085938 66.402344 L 76.597656 27.265625 L 72.105469 66.402344 C 68.558594 67.464844 66.082031 69.839844 66.082031 72.597656 C 66.082031 73.640625 66.445312 74.621094 67.074219 75.503906 C 40.265625 81.859375 30.761719 99.339844 30.761719 99.339844 L 45.75 99.339844 L 45.75 114.359375 C 42.332031 115.226562 38.957031 116.332031 35.773438 117.984375 C 34.710938 118.570312 33.667969 119.21875 32.738281 120.046875 C 32.28125 120.476562 31.835938 120.925781 31.488281 121.472656 C 31.109375 121.988281 30.867188 122.640625 30.785156 123.292969 L 30.761719 123.792969 L 30.78125 124.234375 L 30.828125 125.117188 L 30.921875 126.878906 L 31.140625 130.410156 L 31.363281 126.878906 L 31.453125 125.117188 L 31.523438 123.792969 L 31.585938 123.417969 C 31.808594 122.410156 32.589844 121.582031 33.460938 120.917969 C 34.347656 120.253906 35.367188 119.726562 36.40625 119.269531 C 37.835938 118.625 39.332031 118.125 40.855469 117.6875 L 42.308594 127.921875 L 42.878906 117.144531 C 42.910156 117.132812 42.941406 117.125 42.972656 117.117188 C 43.894531 116.894531 44.820312 116.691406 45.75 116.496094 L 45.75 130.222656 C 36.769531 132.304688 31.140625 135.285156 31.140625 138.59375 C 31.140625 141.707031 36.113281 144.527344 44.164062 146.585938 L 44.164062 152.351562 C 43.675781 152.445312 43.1875 152.527344 42.703125 152.628906 C 36.90625 153.863281 31.109375 155.414062 25.738281 158.203125 C 24.414062 158.929688 23.113281 159.738281 21.953125 160.777344 C 21.386719 161.308594 20.828125 161.863281 20.394531 162.546875 C 19.925781 163.195312 19.625 164 19.523438 164.816406 L 19.492188 165.441406 L 19.519531 165.992188 L 19.574219 167.089844 L 19.691406 169.289062 L 19.964844 173.683594 L 20.238281 169.289062 L 20.355469 167.089844 L 20.410156 165.992188 L 20.441406 165.441406 L 20.519531 164.96875 C 20.792969 163.71875 21.769531 162.6875 22.851562 161.859375 C 23.957031 161.027344 25.226562 160.371094 26.527344 159.800781 C 28.304688 159 30.167969 158.378906 32.066406 157.835938 L 33.878906 170.585938 L 34.585938 157.15625 C 34.625 157.144531 34.664062 157.132812 34.707031 157.125 C 37.511719 156.4375 40.351562 155.867188 43.21875 155.410156 C 43.53125 155.363281 43.847656 155.320312 44.164062 155.273438 L 44.164062 172.238281 C 29.539062 174.804688 19.964844 179.0625 19.964844 183.882812 C 19.964844 188 26.949219 191.707031 38.097656 194.300781 L 28.925781 282.398438 L 13.980469 282.398438 L 25.800781 312.453125 L 16.484375 401.917969 L 51.253906 196.589844 C 58.863281 197.546875 67.441406 198.085938 76.53125 198.085938 C 78.125 198.085938 79.699219 198.066406 81.261719 198.035156 L 89.59375 385.894531 C 87.351562 386.101562 85.109375 386.347656 82.878906 386.632812 L 76.808594 387.523438 L 70.785156 388.703125 C 68.78125 389.070312 66.804688 389.640625 64.820312 390.109375 C 63.828125 390.351562 62.839844 390.601562 61.855469 390.863281 L 58.925781 391.753906 C 51.109375 394.066406 43.515625 397.050781 36.277344 400.652344 C 29.054688 404.289062 22.179688 408.53125 15.863281 413.421875 C 9.585938 418.332031 3.675781 423.769531 -0.90625 430.175781 C 5.761719 426.101562 12.730469 422.953125 19.734375 420.183594 C 26.777344 417.484375 33.882812 415.238281 41.066406 413.535156 C 55.421875 410.070312 69.949219 408.5625 84.378906 408.628906 C 91.597656 408.730469 98.789062 409.023438 105.953125 409.910156 C 109.535156 410.199219 113.101562 410.867188 116.664062 411.328125 C 118.445312 411.566406 120.21875 411.96875 121.992188 412.277344 C 123.765625 412.617188 125.546875 412.871094 127.3125 413.269531 C 141.457031 416.226562 155.398438 420.371094 169.117188 425.425781 L 174.265625 427.308594 L 179.78125 429.367188 L 185.355469 431.410156 C 187.222656 432.078125 189.109375 432.695312 190.988281 433.324219 L 196.636719 435.183594 C 198.53125 435.777344 200.4375 436.34375 202.339844 436.902344 L 208.0625 438.566406 L 213.84375 440.074219 C 221.539062 442.09375 229.371094 443.675781 237.230469 445.074219 C 245.132812 446.3125 253.050781 447.429688 261.0625 447.921875 C 269.0625 448.457031 277.089844 448.699219 285.125 448.277344 C 287.125 448.222656 289.136719 448.03125 291.136719 447.910156 C 293.136719 447.796875 295.140625 447.597656 297.136719 447.363281 C 298.136719 447.25 299.132812 447.148438 300.128906 447.019531 L 303.113281 446.589844 L 306.089844 446.152344 L 309.054688 445.621094 C 316.949219 444.121094 324.742188 442.125 332.210938 439.21875 C 335.949219 437.8125 339.597656 436.171875 343.113281 434.304688 C 344.859375 433.34375 346.585938 432.375 348.246094 431.285156 C 349.910156 430.214844 351.527344 429.058594 353 427.757812 C 351.140625 428.367188 349.257812 428.8125 347.378906 429.222656 "/></g><path style=" stroke:none;fill-rule:nonzero;fill:#fbb03b;fill-opacity:1;" d="M 258.84375 77.09375 L 138.507812 99.269531 L 255.808594 64.46875 Z M 258.84375 77.09375 "/><path style=" stroke:none;fill-rule:nonzero;fill:#fbb03b;fill-opacity:1;" d="M 277.050781 158.964844 L 138.507812 123.671875 L 279.6875 146.25 Z M 277.050781 158.964844 "/><g clip-rule="nonzero" clip-path="url(#1102e3b143)"><g clip-rule="nonzero" clip-path="url(#7b8f070e00)"><path style=" stroke:none;fill-rule:nonzero;fill:#ffffff;fill-opacity:1;" d="M 89.675781 139.832031 L 119.027344 139.832031 L 119.027344 214.359375 L 89.675781 214.359375 Z M 89.675781 139.832031 "/></g></g><g clip-rule="nonzero" clip-path="url(#16984aaa2a)"><path style=" stroke:none;fill-rule:nonzero;fill:#ffffff;fill-opacity:1;" d="M 149.488281 133.664062 L 179.761719 133.664062 L 179.761719 208.160156 L 149.488281 208.160156 Z M 149.488281 133.664062 "/></g><g clip-rule="nonzero" clip-path="url(#51b0b65fb2)"><path style=" stroke:none;fill-rule:nonzero;fill:#ffffff;fill-opacity:1;" d="M 101.117188 139.832031 L 104.867188 139.832031 L 104.867188 147.230469 L 101.117188 147.230469 Z M 101.117188 139.832031 "/></g><g clip-rule="nonzero" clip-path="url(#6937dcd26c)"><g clip-rule="nonzero" clip-path="url(#0d6b580a51)"><path style=" stroke:none;fill-rule:nonzero;fill:#000000;fill-opacity:1;" d="M 70.101562 119.714844 L 74.117188 119.714844 L 74.117188 130.394531 L 70.101562 130.394531 Z M 70.101562 119.714844 "/></g></g><g clip-rule="nonzero" clip-path="url(#9c9249a513)"><path style=" stroke:none;fill-rule:nonzero;fill:#000000;fill-opacity:1;" d="M 70.101562 129.914062 L 78.128906 129.914062 L 78.128906 133.664062 L 70.101562 133.664062 Z M 70.101562 129.914062 "/></g><g clip-rule="nonzero" clip-path="url(#c7a4579f94)"><path style=" stroke:none;fill-rule:nonzero;fill:#000000;fill-opacity:1;" d="M 130.574219 130.398438 L 138.601562 130.398438 L 138.601562 134.148438 L 130.574219 134.148438 Z M 130.574219 130.398438 "/></g><g clip-rule="nonzero" clip-path="url(#75ddabe184)"><g clip-rule="nonzero" clip-path="url(#7c0d862498)"><path style=" stroke:none;fill-rule:nonzero;fill:#000000;fill-opacity:1;" d="M 134.589844 120.058594 L 138.605469 120.058594 L 138.605469 130.738281 L 134.589844 130.738281 Z M 134.589844 120.058594 "/></g></g><g clip-rule="nonzero" clip-path="url(#c48c5f72cd)"><path style=" stroke:none;fill-rule:nonzero;fill:#000000;fill-opacity:1;" d="M 63.375 137.910156 L 148.476562 137.910156 L 148.476562 141.71875 L 63.375 141.71875 Z M 63.375 137.910156 "/></g><g style="fill:#000000;fill-opacity:1;"><g transform="translate(157.751068, 251.504691)"><path style="stroke:none" d="M 5.59375 0 L 5.59375 -38.765625 L 14.9375 -38.765625 L 14.9375 -33.5625 L 15.671875 -33.421875 C 16.941406 -35.503906 18.425781 -37.035156 20.125 -38.015625 C 21.820312 -39.003906 23.992188 -39.5 26.640625 -39.5 C 29.566406 -39.5 31.921875 -38.914062 33.703125 -37.75 C 35.484375 -36.59375 36.78125 -34.90625 37.59375 -32.6875 L 38.34375 -32.6875 C 39.53125 -35 41.066406 -36.710938 42.953125 -37.828125 C 44.835938 -38.941406 47.1875 -39.5 50 -39.5 C 58.039062 -39.5 62.0625 -35.023438 62.0625 -26.078125 L 62.0625 0 L 52.328125 0 L 52.328125 -24.84375 C 52.328125 -27.113281 51.878906 -28.753906 50.984375 -29.765625 C 50.097656 -30.773438 48.671875 -31.28125 46.703125 -31.28125 C 41.359375 -31.28125 38.6875 -27.707031 38.6875 -20.5625 L 38.6875 0 L 28.953125 0 L 28.953125 -24.84375 C 28.953125 -27.113281 28.5 -28.753906 27.59375 -29.765625 C 26.695312 -30.773438 25.265625 -31.28125 23.296875 -31.28125 C 20.785156 -31.28125 18.828125 -30.441406 17.421875 -28.765625 C 16.023438 -27.085938 15.328125 -24.421875 15.328125 -20.765625 L 15.328125 0 Z M 5.59375 0 "/></g></g><g style="fill:#000000;fill-opacity:1;"><g transform="translate(224.785517, 251.504691)"><path style="stroke:none" d="M 15.109375 0.734375 C 12.628906 0.734375 10.472656 0.28125 8.640625 -0.625 C 6.816406 -1.539062 5.410156 -2.882812 4.421875 -4.65625 C 3.441406 -6.425781 2.953125 -8.550781 2.953125 -11.03125 C 2.953125 -13.332031 3.441406 -15.257812 4.421875 -16.8125 C 5.410156 -18.375 6.9375 -19.648438 9 -20.640625 C 11.0625 -21.640625 13.753906 -22.410156 17.078125 -22.953125 C 19.398438 -23.328125 21.160156 -23.734375 22.359375 -24.171875 C 23.566406 -24.617188 24.378906 -25.125 24.796875 -25.6875 C 25.222656 -26.25 25.4375 -26.960938 25.4375 -27.828125 C 25.4375 -29.066406 25.003906 -30.015625 24.140625 -30.671875 C 23.273438 -31.328125 21.832031 -31.65625 19.8125 -31.65625 C 17.664062 -31.65625 15.617188 -31.175781 13.671875 -30.21875 C 11.722656 -29.257812 10.035156 -27.992188 8.609375 -26.421875 L 7.90625 -26.421875 L 3.828125 -32.578125 C 5.796875 -34.753906 8.195312 -36.453125 11.03125 -37.671875 C 13.863281 -38.890625 16.957031 -39.5 20.3125 -39.5 C 25.4375 -39.5 29.144531 -38.410156 31.4375 -36.234375 C 33.738281 -34.054688 34.890625 -30.960938 34.890625 -26.953125 L 34.890625 -10.125 C 34.890625 -8.382812 35.648438 -7.515625 37.171875 -7.515625 C 37.765625 -7.515625 38.34375 -7.625 38.90625 -7.84375 L 39.390625 -7.703125 L 40.09375 -0.90625 C 39.550781 -0.5625 38.800781 -0.273438 37.84375 -0.046875 C 36.882812 0.171875 35.832031 0.28125 34.6875 0.28125 C 32.363281 0.28125 30.550781 -0.160156 29.25 -1.046875 C 27.945312 -1.941406 27.019531 -3.335938 26.46875 -5.234375 L 25.71875 -5.3125 C 23.820312 -1.28125 20.285156 0.734375 15.109375 0.734375 Z M 18.203125 -6.53125 C 20.453125 -6.53125 22.25 -7.285156 23.59375 -8.796875 C 24.945312 -10.304688 25.625 -12.410156 25.625 -15.109375 L 25.625 -19.046875 L 24.953125 -19.1875 C 24.367188 -18.71875 23.597656 -18.320312 22.640625 -18 C 21.691406 -17.6875 20.328125 -17.378906 18.546875 -17.078125 C 16.441406 -16.722656 14.925781 -16.117188 14 -15.265625 C 13.070312 -14.410156 12.609375 -13.195312 12.609375 -11.625 C 12.609375 -9.96875 13.097656 -8.703125 14.078125 -7.828125 C 15.066406 -6.960938 16.441406 -6.53125 18.203125 -6.53125 Z M 18.203125 -6.53125 "/></g></g><g style="fill:#000000;fill-opacity:1;"><g transform="translate(265.645614, 251.504691)"><path style="stroke:none" d="M 5.59375 0 L 5.59375 -38.765625 L 15.046875 -38.765625 L 15.046875 -33 L 15.78125 -32.859375 C 16.71875 -35.015625 17.945312 -36.59375 19.46875 -37.59375 C 20.988281 -38.601562 22.835938 -39.109375 25.015625 -39.109375 C 27.222656 -39.109375 28.898438 -38.734375 30.046875 -37.984375 L 28.390625 -29.59375 L 27.65625 -29.453125 C 27.019531 -29.703125 26.410156 -29.882812 25.828125 -30 C 25.242188 -30.125 24.53125 -30.1875 23.6875 -30.1875 C 20.96875 -30.1875 18.894531 -29.226562 17.46875 -27.3125 C 16.039062 -25.40625 15.328125 -22.34375 15.328125 -18.125 L 15.328125 0 Z M 5.59375 0 "/></g></g><g style="fill:#000000;fill-opacity:1;"><g transform="translate(295.298078, 251.504691)"><path style="stroke:none" d="M 15.109375 0.734375 C 12.628906 0.734375 10.472656 0.28125 8.640625 -0.625 C 6.816406 -1.539062 5.410156 -2.882812 4.421875 -4.65625 C 3.441406 -6.425781 2.953125 -8.550781 2.953125 -11.03125 C 2.953125 -13.332031 3.441406 -15.257812 4.421875 -16.8125 C 5.410156 -18.375 6.9375 -19.648438 9 -20.640625 C 11.0625 -21.640625 13.753906 -22.410156 17.078125 -22.953125 C 19.398438 -23.328125 21.160156 -23.734375 22.359375 -24.171875 C 23.566406 -24.617188 24.378906 -25.125 24.796875 -25.6875 C 25.222656 -26.25 25.4375 -26.960938 25.4375 -27.828125 C 25.4375 -29.066406 25.003906 -30.015625 24.140625 -30.671875 C 23.273438 -31.328125 21.832031 -31.65625 19.8125 -31.65625 C 17.664062 -31.65625 15.617188 -31.175781 13.671875 -30.21875 C 11.722656 -29.257812 10.035156 -27.992188 8.609375 -26.421875 L 7.90625 -26.421875 L 3.828125 -32.578125 C 5.796875 -34.753906 8.195312 -36.453125 11.03125 -37.671875 C 13.863281 -38.890625 16.957031 -39.5 20.3125 -39.5 C 25.4375 -39.5 29.144531 -38.410156 31.4375 -36.234375 C 33.738281 -34.054688 34.890625 -30.960938 34.890625 -26.953125 L 34.890625 -10.125 C 34.890625 -8.382812 35.648438 -7.515625 37.171875 -7.515625 C 37.765625 -7.515625 38.34375 -7.625 38.90625 -7.84375 L 39.390625 -7.703125 L 40.09375 -0.90625 C 39.550781 -0.5625 38.800781 -0.273438 37.84375 -0.046875 C 36.882812 0.171875 35.832031 0.28125 34.6875 0.28125 C 32.363281 0.28125 30.550781 -0.160156 29.25 -1.046875 C 27.945312 -1.941406 27.019531 -3.335938 26.46875 -5.234375 L 25.71875 -5.3125 C 23.820312 -1.28125 20.285156 0.734375 15.109375 0.734375 Z M 18.203125 -6.53125 C 20.453125 -6.53125 22.25 -7.285156 23.59375 -8.796875 C 24.945312 -10.304688 25.625 -12.410156 25.625 -15.109375 L 25.625 -19.046875 L 24.953125 -19.1875 C 24.367188 -18.71875 23.597656 -18.320312 22.640625 -18 C 21.691406 -17.6875 20.328125 -17.378906 18.546875 -17.078125 C 16.441406 -16.722656 14.925781 -16.117188 14 -15.265625 C 13.070312 -14.410156 12.609375 -13.195312 12.609375 -11.625 C 12.609375 -9.96875 13.097656 -8.703125 14.078125 -7.828125 C 15.066406 -6.960938 16.441406 -6.53125 18.203125 -6.53125 Z M 18.203125 -6.53125 "/></g></g><g style="fill:#000000;fill-opacity:1;"><g transform="translate(169.483159, 289.337595)"><path style="stroke:none" d="M 5.859375 -21.765625 L 5.859375 -2.109375 L 16.34375 -2.109375 L 16.34375 0 L 3.296875 0 L 3.296875 -21.765625 Z M 5.859375 -21.765625 "/></g><g transform="translate(186.747378, 289.337595)"><path style="stroke:none" d="M 4.078125 -19.59375 C 3.566406 -19.59375 3.148438 -19.753906 2.828125 -20.078125 C 2.503906 -20.398438 2.34375 -20.8125 2.34375 -21.3125 C 2.34375 -21.8125 2.503906 -22.222656 2.828125 -22.546875 C 3.148438 -22.867188 3.566406 -23.03125 4.078125 -23.03125 C 4.597656 -23.03125 5.019531 -22.867188 5.34375 -22.546875 C 5.664062 -22.222656 5.828125 -21.8125 5.828125 -21.3125 C 5.828125 -20.8125 5.664062 -20.398438 5.34375 -20.078125 C 5.019531 -19.753906 4.597656 -19.59375 4.078125 -19.59375 Z M 2.859375 0 L 2.859375 -16.421875 L 5.28125 -16.421875 L 5.28125 0 Z M 2.859375 0 "/></g><g transform="translate(194.895375, 289.337595)"><path style="stroke:none" d="M 8.453125 6.96875 C 5.867188 6.96875 3.976562 6.535156 2.78125 5.671875 C 1.59375 4.804688 1 3.660156 1 2.234375 C 1 1.304688 1.273438 0.566406 1.828125 0.015625 C 2.390625 -0.523438 3.203125 -0.910156 4.265625 -1.140625 L 4.265625 -1.453125 C 3.753906 -1.742188 3.367188 -2.082031 3.109375 -2.46875 C 2.859375 -2.851562 2.734375 -3.316406 2.734375 -3.859375 C 2.734375 -4.492188 2.9375 -5.007812 3.34375 -5.40625 C 3.75 -5.800781 4.347656 -6.101562 5.140625 -6.3125 L 5.140625 -6.625 C 3.347656 -7.570312 2.453125 -9.109375 2.453125 -11.234375 C 2.453125 -12.304688 2.695312 -13.257812 3.1875 -14.09375 C 3.675781 -14.925781 4.367188 -15.570312 5.265625 -16.03125 C 6.171875 -16.5 7.222656 -16.734375 8.421875 -16.734375 C 9.804688 -16.734375 10.960938 -16.429688 11.890625 -15.828125 C 12.234375 -16.210938 12.488281 -16.625 12.65625 -17.0625 C 12.832031 -17.507812 12.945312 -18.015625 13 -18.578125 L 13.3125 -18.765625 L 15.3125 -18.28125 C 15.207031 -17.445312 14.953125 -16.742188 14.546875 -16.171875 C 14.148438 -15.597656 13.585938 -15.125 12.859375 -14.75 L 12.859375 -14.4375 C 13.378906 -14.019531 13.765625 -13.53125 14.015625 -12.96875 C 14.273438 -12.40625 14.40625 -11.75 14.40625 -11 C 14.40625 -9.96875 14.15625 -9.039062 13.65625 -8.21875 C 13.15625 -7.394531 12.453125 -6.742188 11.546875 -6.265625 C 10.648438 -5.796875 9.609375 -5.5625 8.421875 -5.5625 C 8.285156 -5.5625 8.039062 -5.570312 7.6875 -5.59375 C 7.289062 -5.613281 7 -5.625 6.8125 -5.625 C 6.289062 -5.625 5.875 -5.488281 5.5625 -5.21875 C 5.257812 -4.957031 5.109375 -4.617188 5.109375 -4.203125 C 5.109375 -3.679688 5.273438 -3.300781 5.609375 -3.0625 C 5.941406 -2.820312 6.488281 -2.6875 7.25 -2.65625 L 11.140625 -2.515625 C 12.816406 -2.453125 14.054688 -2.0625 14.859375 -1.34375 C 15.671875 -0.625 16.078125 0.394531 16.078125 1.71875 C 16.078125 2.695312 15.8125 3.582031 15.28125 4.375 C 14.757812 5.164062 13.925781 5.796875 12.78125 6.265625 C 11.644531 6.734375 10.203125 6.96875 8.453125 6.96875 Z M 8.421875 -7.65625 C 9.585938 -7.65625 10.488281 -7.957031 11.125 -8.5625 C 11.757812 -9.164062 12.078125 -10.015625 12.078125 -11.109375 C 12.078125 -12.242188 11.757812 -13.117188 11.125 -13.734375 C 10.5 -14.347656 9.597656 -14.65625 8.421875 -14.65625 C 7.253906 -14.65625 6.363281 -14.347656 5.75 -13.734375 C 5.132812 -13.128906 4.828125 -12.253906 4.828125 -11.109375 C 4.828125 -10.003906 5.132812 -9.148438 5.75 -8.546875 C 6.363281 -7.953125 7.253906 -7.65625 8.421875 -7.65625 Z M 8.453125 4.890625 C 9.671875 4.890625 10.660156 4.753906 11.421875 4.484375 C 12.191406 4.210938 12.742188 3.851562 13.078125 3.40625 C 13.421875 2.96875 13.59375 2.476562 13.59375 1.9375 C 13.59375 1.445312 13.5 1.050781 13.3125 0.75 C 13.132812 0.457031 12.84375 0.234375 12.4375 0.078125 C 12.03125 -0.0664062 11.472656 -0.15625 10.765625 -0.1875 L 7.09375 -0.375 L 6.5625 -0.375 C 4.507812 -0.34375 3.484375 0.457031 3.484375 2.03125 C 3.484375 3.9375 5.140625 4.890625 8.453125 4.890625 Z M 8.453125 4.890625 "/></g><g transform="translate(211.727616, 289.337595)"><path style="stroke:none" d="M 2.859375 0 L 2.859375 -23.03125 L 5.28125 -23.03125 L 5.28125 -14.09375 L 5.59375 -14.03125 C 6.769531 -15.832031 8.460938 -16.734375 10.671875 -16.734375 C 12.648438 -16.734375 14.082031 -16.226562 14.96875 -15.21875 C 15.863281 -14.21875 16.3125 -12.671875 16.3125 -10.578125 L 16.3125 0 L 13.875 0 L 13.875 -10.515625 C 13.875 -11.503906 13.75 -12.300781 13.5 -12.90625 C 13.25 -13.507812 12.859375 -13.945312 12.328125 -14.21875 C 11.796875 -14.488281 11.097656 -14.625 10.234375 -14.625 C 8.742188 -14.625 7.546875 -14.140625 6.640625 -13.171875 C 5.734375 -12.210938 5.28125 -10.628906 5.28125 -8.421875 L 5.28125 0 Z M 2.859375 0 "/></g></g><g style="fill:#000000;fill-opacity:1;"><g transform="translate(230.526102, 289.337595)"><path style="stroke:none" d="M 11.109375 -2.609375 L 11.890625 -0.859375 C 11.492188 -0.472656 10.976562 -0.179688 10.34375 0.015625 C 9.71875 0.210938 9.039062 0.3125 8.3125 0.3125 C 5.175781 0.3125 3.609375 -1.273438 3.609375 -4.453125 L 3.609375 -14.453125 L 0.75 -14.453125 L 0.75 -16.4375 L 3.609375 -16.4375 L 3.609375 -19.90625 L 6.03125 -20.3125 L 6.03125 -16.4375 L 11.3125 -16.4375 L 11.3125 -14.453125 L 6.03125 -14.453125 L 6.03125 -4.6875 C 6.03125 -2.800781 6.847656 -1.859375 8.484375 -1.859375 C 9.378906 -1.859375 10.148438 -2.109375 10.796875 -2.609375 Z M 11.109375 -2.609375 "/></g><g transform="translate(243.038565, 289.337595)"><path style="stroke:none" d="M 2.859375 0 L 2.859375 -23.03125 L 5.28125 -23.03125 L 5.28125 -14.09375 L 5.59375 -14.03125 C 6.769531 -15.832031 8.460938 -16.734375 10.671875 -16.734375 C 12.648438 -16.734375 14.082031 -16.226562 14.96875 -15.21875 C 15.863281 -14.21875 16.3125 -12.671875 16.3125 -10.578125 L 16.3125 0 L 13.875 0 L 13.875 -10.515625 C 13.875 -11.503906 13.75 -12.300781 13.5 -12.90625 C 13.25 -13.507812 12.859375 -13.945312 12.328125 -14.21875 C 11.796875 -14.488281 11.097656 -14.625 10.234375 -14.625 C 8.742188 -14.625 7.546875 -14.140625 6.640625 -13.171875 C 5.734375 -12.210938 5.28125 -10.628906 5.28125 -8.421875 L 5.28125 0 Z M 2.859375 0 "/></g><g transform="translate(261.956217, 289.337595)"><path style="stroke:none" d="M 9.421875 0.3125 C 7.878906 0.3125 6.53125 -0.015625 5.375 -0.671875 C 4.226562 -1.328125 3.34375 -2.289062 2.71875 -3.5625 C 2.101562 -4.84375 1.796875 -6.390625 1.796875 -8.203125 C 1.796875 -10.023438 2.101562 -11.578125 2.71875 -12.859375 C 3.34375 -14.140625 4.226562 -15.101562 5.375 -15.75 C 6.53125 -16.40625 7.878906 -16.734375 9.421875 -16.734375 C 10.972656 -16.734375 12.320312 -16.40625 13.46875 -15.75 C 14.613281 -15.101562 15.492188 -14.140625 16.109375 -12.859375 C 16.734375 -11.578125 17.046875 -10.023438 17.046875 -8.203125 C 17.046875 -6.390625 16.734375 -4.84375 16.109375 -3.5625 C 15.492188 -2.289062 14.613281 -1.328125 13.46875 -0.671875 C 12.320312 -0.015625 10.972656 0.3125 9.421875 0.3125 Z M 9.421875 -1.859375 C 11.066406 -1.859375 12.320312 -2.375 13.1875 -3.40625 C 14.050781 -4.4375 14.484375 -6.035156 14.484375 -8.203125 C 14.484375 -10.378906 14.050781 -11.984375 13.1875 -13.015625 C 12.320312 -14.046875 11.066406 -14.5625 9.421875 -14.5625 C 7.785156 -14.5625 6.53125 -14.039062 5.65625 -13 C 4.78125 -11.96875 4.34375 -10.367188 4.34375 -8.203125 C 4.34375 -6.035156 4.78125 -4.4375 5.65625 -3.40625 C 6.53125 -2.375 7.785156 -1.859375 9.421875 -1.859375 Z M 9.421875 -1.859375 "/></g><g transform="translate(280.814286, 289.337595)"><path style="stroke:none" d="M 8.109375 0.3125 C 6.253906 0.3125 4.875 -0.175781 3.96875 -1.15625 C 3.0625 -2.144531 2.609375 -3.585938 2.609375 -5.484375 L 2.609375 -16.421875 L 5.03125 -16.421875 L 5.03125 -5.546875 C 5.03125 -3.046875 6.203125 -1.796875 8.546875 -1.796875 C 10.035156 -1.796875 11.210938 -2.28125 12.078125 -3.25 C 12.941406 -4.226562 13.375 -5.8125 13.375 -8 L 13.375 -16.421875 L 15.796875 -16.421875 L 15.796875 0 L 13.5 0 L 13.5 -2.578125 L 13.1875 -2.65625 C 12.625 -1.644531 11.945312 -0.894531 11.15625 -0.40625 C 10.375 0.0703125 9.359375 0.3125 8.109375 0.3125 Z M 8.109375 0.3125 "/></g><g transform="translate(299.478709, 289.337595)"><path style="stroke:none" d="M 7.484375 0.3125 C 6.453125 0.3125 5.5 0.175781 4.625 -0.09375 C 3.75 -0.363281 3.003906 -0.738281 2.390625 -1.21875 C 1.785156 -1.695312 1.359375 -2.234375 1.109375 -2.828125 L 2.546875 -4.3125 L 2.859375 -4.3125 C 3.390625 -3.5 4.03125 -2.882812 4.78125 -2.46875 C 5.539062 -2.0625 6.441406 -1.859375 7.484375 -1.859375 C 8.703125 -1.859375 9.625 -2.09375 10.25 -2.5625 C 10.882812 -3.039062 11.203125 -3.703125 11.203125 -4.546875 C 11.203125 -5.191406 11.007812 -5.722656 10.625 -6.140625 C 10.238281 -6.566406 9.617188 -6.882812 8.765625 -7.09375 L 6 -7.78125 C 4.519531 -8.132812 3.441406 -8.695312 2.765625 -9.46875 C 2.085938 -10.25 1.75 -11.207031 1.75 -12.34375 C 1.75 -13.238281 1.972656 -14.015625 2.421875 -14.671875 C 2.878906 -15.335938 3.535156 -15.847656 4.390625 -16.203125 C 5.253906 -16.554688 6.28125 -16.734375 7.46875 -16.734375 C 8.96875 -16.734375 10.148438 -16.519531 11.015625 -16.09375 C 11.890625 -15.675781 12.570312 -15.09375 13.0625 -14.34375 L 11.6875 -13 L 11.390625 -13 C 10.867188 -13.601562 10.296875 -14.039062 9.671875 -14.3125 C 9.046875 -14.582031 8.3125 -14.71875 7.46875 -14.71875 C 6.382812 -14.71875 5.550781 -14.519531 4.96875 -14.125 C 4.394531 -13.738281 4.109375 -13.179688 4.109375 -12.453125 C 4.109375 -11.785156 4.3125 -11.25 4.71875 -10.84375 C 5.125 -10.4375 5.832031 -10.109375 6.84375 -9.859375 L 9.578125 -9.203125 C 11.003906 -8.867188 12.035156 -8.304688 12.671875 -7.515625 C 13.304688 -6.734375 13.625 -5.753906 13.625 -4.578125 C 13.625 -3.609375 13.394531 -2.753906 12.9375 -2.015625 C 12.476562 -1.285156 11.785156 -0.710938 10.859375 -0.296875 C 9.941406 0.109375 8.816406 0.3125 7.484375 0.3125 Z M 7.484375 0.3125 "/></g><g transform="translate(314.672414, 289.337595)"><path style="stroke:none" d="M 15.65625 -7.65625 L 4.359375 -7.65625 C 4.429688 -5.65625 4.910156 -4.1875 5.796875 -3.25 C 6.691406 -2.320312 7.910156 -1.859375 9.453125 -1.859375 C 10.628906 -1.859375 11.570312 -2.066406 12.28125 -2.484375 C 13 -2.898438 13.5625 -3.554688 13.96875 -4.453125 L 14.28125 -4.453125 L 15.859375 -3.515625 C 15.378906 -2.328125 14.613281 -1.390625 13.5625 -0.703125 C 12.519531 -0.0234375 11.148438 0.3125 9.453125 0.3125 C 7.867188 0.3125 6.503906 0 5.359375 -0.625 C 4.222656 -1.25 3.34375 -2.195312 2.71875 -3.46875 C 2.101562 -4.738281 1.796875 -6.316406 1.796875 -8.203125 C 1.796875 -10.066406 2.117188 -11.640625 2.765625 -12.921875 C 3.421875 -14.203125 4.3125 -15.15625 5.4375 -15.78125 C 6.570312 -16.414062 7.863281 -16.734375 9.3125 -16.734375 C 11.414062 -16.734375 13.054688 -16.140625 14.234375 -14.953125 C 15.421875 -13.773438 16.019531 -12.019531 16.03125 -9.6875 C 16.03125 -8.769531 16.007812 -8.148438 15.96875 -7.828125 Z M 13.625 -9.6875 C 13.582031 -11.425781 13.191406 -12.691406 12.453125 -13.484375 C 11.722656 -14.285156 10.675781 -14.6875 9.3125 -14.6875 C 7.875 -14.6875 6.742188 -14.285156 5.921875 -13.484375 C 5.097656 -12.679688 4.597656 -11.414062 4.421875 -9.6875 Z M 13.625 -9.6875 "/></g></g><g style="fill:#000000;fill-opacity:1;"><g transform="translate(332.224618, 289.337595)"><path style="stroke:none" d=""/></g></g><g clip-rule="nonzero" clip-path="url(#13cee7f7f4)"><g clip-rule="nonzero" clip-path="url(#0210d1f3d2)"><path style=" stroke:none;fill-rule:nonzero;fill:#000000;fill-opacity:1;" d="M 63.375 130.398438 L 67.390625 130.398438 L 67.390625 141.082031 L 63.375 141.082031 Z M 63.375 130.398438 "/></g></g><g clip-rule="nonzero" clip-path="url(#2b166abc30)"><g clip-rule="nonzero" clip-path="url(#95f48b909d)"><path style=" stroke:none;fill-rule:nonzero;fill:#000000;fill-opacity:1;" d="M 141.605469 128.324219 L 145.621094 128.324219 L 145.621094 139.003906 L 141.605469 139.003906 Z M 141.605469 128.324219 "/></g></g></g></svg>