<svg xmlns="http://www.w3.org/2000/svg" xmlns:xlink="http://www.w3.org/1999/xlink" width="1200" zoomAndPan="magnify" viewBox="0 0 900 299.999988" height="400" preserveAspectRatio="xMidYMid meet" version="1.2"><defs><clipPath id="9ca4eeccf3"><path d="M 20.039062 216.199219 L 73.71875 216.199219 L 73.71875 220.683594 L 20.039062 220.683594 Z M 20.039062 216.199219 "/></clipPath><clipPath id="cfcb7ae0e8"><path d="M 46 82.851562 L 48 82.851562 L 48 92 L 46 92 Z M 46 82.851562 "/></clipPath><clipPath id="e2e7cb74a5"><path d="M 34 166 L 57 166 L 57 210 L 34 210 Z M 34 166 "/></clipPath><clipPath id="5dd0de8a0b"><path d="M 28.222656 168.621094 L 50.015625 165.316406 L 56.226562 206.265625 L 34.433594 209.570312 Z M 28.222656 168.621094 "/></clipPath><clipPath id="fd15d9b61f"><path d="M 39.121094 166.96875 L 56.222656 206.230469 L 34.429688 209.535156 Z M 39.121094 166.96875 "/></clipPath><clipPath id="2c5f42f136"><path d="M 73 154 L 101 154 L 101 201 L 73 201 Z M 73 154 "/></clipPath><clipPath id="bd376be83c"><path d="M 63.617188 157.75 L 90.808594 151.765625 L 100.34375 195.101562 L 73.15625 201.085938 Z M 63.617188 157.75 "/></clipPath><clipPath id="18e188ca95"><path d="M 77.210938 154.757812 L 100.332031 195.039062 L 73.140625 201.023438 Z M 77.210938 154.757812 "/></clipPath><clipPath id="9fdc0a2c45"><path d="M 65.703125 100.667969 L 89.097656 100.667969 L 89.097656 144.988281 L 65.703125 144.988281 Z M 65.703125 100.667969 "/></clipPath><clipPath id="77424cf7f5"><path d="M 77.398438 144.988281 L 65.703125 100.679688 L 89.097656 100.679688 Z M 77.398438 144.988281 "/></clipPath><clipPath id="ba550043ec"><path d="M 39.148438 167.425781 L 53.65625 167.425781 L 53.65625 206.191406 L 39.148438 206.191406 Z M 39.148438 167.425781 "/></clipPath><clipPath id="e0d7623660"><path d="M 46.402344 206.191406 L 39.148438 167.480469 L 53.65625 167.480469 Z M 46.402344 206.191406 "/></clipPath><clipPath id="408bfd0c50"><path d="M 38 167 L 62 167 L 62 209 L 38 209 Z M 38 167 "/></clipPath><clipPath id="0c043be8aa"><path d="M 42.371094 165.941406 L 65.703125 168.445312 L 61.386719 208.636719 L 38.054688 206.132812 Z M 42.371094 165.941406 "/></clipPath><clipPath id="916d401118"><path d="M 54.039062 167.191406 L 61.394531 208.554688 L 38.066406 206.046875 Z M 54.039062 167.191406 "/></clipPath><clipPath id="708820a557"><path d="M 32.429688 224.722656 L 32.632812 224.722656 L 32.632812 224.882812 L 32.429688 224.882812 Z M 32.429688 224.722656 "/></clipPath><clipPath id="0db4835cb7"><path d="M 32.621094 224.820312 C 32.234375 224.992188 32.578125 224.734375 32.578125 224.734375 "/></clipPath><clipPath id="9297b8b18f"><path d="M 24.582031 228.054688 L 26.65625 228.054688 L 26.65625 229.816406 L 24.582031 229.816406 Z M 24.582031 228.054688 "/></clipPath><clipPath id="0888298763"><path d="M 26.648438 228.671875 C 25.738281 230.144531 24.832031 229.882812 24.65625 229.582031 C 24.484375 229.277344 24.65625 228.367188 24.917969 228.152344 C 25.21875 227.9375 26.390625 228.238281 26.390625 228.238281 "/></clipPath><clipPath id="7a2d550b96"><path d="M 68.921875 228.890625 L 70.476562 228.890625 L 70.476562 230.21875 L 68.921875 230.21875 Z M 68.921875 228.890625 "/></clipPath><clipPath id="129e1d9bcb"><path d="M 70.460938 229.363281 C 69.765625 230.445312 69.117188 230.273438 68.988281 230.015625 C 68.859375 229.796875 68.988281 229.148438 69.203125 228.976562 C 69.378906 228.800781 70.242188 229.019531 70.242188 229.019531 "/></clipPath><clipPath id="a312b96ef1"><path d="M 22.925781 206.195312 L 72.191406 206.195312 L 72.191406 209.566406 L 22.925781 209.566406 Z M 22.925781 206.195312 "/></clipPath><clipPath id="ce75d2c24c"><path d="M 36.519531 117.472656 L 53.460938 117.472656 L 53.460938 160.558594 L 36.519531 160.558594 Z M 36.519531 117.472656 "/></clipPath><clipPath id="92f95b899a"><path d="M 44.992188 117.472656 L 53.460938 160.5 L 36.519531 160.5 Z M 44.992188 117.472656 "/></clipPath><clipPath id="28eeed2b93"><path d="M 38.203125 73.207031 L 58.132812 73.207031 L 58.132812 83.253906 L 38.203125 83.253906 Z M 38.203125 73.207031 "/></clipPath><clipPath id="df18598e64"><path d="M 50.890625 81.523438 C 43.230469 83.214844 42.058594 83.34375 41.238281 83.214844 C 40.675781 83.167969 40.070312 83.082031 39.851562 82.738281 C 39.550781 82.347656 39.507812 81.351562 39.894531 80.746094 C 40.546875 79.707031 42.796875 78.96875 44.832031 78.019531 C 47.992188 76.546875 55.609375 73.082031 57.210938 73.257812 C 57.644531 73.300781 57.816406 73.515625 57.949219 73.730469 C 58.078125 73.949219 58.164062 74.339844 57.992188 74.597656 C 57.773438 74.988281 57.082031 75.203125 56.128906 75.679688 C 53.359375 76.980469 41.453125 81.871094 39.417969 82.175781 C 38.988281 82.21875 38.8125 82.261719 38.597656 82.085938 C 38.378906 81.914062 38.164062 81.480469 38.25 81.179688 C 38.335938 80.660156 39.117188 80.226562 40.070312 79.664062 C 42.320312 78.277344 51.238281 73.863281 52.882812 73.992188 C 53.273438 74.035156 53.445312 74.25 53.574219 74.46875 C 53.707031 74.683594 53.75 75.074219 53.574219 75.332031 C 53.316406 75.808594 52.535156 76.113281 51.542969 76.632812 C 49.289062 77.886719 41.496094 81.785156 39.808594 81.785156 C 39.332031 81.742188 39.03125 81.566406 38.898438 81.351562 C 38.769531 81.136719 38.726562 80.703125 38.988281 80.355469 C 39.851562 79.101562 48.511719 75.898438 50.070312 75.636719 C 50.503906 75.59375 50.675781 75.59375 50.890625 75.722656 C 51.109375 75.851562 51.28125 76.199219 51.28125 76.417969 C 51.28125 76.675781 51.238281 76.890625 50.933594 77.152344 C 49.851562 78.191406 42.449219 81.523438 40.804688 81.609375 C 40.242188 81.65625 39.851562 81.523438 39.722656 81.308594 C 39.59375 81.046875 39.679688 80.527344 40.070312 80.097656 C 41.410156 78.753906 51.757812 75.464844 53.402344 75.679688 C 53.792969 75.765625 54.007812 75.941406 54.09375 76.15625 C 54.226562 76.417969 54.226562 76.761719 54.007812 77.195312 C 53.316406 78.320312 48.597656 81.566406 47.210938 82 C 46.691406 82.128906 46.214844 82.175781 46 81.957031 C 45.738281 81.699219 45.652344 80.746094 45.871094 80.484375 C 46.085938 80.269531 47.039062 80.269531 47.34375 80.484375 C 47.558594 80.617188 47.644531 81.089844 47.601562 81.351562 C 47.558594 81.65625 47.296875 82 47.039062 82.085938 C 46.734375 82.175781 46.042969 82.042969 45.828125 81.785156 C 45.652344 81.566406 45.566406 81.046875 45.828125 80.570312 C 46.476562 79.359375 52.191406 75.59375 53.402344 75.679688 C 53.792969 75.722656 54.136719 76.070312 54.183594 76.371094 C 54.226562 76.675781 54.050781 77.066406 53.617188 77.410156 C 52.191406 78.667969 42.710938 81.609375 40.804688 81.609375 C 40.242188 81.609375 39.851562 81.523438 39.722656 81.308594 C 39.59375 81.046875 39.722656 80.527344 40.070312 80.097656 C 41.195312 78.839844 48.597656 75.898438 50.070312 75.636719 C 50.503906 75.59375 50.675781 75.59375 50.890625 75.722656 C 51.109375 75.898438 51.324219 76.371094 51.28125 76.632812 C 51.238281 76.890625 51.066406 77.023438 50.761719 77.28125 C 49.464844 78.191406 41.757812 81.65625 39.980469 81.699219 C 39.460938 81.742188 39.074219 81.609375 38.898438 81.351562 C 38.726562 81.136719 38.726562 80.746094 38.988281 80.355469 C 39.980469 78.925781 50.71875 73.863281 52.667969 73.992188 C 53.1875 74.035156 53.574219 74.382812 53.664062 74.683594 C 53.75 74.988281 53.53125 75.332031 53.097656 75.765625 C 51.585938 77.238281 41.238281 81.871094 39.417969 82.175781 C 39.03125 82.261719 38.8125 82.261719 38.597656 82.085938 C 38.378906 81.914062 38.207031 81.4375 38.25 81.179688 C 38.25 80.917969 38.378906 80.789062 38.769531 80.527344 C 40.546875 79.273438 55.046875 72.78125 57.210938 73.257812 C 57.773438 73.386719 58.035156 73.820312 58.078125 74.164062 C 58.121094 74.425781 57.949219 74.726562 57.515625 75.074219 C 55.871094 76.417969 41.671875 80.703125 41.800781 81.179688 C 41.886719 81.523438 49.417969 79.230469 50.804688 79.664062 C 51.28125 79.835938 51.628906 80.226562 51.671875 80.570312 C 51.671875 80.875 50.890625 81.523438 50.890625 81.523438 "/></clipPath><clipPath id="429fb907a7"><path d="M 61.207031 94.292969 L 68.578125 94.292969 L 68.578125 99.164062 L 61.207031 99.164062 Z M 61.207031 94.292969 "/></clipPath><clipPath id="f529daa751"><path d="M 61.21875 95.734375 C 61.21875 95.519531 61.261719 95.472656 61.261719 95.429688 C 61.304688 95.34375 61.304688 95.300781 61.347656 95.257812 C 61.390625 95.214844 61.433594 95.171875 61.476562 95.128906 C 61.519531 95.128906 61.5625 95.085938 61.605469 95.042969 C 61.648438 95.042969 61.695312 95 61.78125 95 C 61.824219 95 61.867188 95 61.953125 95 C 61.996094 95 62.039062 95 62.082031 95 C 62.167969 95.042969 62.214844 95.042969 62.257812 95.085938 C 62.300781 95.085938 62.34375 95.128906 62.386719 95.171875 C 62.429688 95.214844 62.515625 95.300781 62.515625 95.300781 C 62.515625 95.300781 62.6875 95.648438 62.820312 95.734375 C 62.949219 95.863281 63.121094 95.90625 63.253906 95.90625 C 63.425781 95.90625 63.726562 95.734375 63.726562 95.691406 C 63.773438 95.691406 63.773438 95.648438 63.773438 95.648438 C 63.773438 95.648438 63.816406 95.605469 63.816406 95.5625 C 63.859375 95.519531 63.902344 95.472656 63.902344 95.472656 C 63.902344 95.472656 63.945312 95.386719 63.988281 95.386719 C 63.988281 95.34375 64.074219 95.300781 64.074219 95.300781 C 64.074219 95.300781 64.117188 95.257812 64.160156 95.257812 C 64.203125 95.171875 64.203125 95.042969 64.246094 94.953125 C 64.335938 94.867188 64.59375 94.824219 64.722656 94.695312 C 64.808594 94.609375 64.808594 94.523438 64.898438 94.433594 C 65.070312 94.347656 65.675781 94.304688 65.847656 94.347656 C 65.894531 94.347656 65.894531 94.433594 65.980469 94.433594 C 66.066406 94.480469 66.28125 94.261719 66.457031 94.304688 C 66.714844 94.347656 67.148438 94.652344 67.320312 94.910156 C 67.539062 95.171875 67.496094 95.605469 67.625 95.90625 C 67.753906 96.210938 68.058594 96.511719 68.144531 96.6875 C 68.1875 96.730469 68.1875 96.773438 68.230469 96.773438 C 68.230469 96.816406 68.230469 96.816406 68.230469 96.816406 C 68.273438 96.859375 68.273438 96.945312 68.316406 97.03125 C 68.402344 97.121094 68.578125 97.292969 68.578125 97.464844 C 68.578125 97.769531 68.273438 98.375 68.058594 98.546875 C 67.925781 98.632812 67.710938 98.546875 67.667969 98.589844 C 67.625 98.589844 67.582031 98.632812 67.582031 98.632812 C 67.582031 98.632812 67.539062 98.632812 67.539062 98.632812 C 67.539062 98.632812 67.496094 98.632812 67.453125 98.632812 C 67.40625 98.679688 67.320312 98.679688 67.320312 98.679688 C 67.320312 98.679688 67.191406 98.679688 67.191406 98.679688 C 67.191406 98.679688 67.148438 98.679688 67.148438 98.679688 C 67.148438 98.679688 67.148438 98.632812 67.148438 98.632812 C 67.148438 98.632812 67.105469 98.632812 67.105469 98.632812 C 67.0625 98.632812 67.0625 98.679688 67.019531 98.679688 C 67.019531 98.679688 67.019531 98.632812 66.976562 98.679688 C 66.886719 98.679688 66.367188 99.152344 66.066406 99.152344 C 65.71875 99.152344 65.328125 98.9375 65.070312 98.722656 C 64.808594 98.546875 64.550781 98.113281 64.507812 97.984375 C 64.464844 97.941406 64.507812 97.855469 64.464844 97.855469 C 64.464844 97.855469 64.378906 97.898438 64.289062 97.984375 C 64.117188 98.070312 63.554688 98.503906 63.511719 98.503906 C 63.511719 98.503906 63.46875 98.546875 63.425781 98.546875 C 63.382812 98.589844 63.339844 98.632812 63.339844 98.632812 C 63.339844 98.632812 63.253906 98.632812 63.207031 98.632812 C 63.164062 98.679688 63.121094 98.679688 63.121094 98.679688 C 63.121094 98.679688 63.035156 98.679688 62.992188 98.679688 C 62.949219 98.722656 62.863281 98.722656 62.863281 98.722656 C 62.863281 98.722656 62.777344 98.679688 62.734375 98.679688 C 62.734375 98.679688 62.644531 98.679688 62.644531 98.679688 C 62.644531 98.679688 62.558594 98.632812 62.515625 98.632812 C 62.472656 98.589844 62.429688 98.589844 62.429688 98.546875 C 62.429688 98.546875 62.34375 98.503906 62.34375 98.503906 C 62.300781 98.460938 62.214844 98.417969 62.214844 98.417969 C 62.214844 98.417969 62.167969 98.375 62.167969 98.332031 C 62.125 98.289062 62.125 98.289062 62.082031 98.246094 C 61.996094 98.203125 61.476562 98.332031 61.347656 98.203125 C 61.21875 98.027344 61.347656 97.335938 61.476562 97.121094 C 61.5625 96.945312 61.910156 96.859375 61.910156 96.773438 C 61.910156 96.6875 61.695312 96.644531 61.605469 96.511719 C 61.476562 96.425781 61.390625 96.167969 61.304688 96.082031 C 61.304688 95.992188 61.261719 95.949219 61.261719 95.90625 C 61.21875 95.863281 61.21875 95.734375 61.21875 95.734375 "/></clipPath><clipPath id="5c17e16b44"><path d="M 60.714844 93.277344 L 61.933594 93.277344 L 61.933594 94.335938 L 60.714844 94.335938 Z M 60.714844 93.277344 "/></clipPath><clipPath id="1414335371"><path d="M 61.929688 93.644531 C 61.410156 94.511719 60.890625 94.382812 60.761719 94.164062 C 60.675781 93.992188 60.761719 93.472656 60.933594 93.34375 C 61.109375 93.214844 61.800781 93.386719 61.800781 93.386719 "/></clipPath><clipPath id="cad1547032"><path d="M 58.722656 106.242188 L 59.941406 106.242188 L 59.941406 107.296875 L 58.722656 107.296875 Z M 58.722656 106.242188 "/></clipPath><clipPath id="61670b5648"><path d="M 59.941406 106.632812 C 59.421875 107.5 58.902344 107.328125 58.769531 107.152344 C 58.683594 106.980469 58.769531 106.417969 58.945312 106.289062 C 59.117188 106.15625 59.808594 106.375 59.808594 106.375 "/></clipPath><clipPath id="b52fcbb572"><path d="M 59.015625 93.285156 L 61.996094 93.285156 L 61.996094 98.304688 L 59.015625 98.304688 Z M 59.015625 93.285156 "/></clipPath><clipPath id="c3211b8658"><path d="M 61.886719 94.164062 C 61.324219 97.414062 60.933594 97.714844 60.675781 97.671875 C 60.371094 97.628906 60.027344 97.238281 59.894531 96.894531 C 59.722656 96.285156 59.941406 94.597656 60.371094 94.164062 C 60.589844 93.90625 61.109375 93.863281 61.367188 93.992188 C 61.628906 94.078125 61.800781 94.382812 61.929688 94.683594 C 62.0625 95.117188 61.972656 95.898438 61.800781 96.460938 C 61.671875 97.023438 61.367188 97.800781 60.980469 98.0625 C 60.675781 98.277344 60.199219 98.277344 59.894531 98.191406 C 59.679688 98.0625 59.464844 97.800781 59.375 97.457031 C 59.203125 96.804688 59.289062 95.117188 59.679688 94.511719 C 59.941406 94.121094 60.460938 93.777344 60.804688 93.820312 C 61.109375 93.863281 61.585938 94.296875 61.628906 94.597656 C 61.671875 94.945312 60.980469 95.722656 60.980469 95.722656 C 60.980469 95.722656 61.324219 94.945312 61.453125 94.988281 C 61.585938 94.988281 61.757812 95.550781 61.714844 95.898438 C 61.671875 96.503906 61.195312 97.714844 60.71875 98.0625 C 60.414062 98.277344 59.851562 98.363281 59.550781 98.191406 C 59.289062 98.019531 58.988281 97.195312 59.117188 96.894531 C 59.246094 96.589844 60.113281 96.285156 60.460938 96.332031 C 60.675781 96.375 60.847656 96.589844 60.933594 96.761719 C 61.066406 97.023438 61.109375 97.5 60.980469 97.714844 C 60.847656 97.976562 60.460938 98.277344 60.199219 98.277344 C 59.894531 98.320312 59.507812 98.191406 59.289062 97.976562 C 59.117188 97.757812 58.988281 97.324219 59.074219 97.066406 C 59.117188 96.761719 59.421875 96.417969 59.679688 96.332031 C 59.984375 96.242188 60.414062 96.285156 60.632812 96.460938 C 60.890625 96.632812 61.066406 97.023438 61.066406 97.324219 C 61.066406 97.585938 60.847656 97.976562 60.589844 98.148438 C 60.371094 98.277344 59.808594 98.320312 59.550781 98.191406 C 59.332031 98.0625 59.074219 97.757812 59.03125 97.414062 C 58.945312 96.675781 60.414062 93.949219 60.285156 93.863281 C 60.199219 93.820312 59.679688 94.511719 59.679688 94.511719 C 59.679688 94.511719 60.242188 93.820312 60.546875 93.820312 C 60.847656 93.777344 61.367188 94.035156 61.542969 94.382812 C 61.800781 94.945312 61.628906 97.066406 61.28125 97.195312 C 61.023438 97.324219 60.070312 96.503906 59.941406 96.113281 C 59.894531 95.855469 60.070312 95.378906 60.285156 95.292969 C 60.460938 95.160156 60.890625 95.679688 61.195312 95.636719 C 61.453125 95.550781 61.800781 94.859375 61.84375 94.902344 C 61.972656 94.988281 61.28125 97.542969 60.847656 97.671875 C 60.589844 97.714844 60.070312 97.28125 59.894531 96.894531 C 59.679688 96.242188 60.113281 94.597656 60.460938 93.992188 C 60.71875 93.601562 61.152344 93.214844 61.367188 93.300781 C 61.628906 93.34375 61.886719 94.164062 61.886719 94.164062 "/></clipPath><clipPath id="0f68013185"><path d="M 28.378906 78.257812 L 61.714844 78.257812 L 61.714844 97.605469 L 28.378906 97.605469 Z M 28.378906 78.257812 "/></clipPath><clipPath id="6a6aec4811"><path d="M 20.132812 67.90625 L 71.914062 67.90625 L 71.914062 101.96875 L 20.132812 101.96875 Z M 20.132812 67.90625 "/></clipPath><clipPath id="ce50378d82"><path d="M 61.714844 124 L 64 124 L 64 128.917969 L 61.714844 128.917969 Z M 61.714844 124 "/></clipPath><clipPath id="8aefd35e83"><path d="M 61.714844 87 L 163 87 L 163 114 L 61.714844 114 Z M 61.714844 87 "/></clipPath><clipPath id="feca2f9d99"><path d="M 61.714844 72.878906 L 182.304688 72.878906 L 182.304688 128.917969 L 61.714844 128.917969 Z M 61.714844 72.878906 "/></clipPath><clipPath id="b29a1e9217"><path d="M 66 108 L 148 108 L 148 128.917969 L 66 128.917969 Z M 66 108 "/></clipPath><clipPath id="6d572b4167"><path d="M 38.105469 117.472656 L 55.050781 117.472656 L 55.050781 160.558594 L 38.105469 160.558594 Z M 38.105469 117.472656 "/></clipPath><clipPath id="b11422aa97"><path d="M 46.578125 117.472656 L 55.050781 160.5 L 38.105469 160.5 Z M 46.578125 117.472656 "/></clipPath><clipPath id="63a7206674"><path d="M 72.632812 113.914062 L 90.105469 113.914062 L 90.105469 156.921875 L 72.632812 156.921875 Z M 72.632812 113.914062 "/></clipPath><clipPath id="25f54de4dd"><path d="M 44.710938 117.472656 L 46.875 117.472656 L 46.875 121.742188 L 44.710938 121.742188 Z M 44.710938 117.472656 "/></clipPath><clipPath id="71f63bf855"><path d="M 26.808594 105.863281 L 29.125 105.863281 L 29.125 112.035156 L 26.808594 112.035156 Z M 26.808594 105.863281 "/></clipPath><clipPath id="8c9aa0b60b"><path d="M 27.96875 105.863281 L 29.125 112.03125 L 26.808594 112.03125 Z M 27.96875 105.863281 "/></clipPath><clipPath id="89ac41d169"><path d="M 26.808594 111.75 L 31.441406 111.75 L 31.441406 113.914062 L 26.808594 113.914062 Z M 26.808594 111.75 "/></clipPath><clipPath id="7b0d977490"><path d="M 61.714844 112.03125 L 66.351562 112.03125 L 66.351562 114.195312 L 61.714844 114.195312 Z M 61.714844 112.03125 "/></clipPath><clipPath id="97b4add907"><path d="M 64.03125 106.058594 L 66.351562 106.058594 L 66.351562 112.234375 L 64.03125 112.234375 Z M 64.03125 106.058594 "/></clipPath><clipPath id="ac065be9ad"><path d="M 65.191406 106.058594 L 66.351562 112.230469 L 64.03125 112.230469 Z M 65.191406 106.058594 "/></clipPath><clipPath id="21eaf01718"><path d="M 22.925781 116.367188 L 72.050781 116.367188 L 72.050781 118.5625 L 22.925781 118.5625 Z M 22.925781 116.367188 "/></clipPath><clipPath id="b9dd17c537"><path d="M 22.925781 112.03125 L 25.242188 112.03125 L 25.242188 118.203125 L 22.925781 118.203125 Z M 22.925781 112.03125 "/></clipPath><clipPath id="af48d5ad57"><path d="M 24.085938 112.03125 L 25.242188 118.199219 L 22.925781 118.199219 Z M 24.085938 112.03125 "/></clipPath><clipPath id="8a6dce30b6"><path d="M 68.082031 110.832031 L 70.398438 110.832031 L 70.398438 117 L 68.082031 117 Z M 68.082031 110.832031 "/></clipPath><clipPath id="9190614487"><path d="M 69.242188 110.832031 L 70.398438 117 L 68.082031 117 Z M 69.242188 110.832031 "/></clipPath></defs><g id="9ea89122a7"><rect x="0" width="900" y="0" height="299.999988" style="fill:#ffffff;fill-opacity:1;stroke:none;"/><rect x="0" width="900" y="0" height="299.999988" style="fill:#ffffff;fill-opacity:1;stroke:none;"/><path style=" stroke:none;fill-rule:nonzero;fill:#000000;fill-opacity:1;" d="M 59.304688 121.332031 L 34.488281 121.332031 L 26.21875 215.992188 L 67.574219 215.992188 L 59.304688 121.332031 "/><path style=" stroke:none;fill-rule:nonzero;fill:#000000;fill-opacity:1;" d="M 63.449219 121.058594 L 30.328125 121.058594 L 30.328125 116.640625 L 63.449219 116.640625 L 63.449219 121.058594 "/><path style=" stroke:none;fill-rule:nonzero;fill:#000000;fill-opacity:1;" d="M 61.832031 116.363281 L 31.949219 116.363281 L 31.949219 114.15625 L 61.832031 114.15625 L 61.832031 116.363281 "/><path style=" stroke:none;fill-rule:nonzero;fill:#000000;fill-opacity:1;" d="M 57.394531 110.410156 L 53.535156 110.410156 L 53.535156 107.191406 C 53.535156 106.125 54.398438 105.261719 55.464844 105.261719 C 56.53125 105.261719 57.394531 106.125 57.394531 107.191406 Z M 51.390625 113.746094 L 42.386719 113.746094 L 42.386719 109.242188 C 42.386719 106.757812 44.402344 104.738281 46.890625 104.738281 C 49.375 104.738281 51.390625 106.757812 51.390625 109.242188 Z M 40.242188 110.410156 L 36.382812 110.410156 L 36.382812 107.191406 C 36.382812 106.125 37.246094 105.261719 38.3125 105.261719 C 39.378906 105.261719 40.242188 106.125 40.242188 107.191406 Z M 34.988281 104.179688 L 34.988281 113.878906 L 58.789062 113.878906 L 58.789062 104.179688 L 34.988281 104.179688 "/><g clip-rule="nonzero" clip-path="url(#9ca4eeccf3)"><path style=" stroke:none;fill-rule:nonzero;fill:#000000;fill-opacity:1;" d="M 70.949219 216.269531 L 22.804688 216.269531 L 20.039062 220.625 L 20.039062 220.683594 L 73.714844 220.683594 L 73.714844 220.625 L 70.949219 216.269531 "/></g><path style=" stroke:none;fill-rule:nonzero;fill:#000000;fill-opacity:1;" d="M 64.644531 103.902344 L 59.472656 100.957031 L 59.472656 98.648438 C 59.472656 98.242188 59.265625 97.867188 58.925781 97.652344 L 46.890625 90.035156 L 34.851562 97.652344 C 34.511719 97.867188 34.304688 98.242188 34.304688 98.648438 L 34.304688 100.957031 L 29.132812 103.902344 L 64.644531 103.902344 "/><g clip-rule="nonzero" clip-path="url(#cfcb7ae0e8)"><path style=" stroke:none;fill-rule:nonzero;fill:#000000;fill-opacity:1;" d="M 46.890625 82.851562 L 46.09375 91.929688 L 47.6875 91.929688 L 46.890625 82.851562 L 46.09375 91.929688 L 47.6875 91.929688 L 46.890625 82.851562 "/></g><g clip-rule="nonzero" clip-path="url(#e2e7cb74a5)"><g clip-rule="nonzero" clip-path="url(#5dd0de8a0b)"><g clip-rule="nonzero" clip-path="url(#fd15d9b61f)"><path style=" stroke:none;fill-rule:nonzero;fill:#ffffff;fill-opacity:1;" d="M 28.222656 168.621094 L 50.015625 165.316406 L 56.226562 206.265625 L 34.433594 209.570312 Z M 28.222656 168.621094 "/></g></g></g><g clip-rule="nonzero" clip-path="url(#2c5f42f136)"><g clip-rule="nonzero" clip-path="url(#bd376be83c)"><g clip-rule="nonzero" clip-path="url(#18e188ca95)"><path style=" stroke:none;fill-rule:nonzero;fill:#ffffff;fill-opacity:1;" d="M 63.617188 157.75 L 90.808594 151.765625 L 100.320312 194.996094 L 73.132812 200.976562 Z M 63.617188 157.75 "/></g></g></g><g clip-rule="nonzero" clip-path="url(#9fdc0a2c45)"><g clip-rule="nonzero" clip-path="url(#77424cf7f5)"><path style=" stroke:none;fill-rule:nonzero;fill:#ffffff;fill-opacity:1;" d="M 89.097656 144.988281 L 65.703125 144.988281 L 65.703125 100.667969 L 89.097656 100.667969 Z M 89.097656 144.988281 "/></g></g><g clip-rule="nonzero" clip-path="url(#ba550043ec)"><g clip-rule="nonzero" clip-path="url(#e0d7623660)"><path style=" stroke:none;fill-rule:nonzero;fill:#ffffff;fill-opacity:1;" d="M 53.65625 206.191406 L 39.148438 206.191406 L 39.148438 167.484375 L 53.65625 167.484375 Z M 53.65625 206.191406 "/></g></g><g clip-rule="nonzero" clip-path="url(#408bfd0c50)"><g clip-rule="nonzero" clip-path="url(#0c043be8aa)"><g clip-rule="nonzero" clip-path="url(#916d401118)"><path style=" stroke:none;fill-rule:nonzero;fill:#ffffff;fill-opacity:1;" d="M 42.371094 165.941406 L 65.703125 168.445312 L 61.398438 208.546875 L 38.066406 206.042969 Z M 42.371094 165.941406 "/></g></g></g><g clip-rule="nonzero" clip-path="url(#708820a557)"><g clip-rule="nonzero" clip-path="url(#0db4835cb7)"><path style=" stroke:none;fill-rule:nonzero;fill:#ffffff;fill-opacity:1;" d="M 30.5 223 L 34.398438 223 L 34.398438 226.765625 L 30.5 226.765625 Z M 30.5 223 "/></g></g><g clip-rule="nonzero" clip-path="url(#9297b8b18f)"><g clip-rule="nonzero" clip-path="url(#0888298763)"><path style=" stroke:none;fill-rule:nonzero;fill:#ffffff;fill-opacity:1;" d="M 22.925781 226.421875 L 28.378906 226.421875 L 28.378906 231.789062 L 22.925781 231.789062 Z M 22.925781 226.421875 "/></g></g><g clip-rule="nonzero" clip-path="url(#7a2d550b96)"><g clip-rule="nonzero" clip-path="url(#129e1d9bcb)"><path style=" stroke:none;fill-rule:nonzero;fill:#ffffff;fill-opacity:1;" d="M 67.257812 227.242188 L 72.199219 227.242188 L 72.199219 232.09375 L 67.257812 232.09375 Z M 67.257812 227.242188 "/></g></g><g clip-rule="nonzero" clip-path="url(#a312b96ef1)"><path style=" stroke:none;fill-rule:nonzero;fill:#ffffff;fill-opacity:1;" d="M 22.925781 206.195312 L 72.195312 206.195312 L 72.195312 209.566406 L 22.925781 209.566406 Z M 22.925781 206.195312 "/></g><g clip-rule="nonzero" clip-path="url(#ce75d2c24c)"><g clip-rule="nonzero" clip-path="url(#92f95b899a)"><path style=" stroke:none;fill-rule:nonzero;fill:#ffffff;fill-opacity:1;" d="M 36.519531 117.472656 L 53.460938 117.472656 L 53.460938 160.492188 L 36.519531 160.492188 Z M 36.519531 117.472656 "/></g></g><g clip-rule="nonzero" clip-path="url(#28eeed2b93)"><g clip-rule="nonzero" clip-path="url(#df18598e64)"><path style=" stroke:none;fill-rule:nonzero;fill:#ffffff;fill-opacity:1;" d="M 36.519531 71.523438 L 59.871094 71.523438 L 59.871094 84.988281 L 36.519531 84.988281 Z M 36.519531 71.523438 "/></g></g><g clip-rule="nonzero" clip-path="url(#429fb907a7)"><g clip-rule="nonzero" clip-path="url(#f529daa751)"><path style=" stroke:none;fill-rule:nonzero;fill:#ffffff;fill-opacity:1;" d="M 59.484375 92.574219 L 70.363281 92.574219 L 70.363281 100.886719 L 59.484375 100.886719 Z M 59.484375 92.574219 "/></g></g><g clip-rule="nonzero" clip-path="url(#5c17e16b44)"><g clip-rule="nonzero" clip-path="url(#1414335371)"><path style=" stroke:none;fill-rule:nonzero;fill:#ffffff;fill-opacity:1;" d="M 59.03125 91.613281 L 63.710938 91.613281 L 63.710938 96.199219 L 59.03125 96.199219 Z M 59.03125 91.613281 "/></g></g><g clip-rule="nonzero" clip-path="url(#cad1547032)"><g clip-rule="nonzero" clip-path="url(#61670b5648)"><path style=" stroke:none;fill-rule:nonzero;fill:#ffffff;fill-opacity:1;" d="M 57.039062 104.554688 L 61.71875 104.554688 L 61.71875 109.144531 L 57.039062 109.144531 Z M 57.039062 104.554688 "/></g></g><g clip-rule="nonzero" clip-path="url(#b52fcbb572)"><g clip-rule="nonzero" clip-path="url(#c3211b8658)"><path style=" stroke:none;fill-rule:nonzero;fill:#ffffff;fill-opacity:1;" d="M 57.300781 91.566406 L 63.664062 91.566406 L 63.664062 100.046875 L 57.300781 100.046875 Z M 57.300781 91.566406 "/></g></g><g clip-rule="nonzero" clip-path="url(#0f68013185)"><path style=" stroke:none;fill-rule:nonzero;fill:#ffffff;fill-opacity:1;" d="M 28.378906 78.257812 L 61.714844 78.257812 L 61.714844 97.605469 L 28.378906 97.605469 Z M 28.378906 78.257812 "/></g><path style=" stroke:none;fill-rule:nonzero;fill:#100f0d;fill-opacity:1;" d="M 60.917969 85.714844 L 60.917969 94.40625 C 60.914062 96.972656 54.792969 99.832031 46.007812 99.832031 C 37.222656 99.832031 31.097656 96.972656 31.09375 94.402344 L 31.09375 84.339844 L 47.613281 91.6875 L 60.917969 85.714844 "/><g clip-rule="nonzero" clip-path="url(#6a6aec4811)"><path style=" stroke:none;fill-rule:nonzero;fill:#100f0d;fill-opacity:1;" d="M 42.273438 79.792969 C 42.636719 79.792969 42.933594 79.5 42.933594 79.132812 C 42.933594 78.769531 42.636719 78.472656 42.273438 78.472656 L 25.496094 78.472656 C 25.574219 78.597656 25.621094 78.746094 25.621094 78.90625 L 25.621094 79.792969 Z M 20.136719 99.304688 C 20.851562 93.375 23.167969 90.59375 24.011719 89.761719 L 24.011719 78.90625 C 24.011719 78.746094 24.058594 78.597656 24.140625 78.472656 L 24.136719 78.472656 L 24.140625 78.472656 C 24.28125 78.25 24.53125 78.097656 24.816406 78.097656 C 24.859375 78.097656 24.902344 78.105469 24.945312 78.113281 L 47.632812 67.921875 L 72.046875 78.785156 L 47.609375 89.757812 L 25.621094 79.976562 L 25.621094 89.761719 C 26.46875 90.59375 28.785156 93.375 29.496094 99.304688 C 29.5 99.328125 29.5 99.351562 29.503906 99.375 C 29.507812 99.496094 29.496094 100.132812 28.894531 100.757812 C 28.125 101.550781 26.753906 101.957031 24.816406 101.957031 C 22.882812 101.957031 21.511719 101.550781 20.742188 100.757812 C 20.140625 100.132812 20.128906 99.496094 20.132812 99.375 C 20.132812 99.351562 20.136719 99.328125 20.136719 99.304688 "/></g><g clip-rule="nonzero" clip-path="url(#ce50378d82)"><path style=" stroke:none;fill-rule:nonzero;fill:#59a6d1;fill-opacity:1;" d="M 51.679688 125.296875 C 51.132812 125.171875 50.582031 125.0625 50.03125 124.945312 L 50.121094 126.6875 C 50.527344 126.753906 50.933594 126.820312 51.34375 126.894531 C 52.183594 127.046875 53.019531 127.226562 53.851562 127.421875 L 54.472656 135.335938 L 55.195312 127.761719 C 55.535156 127.851562 55.871094 127.945312 56.207031 128.039062 C 57.792969 128.507812 59.367188 129.074219 60.746094 129.90625 C 61.421875 130.324219 62.082031 130.816406 62.453125 131.449219 C 62.664062 131.769531 62.726562 132.089844 62.761719 132.476562 L 62.824219 133.75 C 62.902344 135.441406 63 137.136719 63.113281 138.828125 C 63.222656 137.136719 63.320312 135.441406 63.398438 133.75 L 63.460938 132.476562 C 63.472656 132.027344 63.398438 131.484375 63.164062 131.070312 C 62.738281 130.195312 62.023438 129.589844 61.316406 129.058594 C 60.59375 128.53125 59.816406 128.117188 59.035156 127.742188 C 58.246094 127.363281 57.441406 127.042969 56.632812 126.742188 C 55.007812 126.148438 53.347656 125.699219 51.679688 125.296875 "/></g><g clip-rule="nonzero" clip-path="url(#8aefd35e83)"><path style=" stroke:none;fill-rule:nonzero;fill:#fbb03b;fill-opacity:1;" d="M 162.085938 87.78125 L 56.957031 100.878906 L 162.085938 113.976562 Z M 162.085938 87.78125 "/></g><g clip-rule="nonzero" clip-path="url(#feca2f9d99)"><path style=" stroke:none;fill-rule:nonzero;fill:#59a6d1;fill-opacity:1;" d="M 46.519531 102.421875 C 43.664062 101.8125 40.777344 101.414062 37.875 101.179688 L 37.875 102.796875 C 38.328125 102.824219 38.78125 102.855469 39.230469 102.890625 C 41.675781 103.074219 44.109375 103.375 46.519531 103.789062 L 46.519531 111.644531 C 43.832031 111.121094 40.730469 110.726562 37.355469 110.496094 L 37.355469 94.125 L 46.519531 94.125 Z M 35.265625 101.011719 C 33.898438 100.945312 32.53125 100.894531 31.164062 100.878906 C 29.535156 100.875 27.90625 100.914062 26.273438 100.988281 L 26.273438 102.625 C 27.902344 102.566406 29.527344 102.539062 31.15625 102.558594 C 32.523438 102.558594 33.894531 102.597656 35.265625 102.65625 L 35.265625 110.375 C 33.710938 110.304688 32.113281 110.265625 30.476562 110.265625 C 28.863281 110.265625 27.285156 110.304688 25.75 110.375 L 25.75 94.125 L 35.265625 94.125 Z M 23.660156 101.148438 C 20.765625 101.367188 17.878906 101.734375 15.019531 102.316406 L 15.019531 103.652344 L 15.046875 103.648438 C 17.703125 103.234375 20.382812 102.941406 23.074219 102.78125 C 23.269531 102.769531 23.464844 102.757812 23.660156 102.746094 L 23.660156 110.492188 C 20.289062 110.71875 17.1875 111.113281 14.496094 111.632812 L 14.496094 94.125 L 23.660156 94.125 Z M 186.769531 284.785156 C 186.230469 284.90625 185.679688 285.003906 185.144531 285.117188 L 183.511719 285.394531 C 181.34375 285.753906 179.167969 285.980469 177.003906 286.148438 C 175.921875 286.246094 174.832031 286.269531 173.757812 286.34375 C 172.671875 286.375 171.597656 286.421875 170.515625 286.421875 C 168.359375 286.429688 166.214844 286.429688 164.066406 286.300781 L 162.460938 286.230469 L 160.855469 286.121094 L 159.253906 286.007812 C 158.722656 285.96875 158.1875 285.90625 157.65625 285.851562 C 155.527344 285.660156 153.402344 285.417969 151.289062 285.128906 C 147.0625 284.558594 142.863281 283.78125 138.691406 282.917969 L 135.5625 282.25 L 132.453125 281.503906 L 130.898438 281.132812 L 129.351562 280.726562 L 126.253906 279.921875 C 122.140625 278.765625 118.042969 277.578125 113.972656 276.238281 L 110.921875 275.246094 L 107.886719 274.191406 L 104.847656 273.136719 L 101.832031 272.015625 C 100.824219 271.640625 99.8125 271.296875 98.808594 270.90625 L 95.804688 269.730469 L 92.765625 268.570312 L 89.5 267.347656 C 81.285156 264.328125 72.726562 262.023438 63.976562 260.65625 L 59.472656 217.3125 L 66.292969 199.945312 L 57.664062 199.945312 L 52.378906 149.101562 C 58.972656 147.601562 63.113281 145.433594 63.113281 143.019531 C 63.113281 140.238281 57.601562 137.78125 49.183594 136.296875 L 49.183594 121.460938 C 53.816406 120.273438 56.675781 118.648438 56.675781 116.851562 C 56.675781 114.945312 53.453125 113.230469 48.308594 112.027344 L 48.308594 94.167969 L 56.957031 94.167969 C 56.957031 94.167969 51.472656 84.066406 36.003906 80.394531 C 36.367188 79.886719 36.574219 79.320312 36.574219 78.714844 C 36.574219 77.121094 35.148438 75.75 33.097656 75.136719 L 30.507812 52.523438 L 27.917969 75.136719 C 25.867188 75.75 24.441406 77.121094 24.441406 78.714844 C 24.441406 79.320312 24.652344 79.886719 25.011719 80.394531 C 9.542969 84.066406 4.058594 94.167969 4.058594 94.167969 L 12.707031 94.167969 L 12.707031 102.847656 C 10.734375 103.347656 8.789062 103.988281 6.953125 104.941406 C 6.339844 105.28125 5.738281 105.65625 5.199219 106.132812 C 4.9375 106.382812 4.679688 106.640625 4.476562 106.957031 C 4.261719 107.257812 4.121094 107.632812 4.074219 108.007812 L 4.058594 108.296875 L 4.070312 108.554688 L 4.097656 109.0625 L 4.152344 110.082031 L 4.277344 112.121094 L 4.40625 110.082031 L 4.457031 109.0625 L 4.484375 108.554688 L 4.496094 108.296875 L 4.535156 108.082031 C 4.660156 107.5 5.113281 107.019531 5.617188 106.636719 C 6.128906 106.253906 6.714844 105.949219 7.316406 105.683594 C 8.140625 105.3125 9.003906 105.023438 9.882812 104.769531 L 10.722656 110.683594 L 11.050781 104.457031 C 11.070312 104.449219 11.085938 104.445312 11.105469 104.441406 C 11.636719 104.3125 12.171875 104.195312 12.707031 104.082031 L 12.707031 112.011719 C 7.527344 113.214844 4.277344 114.9375 4.277344 116.851562 C 4.277344 118.648438 7.148438 120.277344 11.792969 121.46875 L 11.792969 124.800781 C 11.511719 124.855469 11.230469 124.902344 10.949219 124.960938 C 7.605469 125.671875 4.257812 126.570312 1.160156 128.179688 C 0.394531 128.601562 -0.355469 129.070312 -1.023438 129.667969 C -1.351562 129.972656 -1.671875 130.296875 -1.925781 130.691406 C -2.195312 131.066406 -2.367188 131.53125 -2.425781 132.003906 L -2.445312 132.363281 L -2.429688 132.679688 L -2.398438 133.316406 L -2.332031 134.585938 L -2.171875 137.125 L -2.015625 134.585938 L -1.949219 133.316406 L -1.914062 132.679688 L -1.898438 132.363281 L -1.851562 132.089844 C -1.695312 131.367188 -1.132812 130.773438 -0.503906 130.292969 C 0.132812 129.8125 0.863281 129.433594 1.613281 129.105469 C 2.640625 128.640625 3.71875 128.28125 4.8125 127.96875 L 5.859375 135.335938 L 6.265625 127.574219 C 6.289062 127.570312 6.3125 127.5625 6.335938 127.558594 C 7.953125 127.160156 9.59375 126.832031 11.246094 126.566406 C 11.429688 126.539062 11.609375 126.515625 11.792969 126.488281 L 11.792969 136.289062 C 3.351562 137.773438 -2.171875 140.234375 -2.171875 143.019531 C -2.171875 145.398438 1.859375 147.539062 8.292969 149.039062 L 3 199.945312 L -5.625 199.945312 L 1.195312 217.3125 L -4.179688 269.003906 L 15.882812 150.359375 C 20.273438 150.914062 25.226562 151.226562 30.46875 151.226562 C 31.390625 151.226562 32.300781 151.214844 33.199219 151.195312 L 38.007812 259.746094 C 36.714844 259.867188 35.421875 260.007812 34.132812 260.171875 L 30.628906 260.6875 L 27.15625 261.367188 C 26 261.582031 24.855469 261.910156 23.710938 262.183594 C 23.140625 262.324219 22.570312 262.464844 22.003906 262.617188 L 20.3125 263.132812 C 15.800781 264.46875 11.417969 266.191406 7.242188 268.273438 C 3.074219 270.375 -0.894531 272.828125 -4.539062 275.652344 C -8.160156 278.488281 -11.570312 281.632812 -14.21875 285.332031 C -10.367188 282.980469 -6.347656 281.160156 -2.304688 279.558594 C 1.761719 278 5.859375 276.703125 10.007812 275.71875 C 18.289062 273.714844 26.671875 272.847656 35 272.882812 C 39.164062 272.941406 43.316406 273.109375 47.449219 273.625 C 49.515625 273.792969 51.574219 274.175781 53.632812 274.445312 C 54.660156 274.578125 55.679688 274.8125 56.707031 274.992188 C 57.730469 275.1875 58.753906 275.332031 59.773438 275.566406 C 67.9375 277.273438 75.984375 279.667969 83.898438 282.589844 L 86.871094 283.675781 L 90.054688 284.867188 L 93.269531 286.046875 C 94.347656 286.433594 95.4375 286.789062 96.519531 287.152344 L 99.78125 288.226562 C 100.871094 288.570312 101.972656 288.898438 103.070312 289.222656 L 106.375 290.183594 L 109.707031 291.050781 C 114.148438 292.21875 118.671875 293.136719 123.203125 293.941406 C 127.765625 294.65625 132.335938 295.300781 136.957031 295.585938 C 141.574219 295.898438 146.207031 296.039062 150.84375 295.792969 C 151.996094 295.761719 153.160156 295.652344 154.3125 295.582031 C 155.464844 295.515625 156.625 295.402344 157.773438 295.265625 C 158.351562 295.199219 158.925781 295.140625 159.503906 295.066406 L 161.222656 294.820312 L 162.941406 294.566406 L 164.652344 294.257812 C 169.207031 293.390625 173.707031 292.238281 178.015625 290.558594 C 180.171875 289.746094 182.277344 288.796875 184.308594 287.71875 C 185.3125 287.164062 186.3125 286.605469 187.269531 285.972656 C 188.226562 285.355469 189.164062 284.6875 190.011719 283.9375 C 188.941406 284.289062 187.851562 284.546875 186.769531 284.785156 "/></g><path style=" stroke:none;fill-rule:nonzero;fill:#fbb03b;fill-opacity:1;" d="M 135.675781 81.3125 L 66.234375 94.128906 L 133.925781 74.019531 Z M 135.675781 81.3125 "/><g clip-rule="nonzero" clip-path="url(#b29a1e9217)"><path style=" stroke:none;fill-rule:nonzero;fill:#fbb03b;fill-opacity:1;" d="M 146.183594 128.621094 L 66.234375 108.226562 L 147.703125 121.273438 Z M 146.183594 128.621094 "/></g><g clip-rule="nonzero" clip-path="url(#6d572b4167)"><g clip-rule="nonzero" clip-path="url(#b11422aa97)"><path style=" stroke:none;fill-rule:nonzero;fill:#ffffff;fill-opacity:1;" d="M 38.105469 117.472656 L 55.050781 117.472656 L 55.050781 160.492188 L 38.105469 160.492188 Z M 38.105469 117.472656 "/></g></g><g clip-rule="nonzero" clip-path="url(#63a7206674)"><path style=" stroke:none;fill-rule:nonzero;fill:#ffffff;fill-opacity:1;" d="M 72.632812 113.914062 L 90.105469 113.914062 L 90.105469 156.914062 L 72.632812 156.914062 Z M 72.632812 113.914062 "/></g><g clip-rule="nonzero" clip-path="url(#25f54de4dd)"><path style=" stroke:none;fill-rule:nonzero;fill:#ffffff;fill-opacity:1;" d="M 44.710938 117.472656 L 46.875 117.472656 L 46.875 121.746094 L 44.710938 121.746094 Z M 44.710938 117.472656 "/></g><g clip-rule="nonzero" clip-path="url(#71f63bf855)"><g clip-rule="nonzero" clip-path="url(#8c9aa0b60b)"><path style=" stroke:none;fill-rule:nonzero;fill:#000000;fill-opacity:1;" d="M 26.808594 105.863281 L 29.125 105.863281 L 29.125 112.027344 L 26.808594 112.027344 Z M 26.808594 105.863281 "/></g></g><g clip-rule="nonzero" clip-path="url(#89ac41d169)"><path style=" stroke:none;fill-rule:nonzero;fill:#000000;fill-opacity:1;" d="M 26.808594 111.75 L 31.441406 111.75 L 31.441406 113.914062 L 26.808594 113.914062 Z M 26.808594 111.75 "/></g><g clip-rule="nonzero" clip-path="url(#7b0d977490)"><path style=" stroke:none;fill-rule:nonzero;fill:#000000;fill-opacity:1;" d="M 61.714844 112.03125 L 66.347656 112.03125 L 66.347656 114.195312 L 61.714844 114.195312 Z M 61.714844 112.03125 "/></g><g clip-rule="nonzero" clip-path="url(#97b4add907)"><g clip-rule="nonzero" clip-path="url(#ac065be9ad)"><path style=" stroke:none;fill-rule:nonzero;fill:#000000;fill-opacity:1;" d="M 64.03125 106.058594 L 66.351562 106.058594 L 66.351562 112.226562 L 64.03125 112.226562 Z M 64.03125 106.058594 "/></g></g><g clip-rule="nonzero" clip-path="url(#21eaf01718)"><path style=" stroke:none;fill-rule:nonzero;fill:#000000;fill-opacity:1;" d="M 22.925781 116.367188 L 72.046875 116.367188 L 72.046875 118.5625 L 22.925781 118.5625 Z M 22.925781 116.367188 "/></g><g clip-rule="nonzero" clip-path="url(#b9dd17c537)"><g clip-rule="nonzero" clip-path="url(#af48d5ad57)"><path style=" stroke:none;fill-rule:nonzero;fill:#000000;fill-opacity:1;" d="M 22.925781 112.03125 L 25.242188 112.03125 L 25.242188 118.195312 L 22.925781 118.195312 Z M 22.925781 112.03125 "/></g></g><g clip-rule="nonzero" clip-path="url(#8a6dce30b6)"><g clip-rule="nonzero" clip-path="url(#9190614487)"><path style=" stroke:none;fill-rule:nonzero;fill:#000000;fill-opacity:1;" d="M 68.082031 110.832031 L 70.398438 110.832031 L 70.398438 116.996094 L 68.082031 116.996094 Z M 68.082031 110.832031 "/></g></g><g style="fill:#000000;fill-opacity:1;"><g transform="translate(72.315038, 209.073078)"><path style="stroke:none" d="M 8.015625 0 L 8.015625 -55.578125 L 21.40625 -55.578125 L 21.40625 -48.125 L 22.46875 -47.921875 C 24.28125 -50.910156 26.40625 -53.109375 28.84375 -54.515625 C 31.28125 -55.921875 34.394531 -56.625 38.1875 -56.625 C 42.382812 -56.625 45.757812 -55.789062 48.3125 -54.125 C 50.863281 -52.46875 52.726562 -50.046875 53.90625 -46.859375 L 54.96875 -46.859375 C 56.6875 -50.179688 58.894531 -52.640625 61.59375 -54.234375 C 64.300781 -55.828125 67.671875 -56.625 71.703125 -56.625 C 83.222656 -56.625 88.984375 -50.210938 88.984375 -37.390625 L 88.984375 0 L 75.015625 0 L 75.015625 -35.625 C 75.015625 -38.882812 74.375 -41.234375 73.09375 -42.671875 C 71.820312 -44.117188 69.78125 -44.84375 66.96875 -44.84375 C 59.300781 -44.84375 55.46875 -39.71875 55.46875 -29.46875 L 55.46875 0 L 41.515625 0 L 41.515625 -35.625 C 41.515625 -38.882812 40.867188 -41.234375 39.578125 -42.671875 C 38.285156 -44.117188 36.226562 -44.84375 33.40625 -44.84375 C 29.8125 -44.84375 27.003906 -43.640625 24.984375 -41.234375 C 22.972656 -38.835938 21.96875 -35.019531 21.96875 -29.78125 L 21.96875 0 Z M 8.015625 0 "/></g></g><g style="fill:#000000;fill-opacity:1;"><g transform="translate(168.438342, 209.073078)"><path style="stroke:none" d="M 21.671875 1.0625 C 18.109375 1.0625 15.015625 0.40625 12.390625 -0.90625 C 9.773438 -2.21875 7.757812 -4.140625 6.34375 -6.671875 C 4.9375 -9.210938 4.234375 -12.265625 4.234375 -15.828125 C 4.234375 -19.117188 4.9375 -21.878906 6.34375 -24.109375 C 7.757812 -26.335938 9.941406 -28.164062 12.890625 -29.59375 C 15.847656 -31.03125 19.710938 -32.132812 24.484375 -32.90625 C 27.804688 -33.4375 30.332031 -34.019531 32.0625 -34.65625 C 33.800781 -35.300781 34.972656 -36.023438 35.578125 -36.828125 C 36.179688 -37.640625 36.484375 -38.664062 36.484375 -39.90625 C 36.484375 -41.6875 35.859375 -43.046875 34.609375 -43.984375 C 33.367188 -44.921875 31.304688 -45.390625 28.421875 -45.390625 C 25.328125 -45.390625 22.382812 -44.703125 19.59375 -43.328125 C 16.8125 -41.953125 14.394531 -40.140625 12.34375 -37.890625 L 11.34375 -37.890625 L 5.484375 -46.703125 C 8.304688 -49.828125 11.75 -52.257812 15.8125 -54 C 19.882812 -55.75 24.320312 -56.625 29.125 -56.625 C 36.476562 -56.625 41.800781 -55.0625 45.09375 -51.9375 C 48.382812 -48.820312 50.03125 -44.390625 50.03125 -38.640625 L 50.03125 -14.515625 C 50.03125 -12.023438 51.125 -10.78125 53.3125 -10.78125 C 54.144531 -10.78125 54.96875 -10.929688 55.78125 -11.234375 L 56.484375 -11.03125 L 57.484375 -1.3125 C 56.710938 -0.800781 55.640625 -0.382812 54.265625 -0.0625 C 52.890625 0.25 51.378906 0.40625 49.734375 0.40625 C 46.398438 0.40625 43.800781 -0.226562 41.9375 -1.5 C 40.082031 -2.78125 38.75 -4.78125 37.9375 -7.5 L 36.875 -7.609375 C 34.15625 -1.828125 29.085938 1.0625 21.671875 1.0625 Z M 26.09375 -9.375 C 29.320312 -9.375 31.898438 -10.457031 33.828125 -12.625 C 35.765625 -14.789062 36.734375 -17.804688 36.734375 -21.671875 L 36.734375 -27.3125 L 35.765625 -27.515625 C 34.929688 -26.835938 33.832031 -26.269531 32.46875 -25.8125 C 31.113281 -25.363281 29.160156 -24.921875 26.609375 -24.484375 C 23.578125 -23.984375 21.398438 -23.117188 20.078125 -21.890625 C 18.753906 -20.660156 18.09375 -18.921875 18.09375 -16.671875 C 18.09375 -14.285156 18.796875 -12.472656 20.203125 -11.234375 C 21.617188 -9.992188 23.582031 -9.375 26.09375 -9.375 Z M 26.09375 -9.375 "/></g></g><g style="fill:#000000;fill-opacity:1;"><g transform="translate(227.029225, 209.073078)"><path style="stroke:none" d="M 8.015625 0 L 8.015625 -55.578125 L 21.5625 -55.578125 L 21.5625 -47.3125 L 22.625 -47.109375 C 23.96875 -50.203125 25.726562 -52.46875 27.90625 -53.90625 C 30.09375 -55.351562 32.75 -56.078125 35.875 -56.078125 C 39.03125 -56.078125 41.429688 -55.539062 43.078125 -54.46875 L 40.703125 -42.421875 L 39.65625 -42.21875 C 38.75 -42.59375 37.875 -42.863281 37.03125 -43.03125 C 36.1875 -43.195312 35.160156 -43.28125 33.953125 -43.28125 C 30.054688 -43.28125 27.082031 -41.910156 25.03125 -39.171875 C 22.988281 -36.429688 21.96875 -32.039062 21.96875 -26 L 21.96875 0 Z M 8.015625 0 "/></g></g><g style="fill:#000000;fill-opacity:1;"><g transform="translate(269.549046, 209.073078)"><path style="stroke:none" d="M 21.671875 1.0625 C 18.109375 1.0625 15.015625 0.40625 12.390625 -0.90625 C 9.773438 -2.21875 7.757812 -4.140625 6.34375 -6.671875 C 4.9375 -9.210938 4.234375 -12.265625 4.234375 -15.828125 C 4.234375 -19.117188 4.9375 -21.878906 6.34375 -24.109375 C 7.757812 -26.335938 9.941406 -28.164062 12.890625 -29.59375 C 15.847656 -31.03125 19.710938 -32.132812 24.484375 -32.90625 C 27.804688 -33.4375 30.332031 -34.019531 32.0625 -34.65625 C 33.800781 -35.300781 34.972656 -36.023438 35.578125 -36.828125 C 36.179688 -37.640625 36.484375 -38.664062 36.484375 -39.90625 C 36.484375 -41.6875 35.859375 -43.046875 34.609375 -43.984375 C 33.367188 -44.921875 31.304688 -45.390625 28.421875 -45.390625 C 25.328125 -45.390625 22.382812 -44.703125 19.59375 -43.328125 C 16.8125 -41.953125 14.394531 -40.140625 12.34375 -37.890625 L 11.34375 -37.890625 L 5.484375 -46.703125 C 8.304688 -49.828125 11.75 -52.257812 15.8125 -54 C 19.882812 -55.75 24.320312 -56.625 29.125 -56.625 C 36.476562 -56.625 41.800781 -55.0625 45.09375 -51.9375 C 48.382812 -48.820312 50.03125 -44.390625 50.03125 -38.640625 L 50.03125 -14.515625 C 50.03125 -12.023438 51.125 -10.78125 53.3125 -10.78125 C 54.144531 -10.78125 54.96875 -10.929688 55.78125 -11.234375 L 56.484375 -11.03125 L 57.484375 -1.3125 C 56.710938 -0.800781 55.640625 -0.382812 54.265625 -0.0625 C 52.890625 0.25 51.378906 0.40625 49.734375 0.40625 C 46.398438 0.40625 43.800781 -0.226562 41.9375 -1.5 C 40.082031 -2.78125 38.75 -4.78125 37.9375 -7.5 L 36.875 -7.609375 C 34.15625 -1.828125 29.085938 1.0625 21.671875 1.0625 Z M 26.09375 -9.375 C 29.320312 -9.375 31.898438 -10.457031 33.828125 -12.625 C 35.765625 -14.789062 36.734375 -17.804688 36.734375 -21.671875 L 36.734375 -27.3125 L 35.765625 -27.515625 C 34.929688 -26.835938 33.832031 -26.269531 32.46875 -25.8125 C 31.113281 -25.363281 29.160156 -24.921875 26.609375 -24.484375 C 23.578125 -23.984375 21.398438 -23.117188 20.078125 -21.890625 C 18.753906 -20.660156 18.09375 -18.921875 18.09375 -16.671875 C 18.09375 -14.285156 18.796875 -12.472656 20.203125 -11.234375 C 21.617188 -9.992188 23.582031 -9.375 26.09375 -9.375 Z M 26.09375 -9.375 "/></g></g><g style="fill:#000000;fill-opacity:1;"><g transform="translate(365.824265, 207.106733)"><path style="stroke:none" d="M 18.140625 -67.5 L 18.140625 -6.5625 L 50.65625 -6.5625 L 50.65625 0 L 10.203125 0 L 10.203125 -67.5 Z M 18.140625 -67.5 "/></g></g><g style="fill:#000000;fill-opacity:1;"><g transform="translate(419.336673, 207.106733)"><path style="stroke:none" d="M 12.65625 -60.765625 C 11.050781 -60.765625 9.75 -61.265625 8.75 -62.265625 C 7.75 -63.265625 7.25 -64.535156 7.25 -66.078125 C 7.25 -67.609375 7.75 -68.875 8.75 -69.875 C 9.75 -70.882812 11.050781 -71.390625 12.65625 -71.390625 C 14.25 -71.390625 15.546875 -70.882812 16.546875 -69.875 C 17.546875 -68.875 18.046875 -67.609375 18.046875 -66.078125 C 18.046875 -64.535156 17.546875 -63.265625 16.546875 -62.265625 C 15.546875 -61.265625 14.25 -60.765625 12.65625 -60.765625 Z M 8.859375 0 L 8.859375 -50.921875 L 16.390625 -50.921875 L 16.390625 0 Z M 8.859375 0 "/></g></g><g style="fill:#000000;fill-opacity:1;"><g transform="translate(444.592317, 207.106733)"><path style="stroke:none" d="M 26.21875 21.609375 C 18.1875 21.609375 12.320312 20.269531 8.625 17.59375 C 4.9375 14.914062 3.09375 11.359375 3.09375 6.921875 C 3.09375 4.054688 3.953125 1.773438 5.671875 0.078125 C 7.398438 -1.609375 9.910156 -2.820312 13.203125 -3.5625 L 13.203125 -4.53125 C 11.628906 -5.414062 10.453125 -6.457031 9.671875 -7.65625 C 8.890625 -8.863281 8.5 -10.296875 8.5 -11.953125 C 8.5 -13.921875 9.117188 -15.519531 10.359375 -16.75 C 11.609375 -17.988281 13.46875 -18.929688 15.9375 -19.578125 L 15.9375 -20.546875 C 10.394531 -23.472656 7.625 -28.226562 7.625 -34.8125 C 7.625 -38.132812 8.375 -41.085938 9.875 -43.671875 C 11.382812 -46.265625 13.539062 -48.285156 16.34375 -49.734375 C 19.144531 -51.179688 22.410156 -51.90625 26.140625 -51.90625 C 30.410156 -51.90625 33.976562 -50.960938 36.84375 -49.078125 C 37.925781 -50.273438 38.734375 -51.554688 39.265625 -52.921875 C 39.804688 -54.296875 40.15625 -55.847656 40.3125 -57.578125 L 41.28125 -58.171875 L 47.46875 -56.703125 C 47.15625 -54.117188 46.375 -51.929688 45.125 -50.140625 C 43.882812 -48.359375 42.125 -46.882812 39.84375 -45.71875 L 39.84375 -44.734375 C 41.476562 -43.441406 42.6875 -41.925781 43.46875 -40.1875 C 44.257812 -38.445312 44.65625 -36.425781 44.65625 -34.125 C 44.65625 -30.914062 43.882812 -28.035156 42.34375 -25.484375 C 40.800781 -22.929688 38.628906 -20.921875 35.828125 -19.453125 C 33.023438 -17.992188 29.796875 -17.265625 26.140625 -17.265625 C 25.703125 -17.265625 24.929688 -17.296875 23.828125 -17.359375 C 22.597656 -17.421875 21.6875 -17.453125 21.09375 -17.453125 C 19.5 -17.453125 18.222656 -17.035156 17.265625 -16.203125 C 16.316406 -15.367188 15.84375 -14.304688 15.84375 -13.015625 C 15.84375 -11.421875 16.359375 -10.242188 17.390625 -9.484375 C 18.421875 -8.734375 20.117188 -8.3125 22.484375 -8.21875 L 34.53125 -7.796875 C 39.738281 -7.617188 43.59375 -6.410156 46.09375 -4.171875 C 48.601562 -1.941406 49.859375 1.21875 49.859375 5.3125 C 49.859375 8.351562 49.039062 11.097656 47.40625 13.546875 C 45.78125 15.992188 43.195312 17.945312 39.65625 19.40625 C 36.125 20.875 31.644531 21.609375 26.21875 21.609375 Z M 26.140625 -23.734375 C 29.734375 -23.734375 32.515625 -24.671875 34.484375 -26.546875 C 36.460938 -28.421875 37.453125 -31.050781 37.453125 -34.4375 C 37.453125 -37.945312 36.472656 -40.65625 34.515625 -42.5625 C 32.554688 -44.476562 29.765625 -45.4375 26.140625 -45.4375 C 22.503906 -45.4375 19.726562 -44.488281 17.8125 -42.59375 C 15.90625 -40.695312 14.953125 -37.976562 14.953125 -34.4375 C 14.953125 -31.019531 15.90625 -28.378906 17.8125 -26.515625 C 19.726562 -24.660156 22.503906 -23.734375 26.140625 -23.734375 Z M 26.21875 15.140625 C 29.976562 15.140625 33.050781 14.722656 35.4375 13.890625 C 37.820312 13.066406 39.535156 11.96875 40.578125 10.59375 C 41.628906 9.226562 42.15625 7.695312 42.15625 6 C 42.15625 4.488281 41.867188 3.269531 41.296875 2.34375 C 40.734375 1.425781 39.816406 0.734375 38.546875 0.265625 C 37.285156 -0.191406 35.566406 -0.476562 33.390625 -0.59375 L 21.984375 -1.15625 L 20.359375 -1.15625 C 13.984375 -1.0625 10.796875 1.414062 10.796875 6.28125 C 10.796875 12.1875 15.9375 15.140625 26.21875 15.140625 Z M 26.21875 15.140625 "/></g></g><g style="fill:#000000;fill-opacity:1;"><g transform="translate(496.765755, 207.106733)"><path style="stroke:none" d="M 8.859375 0 L 8.859375 -71.390625 L 16.390625 -71.390625 L 16.390625 -43.6875 L 17.359375 -43.5 C 20.992188 -49.101562 26.242188 -51.90625 33.109375 -51.90625 C 39.234375 -51.90625 43.671875 -50.34375 46.421875 -47.21875 C 49.179688 -44.09375 50.5625 -39.28125 50.5625 -32.78125 L 50.5625 0 L 43.03125 0 L 43.03125 -32.59375 C 43.03125 -35.675781 42.632812 -38.144531 41.84375 -40 C 41.0625 -41.863281 39.847656 -43.21875 38.203125 -44.0625 C 36.554688 -44.914062 34.394531 -45.34375 31.71875 -45.34375 C 27.101562 -45.34375 23.394531 -43.847656 20.59375 -40.859375 C 17.789062 -37.878906 16.390625 -32.972656 16.390625 -26.140625 L 16.390625 0 Z M 8.859375 0 "/></g></g><g style="fill:#000000;fill-opacity:1;"><g transform="translate(555.03379, 207.106733)"><path style="stroke:none" d="M 34.4375 -8.078125 L 36.84375 -2.671875 C 35.644531 -1.472656 34.066406 -0.566406 32.109375 0.046875 C 30.160156 0.660156 28.046875 0.96875 25.765625 0.96875 C 16.035156 0.96875 11.171875 -3.957031 11.171875 -13.8125 L 11.171875 -44.78125 L 2.3125 -44.78125 L 2.3125 -50.96875 L 11.171875 -50.96875 L 11.171875 -61.734375 L 18.703125 -62.984375 L 18.703125 -50.96875 L 35.09375 -50.96875 L 35.09375 -44.78125 L 18.703125 -44.78125 L 18.703125 -14.546875 C 18.703125 -8.691406 21.238281 -5.765625 26.3125 -5.765625 C 29.082031 -5.765625 31.46875 -6.535156 33.46875 -8.078125 Z M 34.4375 -8.078125 "/></g></g><g style="fill:#000000;fill-opacity:1;"><g transform="translate(593.817585, 207.106733)"><path style="stroke:none" d="M 8.859375 0 L 8.859375 -71.390625 L 16.390625 -71.390625 L 16.390625 -43.6875 L 17.359375 -43.5 C 20.992188 -49.101562 26.242188 -51.90625 33.109375 -51.90625 C 39.234375 -51.90625 43.671875 -50.34375 46.421875 -47.21875 C 49.179688 -44.09375 50.5625 -39.28125 50.5625 -32.78125 L 50.5625 0 L 43.03125 0 L 43.03125 -32.59375 C 43.03125 -35.675781 42.632812 -38.144531 41.84375 -40 C 41.0625 -41.863281 39.847656 -43.21875 38.203125 -44.0625 C 36.554688 -44.914062 34.394531 -45.34375 31.71875 -45.34375 C 27.101562 -45.34375 23.394531 -43.847656 20.59375 -40.859375 C 17.789062 -37.878906 16.390625 -32.972656 16.390625 -26.140625 L 16.390625 0 Z M 8.859375 0 "/></g></g><g style="fill:#000000;fill-opacity:1;"><g transform="translate(652.454978, 207.106733)"><path style="stroke:none" d="M 29.234375 0.96875 C 24.429688 0.96875 20.25 -0.046875 16.6875 -2.078125 C 13.132812 -4.109375 10.394531 -7.097656 8.46875 -11.046875 C 6.550781 -15.003906 5.59375 -19.800781 5.59375 -25.4375 C 5.59375 -31.070312 6.550781 -35.875 8.46875 -39.84375 C 10.394531 -43.8125 13.132812 -46.8125 16.6875 -48.84375 C 20.25 -50.882812 24.429688 -51.90625 29.234375 -51.90625 C 34.035156 -51.90625 38.210938 -50.882812 41.765625 -48.84375 C 45.316406 -46.8125 48.054688 -43.8125 49.984375 -39.84375 C 51.910156 -35.875 52.875 -31.070312 52.875 -25.4375 C 52.875 -19.800781 51.910156 -15.003906 49.984375 -11.046875 C 48.054688 -7.097656 45.316406 -4.109375 41.765625 -2.078125 C 38.210938 -0.046875 34.035156 0.96875 29.234375 0.96875 Z M 29.234375 -5.765625 C 34.304688 -5.765625 38.1875 -7.363281 40.875 -10.5625 C 43.570312 -13.769531 44.921875 -18.726562 44.921875 -25.4375 C 44.921875 -32.175781 43.570312 -37.144531 40.875 -40.34375 C 38.1875 -43.550781 34.304688 -45.15625 29.234375 -45.15625 C 24.148438 -45.15625 20.253906 -43.546875 17.546875 -40.328125 C 14.835938 -37.109375 13.484375 -32.144531 13.484375 -25.4375 C 13.484375 -18.726562 14.835938 -13.769531 17.546875 -10.5625 C 20.253906 -7.363281 24.148438 -5.765625 29.234375 -5.765625 Z M 29.234375 -5.765625 "/></g></g><g style="fill:#000000;fill-opacity:1;"><g transform="translate(710.907709, 207.106733)"><path style="stroke:none" d="M 25.171875 0.96875 C 19.410156 0.96875 15.117188 -0.550781 12.296875 -3.59375 C 9.484375 -6.644531 8.078125 -11.109375 8.078125 -16.984375 L 8.078125 -50.921875 L 15.609375 -50.921875 L 15.609375 -17.171875 C 15.609375 -9.453125 19.238281 -5.59375 26.5 -5.59375 C 31.113281 -5.59375 34.757812 -7.097656 37.4375 -10.109375 C 40.125 -13.128906 41.46875 -18.023438 41.46875 -24.796875 L 41.46875 -50.921875 L 48.984375 -50.921875 L 48.984375 0 L 41.875 0 L 41.875 -7.984375 L 40.90625 -8.21875 C 39.15625 -5.113281 37.054688 -2.804688 34.609375 -1.296875 C 32.160156 0.210938 29.015625 0.96875 25.171875 0.96875 Z M 25.171875 0.96875 "/></g></g><g style="fill:#000000;fill-opacity:1;"><g transform="translate(768.760221, 207.106733)"><path style="stroke:none" d="M 23.21875 0.96875 C 20.019531 0.96875 17.054688 0.546875 14.328125 -0.296875 C 11.609375 -1.140625 9.3125 -2.300781 7.4375 -3.78125 C 5.5625 -5.257812 4.238281 -6.921875 3.46875 -8.765625 L 7.890625 -13.390625 L 8.859375 -13.390625 C 10.523438 -10.867188 12.523438 -8.96875 14.859375 -7.6875 C 17.203125 -6.40625 19.988281 -5.765625 23.21875 -5.765625 C 26.976562 -5.765625 29.832031 -6.492188 31.78125 -7.953125 C 33.738281 -9.421875 34.71875 -11.460938 34.71875 -14.078125 C 34.71875 -16.078125 34.125 -17.734375 32.9375 -19.046875 C 31.757812 -20.359375 29.847656 -21.335938 27.203125 -21.984375 L 18.609375 -24.109375 C 14.023438 -25.210938 10.675781 -26.960938 8.5625 -29.359375 C 6.457031 -31.765625 5.40625 -34.738281 5.40625 -38.28125 C 5.40625 -41.050781 6.113281 -43.457031 7.53125 -45.5 C 8.945312 -47.550781 10.984375 -49.128906 13.640625 -50.234375 C 16.304688 -51.347656 19.46875 -51.90625 23.125 -51.90625 C 27.8125 -51.90625 31.5 -51.25 34.1875 -49.9375 C 36.882812 -48.625 38.988281 -46.800781 40.5 -44.46875 L 36.25 -40.3125 L 35.328125 -40.3125 C 33.691406 -42.1875 31.910156 -43.539062 29.984375 -44.375 C 28.066406 -45.207031 25.78125 -45.625 23.125 -45.625 C 19.769531 -45.625 17.203125 -45.019531 15.421875 -43.8125 C 13.640625 -42.613281 12.75 -40.875 12.75 -38.59375 C 12.75 -36.53125 13.378906 -34.867188 14.640625 -33.609375 C 15.898438 -32.347656 18.097656 -31.332031 21.234375 -30.5625 L 29.6875 -28.53125 C 34.125 -27.488281 37.328125 -25.75 39.296875 -23.3125 C 41.265625 -20.882812 42.25 -17.835938 42.25 -14.171875 C 42.25 -11.191406 41.539062 -8.5625 40.125 -6.28125 C 38.707031 -4 36.566406 -2.21875 33.703125 -0.9375 C 30.835938 0.332031 27.34375 0.96875 23.21875 0.96875 Z M 23.21875 0.96875 "/></g></g><g style="fill:#000000;fill-opacity:1;"><g transform="translate(815.854806, 207.106733)"><path style="stroke:none" d="M 48.53125 -23.734375 L 13.53125 -23.734375 C 13.75 -17.546875 15.234375 -13.003906 17.984375 -10.109375 C 20.734375 -7.210938 24.507812 -5.765625 29.3125 -5.765625 C 32.945312 -5.765625 35.875 -6.410156 38.09375 -7.703125 C 40.3125 -9.003906 42.050781 -11.039062 43.3125 -13.8125 L 44.28125 -13.8125 L 49.171875 -10.890625 C 47.691406 -7.203125 45.328125 -4.300781 42.078125 -2.1875 C 38.835938 -0.0820312 34.582031 0.96875 29.3125 0.96875 C 24.394531 0.96875 20.164062 0 16.625 -1.9375 C 13.082031 -3.875 10.359375 -6.8125 8.453125 -10.75 C 6.546875 -14.695312 5.59375 -19.59375 5.59375 -25.4375 C 5.59375 -31.226562 6.597656 -36.109375 8.609375 -40.078125 C 10.628906 -44.046875 13.382812 -47.007812 16.875 -48.96875 C 20.363281 -50.925781 24.359375 -51.90625 28.859375 -51.90625 C 35.378906 -51.90625 40.472656 -50.0625 44.140625 -46.375 C 47.804688 -42.695312 49.65625 -37.242188 49.6875 -30.015625 C 49.6875 -27.179688 49.625 -25.269531 49.5 -24.28125 Z M 42.25 -30.015625 C 42.125 -35.429688 40.921875 -39.367188 38.640625 -41.828125 C 36.367188 -44.296875 33.109375 -45.53125 28.859375 -45.53125 C 24.390625 -45.53125 20.882812 -44.289062 18.34375 -41.8125 C 15.8125 -39.332031 14.269531 -35.398438 13.71875 -30.015625 Z M 42.25 -30.015625 "/></g></g></g></svg>