<svg xmlns="http://www.w3.org/2000/svg" xmlns:xlink="http://www.w3.org/1999/xlink" width="728" zoomAndPan="magnify" viewBox="0 0 546 476.249999" height="635" preserveAspectRatio="xMidYMid meet" version="1.2"><defs><clipPath id="2692704f24"><path d="M 365.128906 226.191406 L 389.839844 226.191406 L 389.839844 239.667969 L 365.128906 239.667969 Z M 365.128906 226.191406 "/></clipPath></defs><g id="f2051c8675"><path style=" stroke:none;fill-rule:nonzero;fill:#000000;fill-opacity:1;" d="M 299.328125 260.230469 L 311.355469 352.269531 C 313.085938 365.71875 333.050781 362.730469 331.324219 349.59375 L 319.296875 258.1875 C 341.226562 255.039062 362.847656 249.609375 383.835938 242.058594 L 428.40625 324.734375 C 431.078125 329.613281 437.210938 331.421875 442.085938 328.746094 C 446.957031 326.152344 448.765625 320.015625 446.09375 315.140625 L 402.621094 234.585938 C 419.917969 227.113281 436.976562 217.910156 453.484375 207.054688 L 514.5625 277.773438 C 518.257812 282.019531 524.546875 282.414062 528.792969 278.796875 C 532.957031 275.175781 533.429688 268.804688 529.8125 264.636719 L 469.914062 195.332031 C 476.203125 190.691406 482.488281 186.128906 488.464844 180.9375 C 492.710938 177.316406 493.179688 170.945312 489.566406 166.777344 C 485.949219 162.527344 479.582031 162.058594 475.414062 165.675781 C 356.558594 267.941406 184.953125 266.679688 67.195312 162.136719 C 63.105469 158.4375 56.660156 158.832031 53.042969 163 C 49.351562 167.171875 49.664062 173.542969 53.832031 177.238281 C 60.121094 182.824219 66.644531 188.015625 73.246094 193.050781 L 11.460938 264.636719 C 7.84375 268.804688 8.316406 275.175781 12.480469 278.796875 C 16.726562 282.414062 23.015625 282.019531 26.710938 277.773438 L 89.832031 204.695312 C 105.714844 215.46875 122.457031 224.753906 139.988281 232.539062 L 95.179688 315.140625 C 92.507812 320.015625 94.316406 326.152344 99.1875 328.746094 C 104.0625 331.421875 110.195312 329.613281 112.867188 324.734375 L 158.460938 240.171875 C 179.054688 248.039062 200.359375 253.703125 222.054688 257.164062 L 209.949219 349.59375 C 209.242188 355.101562 213.09375 360.214844 218.597656 360.921875 C 219.070312 361 219.539062 361 219.933594 361 C 224.886719 361 229.210938 357.304688 229.917969 352.269531 L 242.023438 260.074219 C 269.0625 262.75 283.605469 261.488281 299.328125 260.230469 "/><path style=" stroke:none;fill-rule:nonzero;fill:#100f0d;fill-opacity:1;" d="M 377.480469 230.707031 C 376.234375 230.707031 375.21875 231.703125 375.21875 232.929688 C 375.21875 234.152344 376.234375 235.148438 377.480469 235.148438 C 378.730469 235.148438 379.75 234.152344 379.75 232.929688 C 379.75 231.703125 378.730469 230.707031 377.480469 230.707031 "/><g clip-rule="nonzero" clip-path="url(#2692704f24)"><path style=" stroke:none;fill-rule:nonzero;fill:#100f0d;fill-opacity:1;" d="M 388.289062 233.070312 C 388.128906 233.246094 385.085938 236.5625 380.941406 237.933594 C 382.542969 236.851562 383.59375 235.039062 383.59375 232.992188 C 383.59375 230.777344 382.363281 228.839844 380.539062 227.796875 C 384.890625 229.078125 388.125 232.605469 388.289062 232.789062 L 388.417969 232.929688 Z M 366.675781 233.070312 L 366.550781 232.929688 L 366.675781 232.789062 C 366.839844 232.609375 370.066406 229.121094 374.367188 227.820312 C 372.5625 228.867188 371.351562 230.792969 371.351562 232.992188 C 371.351562 235.027344 372.390625 236.828125 373.972656 237.914062 C 369.859375 236.53125 366.835938 233.246094 366.675781 233.070312 Z M 377.472656 237.84375 C 374.742188 237.84375 372.523438 235.667969 372.523438 232.992188 C 372.523438 230.316406 374.742188 228.136719 377.472656 228.136719 C 380.199219 228.136719 382.421875 230.316406 382.421875 232.992188 C 382.421875 235.667969 380.199219 237.84375 377.472656 237.84375 Z M 389.636719 232.546875 L 389.164062 232.027344 C 388.949219 231.789062 383.816406 226.191406 377.484375 226.191406 C 374.832031 226.191406 372.089844 227.144531 369.328125 229.027344 C 367.285156 230.421875 365.945312 231.863281 365.800781 232.027344 L 365.328125 232.546875 C 365.132812 232.765625 365.132812 233.09375 365.328125 233.308594 L 365.800781 233.832031 C 365.945312 233.992188 367.269531 235.425781 369.328125 236.828125 C 372.089844 238.714844 374.832031 239.667969 377.484375 239.667969 C 383.816406 239.667969 388.949219 234.070312 389.164062 233.832031 L 389.636719 233.308594 C 389.835938 233.09375 389.835938 232.765625 389.636719 232.546875 "/></g></g></svg>