<svg xmlns="http://www.w3.org/2000/svg" xmlns:xlink="http://www.w3.org/1999/xlink" width="728" zoomAndPan="magnify" viewBox="0 0 546 476.249999" height="635" preserveAspectRatio="xMidYMid meet" version="1.2"><defs><clipPath id="a35a626e9e"><path d="M 14 93.535156 L 531 93.535156 L 531 381.832031 L 14 381.832031 Z M 14 93.535156 "/></clipPath><clipPath id="4cb5810dc0"><path d="M 267.710938 349.082031 L 293.917969 349.082031 L 293.917969 364.058594 L 267.710938 364.058594 Z M 267.710938 349.082031 "/></clipPath></defs><g id="ba72d1f6ac"><path style=" stroke:none;fill-rule:nonzero;fill:#100f0d;fill-opacity:1;" d="M 272.8125 190.1875 C 246.636719 190.1875 225.34375 211.488281 225.34375 237.667969 C 225.34375 263.871094 246.636719 285.191406 272.8125 285.191406 C 299.007812 285.191406 320.324219 263.871094 320.324219 237.667969 C 320.324219 211.488281 299.007812 190.1875 272.8125 190.1875 "/><g clip-rule="nonzero" clip-path="url(#a35a626e9e)"><path style=" stroke:none;fill-rule:nonzero;fill:#100f0d;fill-opacity:1;" d="M 499.382812 240.679688 C 496.039062 244.453125 432.261719 315.398438 345.332031 344.722656 C 378.894531 321.542969 400.933594 282.8125 400.933594 239.027344 C 400.933594 191.648438 375.144531 150.1875 336.867188 127.945312 C 428.097656 155.332031 495.9375 230.792969 499.390625 234.691406 L 502.046875 237.683594 Z M 46.253906 240.679688 L 43.597656 237.683594 L 46.21875 234.722656 C 49.675781 230.851562 117.328125 156.21875 207.496094 128.425781 C 169.675781 150.785156 144.246094 191.988281 144.246094 239.027344 C 144.246094 282.5625 166.027344 321.097656 199.261719 344.316406 C 113.003906 314.75 49.582031 244.425781 46.253906 240.679688 Z M 272.585938 342.824219 C 215.363281 342.824219 168.8125 296.261719 168.8125 239.027344 C 168.8125 181.785156 215.363281 135.214844 272.585938 135.214844 C 329.816406 135.214844 376.367188 181.785156 376.367188 239.027344 C 376.367188 296.261719 329.816406 342.824219 272.585938 342.824219 Z M 527.660156 229.523438 L 517.765625 218.382812 C 513.25 213.285156 405.582031 93.542969 272.828125 93.542969 C 217.285156 93.542969 159.769531 113.964844 101.875 154.25 C 59.035156 184.054688 30.964844 214.921875 27.871094 218.382812 L 17.988281 229.53125 C 13.863281 234.183594 13.863281 241.179688 17.988281 245.832031 L 27.886719 256.992188 C 30.910156 260.398438 58.667969 291.082031 101.832031 321.117188 C 159.71875 361.398438 217.246094 381.824219 272.828125 381.824219 C 405.582031 381.824219 513.25 262.078125 517.757812 256.988281 L 527.660156 245.839844 C 531.789062 241.183594 531.789062 234.179688 527.660156 229.523438 "/></g><path style=" stroke:none;fill-rule:nonzero;fill:#100f0d;fill-opacity:1;" d="M 280.8125 354.105469 C 279.488281 354.105469 278.414062 355.210938 278.414062 356.570312 C 278.414062 357.933594 279.488281 359.039062 280.8125 359.039062 C 282.136719 359.039062 283.214844 357.933594 283.214844 356.570312 C 283.214844 355.210938 282.136719 354.105469 280.8125 354.105469 "/><g clip-rule="nonzero" clip-path="url(#4cb5810dc0)"><path style=" stroke:none;fill-rule:nonzero;fill:#100f0d;fill-opacity:1;" d="M 292.269531 356.726562 C 292.101562 356.921875 288.875 360.609375 284.480469 362.132812 C 286.175781 360.929688 287.292969 358.917969 287.292969 356.640625 C 287.292969 354.179688 285.988281 352.027344 284.050781 350.871094 C 288.664062 352.292969 292.09375 356.214844 292.269531 356.417969 L 292.402344 356.570312 Z M 269.355469 356.726562 L 269.222656 356.570312 L 269.355469 356.417969 C 269.53125 356.21875 272.953125 352.339844 277.511719 350.894531 C 275.597656 352.058594 274.3125 354.199219 274.3125 356.640625 C 274.3125 358.902344 275.414062 360.90625 277.09375 362.109375 C 272.734375 360.574219 269.527344 356.921875 269.355469 356.726562 Z M 280.800781 362.035156 C 277.910156 362.035156 275.554688 359.613281 275.554688 356.640625 C 275.554688 353.667969 277.910156 351.25 280.800781 351.25 C 283.695312 351.25 286.050781 353.667969 286.050781 356.640625 C 286.050781 359.613281 283.695312 362.035156 280.800781 362.035156 Z M 293.699219 356.148438 L 293.199219 355.570312 C 292.972656 355.304688 287.527344 349.085938 280.8125 349.085938 C 278.003906 349.085938 275.097656 350.144531 272.167969 352.238281 C 270.003906 353.785156 268.585938 355.390625 268.429688 355.570312 L 267.929688 356.148438 C 267.71875 356.390625 267.71875 356.753906 267.929688 356.996094 L 268.429688 357.574219 C 268.582031 357.75 269.984375 359.347656 272.167969 360.90625 C 275.09375 363 278.003906 364.058594 280.8125 364.058594 C 287.527344 364.058594 292.972656 357.839844 293.199219 357.574219 L 293.699219 356.996094 C 293.910156 356.753906 293.910156 356.390625 293.699219 356.148438 "/></g></g></svg>